<svg width="20" height="24" viewBox="0 0 20 24" fill="none" xmlns="http://www.w3.org/2000/svg">
<path d="M19.2806 18.424C18.9327 19.2275 18.521 19.9672 18.044 20.6472C17.3938 21.5743 16.8614 22.216 16.4511 22.5724C15.815 23.1573 15.1336 23.4568 14.4039 23.4739C13.88 23.4739 13.2482 23.3248 12.5128 23.0224C11.775 22.7214 11.0969 22.5724 10.4769 22.5724C9.82671 22.5724 9.12935 22.7214 8.38343 23.0224C7.63638 23.3248 7.03456 23.4824 6.57444 23.498C5.87466 23.5278 5.17716 23.2197 4.48093 22.5724C4.03656 22.1848 3.48075 21.5204 2.8149 20.5791C2.10051 19.5739 1.51317 18.4084 1.05304 17.0795C0.560262 15.6442 0.313232 14.2543 0.313232 12.9087C0.313232 11.3673 0.646296 10.0379 1.31342 8.92385C1.83772 8.029 2.53522 7.32312 3.4082 6.80493C4.28118 6.28674 5.22443 6.02267 6.24024 6.00578C6.79605 6.00578 7.52493 6.1777 8.43071 6.51559C9.33393 6.85462 9.91388 7.02655 10.1681 7.02655C10.3582 7.02655 11.0025 6.82552 12.0947 6.42473C13.1275 6.05305 13.9992 5.89916 14.7133 5.95978C16.6484 6.11595 18.1022 6.87876 19.069 8.25303C17.3384 9.30163 16.4823 10.7703 16.4993 12.6544C16.515 14.122 17.0474 15.3432 18.0937 16.3129C18.5679 16.7629 19.0974 17.1107 19.6866 17.3578C19.5588 17.7283 19.4239 18.0832 19.2806 18.424ZM14.8425 0.960131C14.8425 2.11039 14.4223 3.18439 13.5847 4.17847C12.5738 5.36023 11.3512 6.04311 10.0253 5.93536C10.0084 5.79736 9.99864 5.65213 9.99864 5.49951C9.99864 4.39526 10.4793 3.21349 11.333 2.24724C11.7592 1.75801 12.3013 1.35122 12.9586 1.02671C13.6145 0.707053 14.2349 0.530273 14.8184 0.5C14.8354 0.653772 14.8425 0.807554 14.8425 0.960116V0.960131Z" fill="white"/>
</svg>
