<svg width="32" height="32" viewBox="0 0 32 32" fill="none" xmlns="http://www.w3.org/2000/svg">
<g id="image 17 (traced)">
<g id="Yellow">
<path id="Vector" d="M14.9374 8.72656C14.8499 8.73906 14.5124 8.79531 14.1874 8.85156C12.0937 9.20156 9.91245 10.4453 8.47495 12.0953C4.96245 16.1328 5.2437 22.1703 9.11245 25.8828C10.9687 27.6641 13.3749 28.6328 15.9687 28.6328C16.9624 28.6328 17.5249 28.5703 18.3562 28.3766C22.0062 27.5141 24.9374 24.5203 25.7562 20.8203C26.6062 16.9703 25.1124 13.0078 21.9062 10.6141L21.4062 10.2453L21.3874 11.4766L21.3749 12.7078L21.7374 13.0891C23.1499 14.5766 23.8999 16.3328 23.9812 18.3453C24.0624 20.5703 23.2999 22.5953 21.7812 24.1828C20.6249 25.3891 19.2312 26.1641 17.6187 26.5078C16.7749 26.6891 15.3624 26.7016 14.5499 26.5453C11.3624 25.9141 8.89995 23.5328 8.1812 20.3766C8.02495 19.6828 7.96245 18.3766 8.0562 17.6766C8.4687 14.5766 10.5624 12.0391 13.4999 11.0703C15.2312 10.5016 17.2499 10.5578 18.9374 11.2203L19.3124 11.3703L19.2999 10.2953L19.2812 9.22656L18.9062 9.10781C18.0499 8.84531 17.3624 8.74531 16.2187 8.72031C15.5999 8.70781 15.0249 8.70781 14.9374 8.72656Z" fill="#F39C12"/>
</g>
<g id="Yellow_2">
<path id="Vector_2" d="M14.1875 6.10131C12.5125 6.34505 10.725 6.9888 9.325 7.8638C3.7875 11.3076 1.7375 18.3826 4.5875 24.2201C6.2375 27.5951 9.25625 30.0513 12.8812 30.9701C18.55 32.4076 24.4875 29.7701 27.2187 24.6138C28.1312 22.8763 28.5937 21.1263 28.6687 19.0951C28.725 17.4888 28.5375 16.1576 28.025 14.6326C27.4187 12.8076 26.4812 11.2638 25.125 9.85131C24.4687 9.16381 23.8187 8.6263 23.05 8.10756C22.525 7.75756 21.5125 7.1888 21.4125 7.1888C21.3937 7.1888 21.375 7.87005 21.375 8.70755V10.2201L21.8937 10.6076C24.7187 12.6951 26.2687 16.0951 25.95 19.4826C25.8125 20.9263 25.5437 21.8763 24.9062 23.1576C23.4687 26.0701 20.6437 28.0951 17.375 28.5638C16.6 28.6763 15.1312 28.6513 14.3125 28.5076C12.3625 28.1701 10.525 27.2451 9.1125 25.8826C7.01875 23.8763 5.86875 21.0201 6.025 18.2201C6.25625 14.0201 8.91875 10.5013 12.8562 9.19506C13.9937 8.82006 14.65 8.72005 16 8.72005C17.2375 8.72005 17.9312 8.8138 18.85 9.09505L19.3125 9.2388V7.8138V6.39505L18.675 6.26381C18.3187 6.1888 17.8125 6.10131 17.5437 6.0638C16.8625 5.97631 14.9 5.99505 14.1875 6.10131Z" fill="#F1C40F"/>
<path id="Vector_3" d="M14.5938 10.7876C11.1688 11.3938 8.52501 14.1813 8.05626 17.6751C7.96251 18.3751 8.02501 19.6813 8.18126 20.3751C8.90001 23.5313 11.3625 25.9126 14.55 26.5438C15.3625 26.7001 16.775 26.6876 17.6188 26.5063C20.0188 26.0001 22.0813 24.4001 23.1813 22.2001C24.3438 19.8813 24.2375 16.8876 22.925 14.6626C22.625 14.1376 21.9938 13.3188 21.6375 12.9751L21.3813 12.7313L21.3625 16.1001C21.3375 19.3438 21.3313 19.4876 21.2 19.9688C20.6938 21.7876 19.4 23.1688 17.625 23.7626C17.05 23.9563 16.9938 23.9626 16 23.9626C15.0063 23.9626 14.95 23.9563 14.375 23.7626C12.6 23.1688 11.2875 21.7688 10.8063 19.9688C10.6125 19.2501 10.6125 18.1001 10.8063 17.3751C11.75 13.7501 15.975 12.1563 19.05 14.2626L19.3125 14.4438V12.9126C19.3125 11.5188 19.3 11.3751 19.2063 11.3188C18.9313 11.1751 17.9125 10.8813 17.3813 10.7876C16.6563 10.6626 15.2875 10.6626 14.5938 10.7876Z" fill="#F1C40F"/>
</g>
<g id="Gray">
<path id="Vector_4" d="M19.9375 0.724236C19.675 0.836735 19.3813 1.14923 19.3625 1.33673C19.35 1.40549 19.3438 4.40549 19.3438 7.99924V14.5305L19.5375 14.668C19.825 14.868 20.3938 15.5992 20.6812 16.1242C20.975 16.668 21.1 17.0055 21.2188 17.5305C21.2938 17.8555 21.3062 17.2055 21.3125 12.6242C21.3188 9.71799 21.3438 6.97424 21.3688 6.52424L21.4062 5.70549L23.0938 6.19299C24.025 6.46174 24.875 6.68674 24.9938 6.68674C25.275 6.68674 25.6813 6.48048 25.8438 6.26173C25.9625 6.10548 25.9688 5.97424 25.9875 4.49924C26 3.62424 25.9938 2.81799 25.9688 2.71799C25.9 2.33674 25.5312 2.07423 24.8125 1.87424C24.5 1.78674 24.175 1.69299 23.9375 1.62424C23.85 1.59924 23.6688 1.54299 23.5312 1.50549C23.3938 1.46799 22.6875 1.26798 21.9688 1.06799C20.4188 0.624235 20.2312 0.592985 19.9375 0.724236Z" fill="#2C3E50"/>
</g>
<g id="Gray_2">
<path id="Vector_5" d="M14.9376 13.4672C13.0751 13.8422 11.5438 15.2172 10.9501 17.0609C10.0126 19.9422 11.7376 23.0297 14.7188 23.8172C15.4188 23.9984 16.5813 23.9984 17.2813 23.8172C18.8126 23.4109 20.0501 22.4109 20.7563 21.0047C21.1626 20.1859 21.2688 19.6859 21.2751 18.5609C21.2751 17.6672 21.2626 17.5547 21.1063 17.0922C20.8876 16.4359 20.4938 15.7297 20.0501 15.1984C19.3938 14.4047 18.1188 13.6734 17.0188 13.4609C16.4501 13.3547 15.4876 13.3547 14.9376 13.4672ZM16.6313 17.4859C17.5313 17.9547 17.6001 19.1859 16.7626 19.7797C16.5126 19.9484 16.4438 19.9672 16.0001 19.9672C15.5563 19.9672 15.4876 19.9484 15.2376 19.7797C14.6438 19.3609 14.4688 18.5672 14.8438 17.9672C15.0813 17.5797 15.5563 17.3109 16.0001 17.3109C16.2063 17.3109 16.4001 17.3672 16.6313 17.4859Z" fill="#34495E"/>
</g>
</g>
</svg>
