<svg width="18" height="18" viewBox="0 0 18 18" fill="none" xmlns="http://www.w3.org/2000/svg">
<path d="M9 9C8.55499 9 8.11998 9.13196 7.74997 9.37919C7.37996 9.62643 7.09157 9.97783 6.92127 10.389C6.75097 10.8001 6.70642 11.2525 6.79323 11.689C6.88005 12.1254 7.09434 12.5263 7.40901 12.841C7.72368 13.1557 8.12459 13.37 8.56105 13.4568C8.9975 13.5436 9.4499 13.499 9.86104 13.3287C10.2722 13.1584 10.6236 12.87 10.8708 12.5C11.118 12.13 11.25 11.695 11.25 11.25C11.25 10.6533 11.0129 10.081 10.591 9.65901C10.169 9.23705 9.59674 9 9 9ZM9 12C8.85166 12 8.70666 11.956 8.58332 11.8736C8.45999 11.7912 8.36386 11.6741 8.30709 11.537C8.25032 11.4 8.23547 11.2492 8.26441 11.1037C8.29335 10.9582 8.36478 10.8246 8.46967 10.7197C8.57456 10.6148 8.7082 10.5434 8.85368 10.5144C8.99917 10.4855 9.14997 10.5003 9.28701 10.5571C9.42406 10.6139 9.54119 10.71 9.6236 10.8333C9.70601 10.9567 9.75 11.1017 9.75 11.25C9.75 11.4489 9.67098 11.6397 9.53033 11.7803C9.38968 11.921 9.19891 12 9 12ZM8.4675 7.2825C8.53883 7.35078 8.62294 7.4043 8.715 7.44C8.80478 7.47968 8.90185 7.50017 9 7.50017C9.09815 7.50017 9.19522 7.47968 9.285 7.44C9.37706 7.4043 9.46117 7.35078 9.5325 7.2825L11.25 5.595C11.3952 5.44979 11.4768 5.25285 11.4768 5.0475C11.4768 4.84215 11.3952 4.64521 11.25 4.5C11.1048 4.35479 10.9079 4.27322 10.7025 4.27322C10.4971 4.27322 10.3002 4.35479 10.155 4.5L9.75 4.9425V2.25C9.75 2.05109 9.67098 1.86032 9.53033 1.71967C9.38968 1.57902 9.19891 1.5 9 1.5C8.80109 1.5 8.61032 1.57902 8.46967 1.71967C8.32902 1.86032 8.25 2.05109 8.25 2.25V4.9425L7.845 4.5C7.69979 4.35479 7.50285 4.27322 7.2975 4.27322C7.09215 4.27322 6.89521 4.35479 6.75 4.5C6.60479 4.64521 6.52322 4.84215 6.52322 5.0475C6.52322 5.25285 6.60479 5.44979 6.75 5.595L8.4675 7.2825ZM14.25 11.25C14.25 11.1017 14.206 10.9567 14.1236 10.8333C14.0412 10.71 13.9241 10.6139 13.787 10.5571C13.65 10.5003 13.4992 10.4855 13.3537 10.5144C13.2082 10.5434 13.0746 10.6148 12.9697 10.7197C12.8648 10.8246 12.7934 10.9582 12.7644 11.1037C12.7355 11.2492 12.7503 11.4 12.8071 11.537C12.8639 11.6741 12.96 11.7912 13.0833 11.8736C13.2067 11.956 13.3517 12 13.5 12C13.6989 12 13.8897 11.921 14.0303 11.7803C14.171 11.6397 14.25 11.4489 14.25 11.25ZM15 6H12.75C12.5511 6 12.3603 6.07902 12.2197 6.21967C12.079 6.36032 12 6.55109 12 6.75C12 6.94891 12.079 7.13968 12.2197 7.28033C12.3603 7.42098 12.5511 7.5 12.75 7.5H15C15.1989 7.5 15.3897 7.57902 15.5303 7.71967C15.671 7.86032 15.75 8.05109 15.75 8.25V14.25C15.75 14.4489 15.671 14.6397 15.5303 14.7803C15.3897 14.921 15.1989 15 15 15H3C2.80109 15 2.61032 14.921 2.46967 14.7803C2.32902 14.6397 2.25 14.4489 2.25 14.25V8.25C2.25 8.05109 2.32902 7.86032 2.46967 7.71967C2.61032 7.57902 2.80109 7.5 3 7.5H5.25C5.44891 7.5 5.63968 7.42098 5.78033 7.28033C5.92098 7.13968 6 6.94891 6 6.75C6 6.55109 5.92098 6.36032 5.78033 6.21967C5.63968 6.07902 5.44891 6 5.25 6H3C2.40326 6 1.83097 6.23705 1.40901 6.65901C0.987053 7.08097 0.75 7.65326 0.75 8.25V14.25C0.75 14.8467 0.987053 15.419 1.40901 15.841C1.83097 16.2629 2.40326 16.5 3 16.5H15C15.5967 16.5 16.169 16.2629 16.591 15.841C17.0129 15.419 17.25 14.8467 17.25 14.25V8.25C17.25 7.65326 17.0129 7.08097 16.591 6.65901C16.169 6.23705 15.5967 6 15 6ZM3.75 11.25C3.75 11.3983 3.79399 11.5433 3.8764 11.6667C3.95881 11.79 4.07594 11.8861 4.21299 11.9429C4.35003 11.9997 4.50083 12.0145 4.64632 11.9856C4.7918 11.9566 4.92544 11.8852 5.03033 11.7803C5.13522 11.6754 5.20665 11.5418 5.23559 11.3963C5.26453 11.2508 5.24968 11.1 5.19291 10.963C5.13614 10.8259 5.04001 10.7088 4.91668 10.6264C4.79334 10.544 4.64834 10.5 4.5 10.5C4.30109 10.5 4.11032 10.579 3.96967 10.7197C3.82902 10.8603 3.75 11.0511 3.75 11.25Z" fill="#092C4C"/>
</svg>
