<svg width="19" height="18" viewBox="0 0 19 18" fill="none" xmlns="http://www.w3.org/2000/svg">
<path d="M5.75 11.25H8C8.19891 11.25 8.38968 11.171 8.53033 11.0303C8.67098 10.8897 8.75 10.6989 8.75 10.5C8.75 10.3011 8.67098 10.1103 8.53033 9.96967C8.38968 9.82902 8.19891 9.75 8 9.75H5.75C5.55109 9.75 5.36032 9.82902 5.21967 9.96967C5.07902 10.1103 5 10.3011 5 10.5C5 10.6989 5.07902 10.8897 5.21967 11.0303C5.36032 11.171 5.55109 11.25 5.75 11.25ZM14.75 3.75H4.25C3.65326 3.75 3.08097 3.98705 2.65901 4.40901C2.23705 4.83097 2 5.40326 2 6V12.75C2 13.3467 2.23705 13.919 2.65901 14.341C3.08097 14.7629 3.65326 15 4.25 15H14.75C15.3467 15 15.919 14.7629 16.341 14.341C16.7629 13.919 17 13.3467 17 12.75V6C17 5.40326 16.7629 4.83097 16.341 4.40901C15.919 3.98705 15.3467 3.75 14.75 3.75ZM15.5 12.75C15.5 12.9489 15.421 13.1397 15.2803 13.2803C15.1397 13.421 14.9489 13.5 14.75 13.5H4.25C4.05109 13.5 3.86032 13.421 3.71967 13.2803C3.57902 13.1397 3.5 12.9489 3.5 12.75V8.25H15.5V12.75ZM15.5 6.75H3.5V6C3.5 5.80109 3.57902 5.61032 3.71967 5.46967C3.86032 5.32902 4.05109 5.25 4.25 5.25H14.75C14.9489 5.25 15.1397 5.32902 15.2803 5.46967C15.421 5.61032 15.5 5.80109 15.5 6V6.75Z" fill="#092C4C"/>
</svg>
