<svg width="76" height="67" viewBox="0 0 76 67" fill="none" xmlns="http://www.w3.org/2000/svg">
<g id="Group 889">
<path id="Vector 5" d="M10.5483 12.5057L11.4351 20.4874L10.5483 22.2611L5.22711 26.6954L1.67969 34.6771L3.4534 43.5457L9.6614 50.6405L21.1905 52.4142L25.0705 44.4325L27.3985 39.9982L39.8145 39.1114L46.0225 44.4325L50.4568 52.4142L58.4385 52.4142L67.3071 49.7537L73.5151 42.6588L74.4019 35.564L70.8545 26.6954L63.7596 22.2611L55.7779 21.3743L56.6648 17.8268L54.0042 10.732L49.5699 8.07141L43.3619 8.07141L39.8145 9.84513L37.1539 6.2977L27.3985 0.976562L19.4168 2.75028L14.9825 6.2977L10.5483 12.5057Z" fill="#FF9F43"/>
<g id="Group 888">
<circle id="Ellipse 532" cx="35.379" cy="52.4161" r="13.3028" fill="#FF9F43"/>
<g id="Black">
<path id="Vector" d="M23.1863 0.329376C16.9007 1.44972 11.8373 6.00387 10.1058 12.0567C9.24738 15.0394 9.24738 18.0513 10.0913 21.3687C10.1786 21.7179 10.1349 21.7906 9.55293 22.0816C6.32284 23.7258 3.26734 27.0723 1.91419 30.4333C0.924791 32.8923 0.793841 33.6343 0.793841 36.7625C0.779291 39.4397 0.808391 39.6871 1.18669 41.0402C2.77264 46.7293 7.02124 51.0797 12.5211 52.6802C14.2526 53.1749 15.6639 53.3495 18.1665 53.3495L20.3199 53.3495L20.4218 54.1789C21.0474 59.2568 24.6995 63.971 29.5155 65.9353C32.6729 67.2157 36.5868 67.3466 39.846 66.299C45.0113 64.6112 48.8816 60.1444 49.8273 54.7609L50.0747 53.3495L54.9925 53.3495C57.6988 53.3495 60.4051 53.2768 61.0308 53.1895C67.5783 52.2874 73.0345 47.4277 74.7223 41.0257C75.1734 39.2797 75.3334 36.1369 75.057 34.26C74.7223 31.9756 73.8202 29.6331 72.5107 27.6688C69.4116 22.9983 64.4937 20.3502 58.8628 20.3065C57.2187 20.292 57.015 20.2629 57.0732 20.0446C57.1168 19.9137 57.2332 19.3171 57.3205 18.7206C57.8589 15.1849 56.302 11.2419 53.4503 8.92842C52.3008 7.99722 50.2347 7.00782 48.8379 6.73137C46.1753 6.19302 43.2362 6.67317 41.0828 7.98267C40.6899 8.23002 40.3407 8.36097 40.3116 8.27367C40.1516 7.79352 38.6238 5.82927 37.6635 4.88352C33.9242 1.17327 28.337 -0.587273 23.1863 0.329376ZM29.37 2.87563C31.0869 3.29757 33.5459 4.51977 34.9718 5.66922C36.354 6.78957 37.7363 8.46282 38.5511 10.0197C39.3804 11.6202 39.9333 11.8384 41.0246 10.9363C46.2917 6.52767 54.0322 9.52497 54.9925 16.3198C55.1671 17.6002 54.9635 19.1716 54.4542 20.3793C53.5084 22.5909 53.9595 23.2893 56.0984 22.8528C57.6697 22.5181 60.8853 22.6345 62.3985 23.0856C66.5307 24.2787 69.7899 27.0432 71.5795 30.8553C72.4089 32.6304 72.7435 34.0708 72.8308 36.1805C73.0054 40.1963 71.6959 43.6883 68.9605 46.5547C67.5928 47.9806 66.4725 48.7954 64.6974 49.6393C62.1657 50.8324 61.6419 50.9197 55.3999 50.9779L49.9292 51.0506L49.8273 50.1485C49.6818 48.839 49.0853 46.9039 48.416 45.5798C44.1674 37.0826 33.3131 34.6964 25.8926 40.6474C23.7537 42.3497 22.1096 44.6777 21.2366 47.224C20.8583 48.3152 20.4945 49.9885 20.4945 50.6141L20.4945 51.0506L17.7737 50.9779C15.4457 50.9197 14.82 50.8615 13.5978 50.5414C8.21433 49.1155 4.31494 44.9251 3.16549 39.3088C2.87449 37.8974 2.94724 35.1621 3.31099 33.6634C4.46044 28.891 7.85059 25.0789 12.3611 23.4639C14.2671 22.78 15.5912 22.5909 17.9046 22.6927C20.1744 22.78 21.3675 23.071 23.3318 24.0313C24.4958 24.5842 25.0778 24.9625 27.0129 26.4612C27.6386 26.9559 28.1187 26.9704 28.5698 26.5048C29.0936 25.9956 29.0354 25.5154 28.3515 24.7734C26.7365 23.0128 23.4191 21.325 20.3199 20.6703C18.2393 20.2338 14.2671 20.3938 12.7103 20.9904C12.4484 21.0922 12.0992 19.9428 11.8955 18.2259C11.2698 13.0897 13.8161 7.69167 18.1956 4.83987C20.0435 3.63222 22.1387 2.86108 24.4958 2.51187C25.427 2.38092 28.1769 2.57008 29.37 2.87563ZM37.94 39.9053C42.9597 41.0548 46.7427 45.0997 47.5721 50.2213C47.8049 51.6617 47.6594 54.1207 47.2811 55.4593C46.5681 57.9182 44.9967 60.3044 43.047 61.8904C41.8685 62.8507 39.8606 63.8692 38.3183 64.2766C36.6596 64.7276 33.7205 64.7276 32.0618 64.2766C27.3621 63.0107 23.8556 59.2859 22.8807 54.5572C22.5606 53.0294 22.677 50.2213 23.099 48.7226C24.5394 43.7611 28.7444 40.2545 34.026 39.6143C34.8408 39.527 36.936 39.6725 37.94 39.9053Z" fill="#092C4C"/>
<path id="Vector_2" d="M34.6803 44.3406C34.2293 44.5879 29.9516 48.8656 29.7188 49.3021C29.4423 49.8404 29.4569 50.0732 29.8497 50.5243C30.1116 50.8153 30.3153 50.9171 30.6791 50.9026C31.0865 50.888 31.3775 50.6698 32.5997 49.4621L34.0256 48.0362L34.0256 53.5652C34.0256 57.712 34.0692 59.1815 34.2147 59.458C34.433 59.8945 35.0004 60.1127 35.5388 59.9818C36.3099 59.7926 36.3536 59.4289 36.3536 53.4634L36.3536 48.0362L37.7795 49.4621C38.9871 50.6698 39.2636 50.8735 39.671 50.8735C40.2966 50.8735 40.7186 50.437 40.7186 49.7677C40.7186 49.273 40.5294 49.0547 38.4342 46.9159C35.7425 44.1951 35.3933 43.9622 34.6803 44.3406Z" fill="#092C4C"/>
</g>
</g>
</g>
</svg>
