<svg width="32" height="32" viewBox="0 0 32 32" fill="none" xmlns="http://www.w3.org/2000/svg">
<g clip-path="url(#clip0_5201_173308)">
<path d="M16.0188 5.4375C16.1063 5.59375 16.2001 5.6875 16.2813 5.6875C16.3813 5.6875 16.3563 5.64375 16.1563 5.4375C16.0251 5.3 15.9063 5.1875 15.9001 5.1875C15.8938 5.1875 15.9438 5.3 16.0188 5.4375Z" fill="#FFB312"/>
<path d="M30.25 6.88886C30.375 7.17636 30.375 7.21386 30.3625 16.9826L30.3438 26.7826L30.1563 27.1201C29.9563 27.4826 29.5875 27.8201 29.225 27.9701C29.025 28.0576 28.9813 28.0576 28.8625 27.9764C28.5563 27.7576 28.5 27.5826 28.5 26.7639V26.0014H14.275H0.0562744L0.100024 26.1389C0.287524 26.7514 0.887524 27.5014 1.40002 27.7639C2.03127 28.0889 1.10002 28.0701 16.2625 28.0701H30.375L30.7125 27.9201C31.1688 27.7076 31.5625 27.3326 31.7875 26.8951L31.9688 26.5326L31.9875 21.5451C32 16.9201 31.9938 16.5639 31.9 16.5639C31.8 16.5639 31.8 16.5576 31.9 16.4451C32.0063 16.3326 32 16.3264 31.8188 16.2826C31.6063 16.2389 31.5813 16.1951 31.7 16.0764C31.7563 16.0201 31.7563 16.0014 31.6813 16.0014C31.6375 16.0014 31.5563 15.9764 31.5063 15.9451C31.4313 15.8951 31.4313 15.8701 31.4938 15.7951C31.5563 15.7139 31.5375 15.6951 31.3688 15.6576C31.2313 15.6264 31.1938 15.5951 31.2438 15.5451C31.3438 15.4451 31.3313 15.3951 31.175 15.3576C31.0688 15.3264 31.0563 15.3014 31.1188 15.2264C31.1813 15.1514 31.1688 15.1264 31.0625 15.0951C30.9625 15.0639 30.9438 15.0326 30.9938 14.9826C31.0938 14.8826 31.0813 14.8139 30.9563 14.8139C30.875 14.8139 30.8688 14.7951 30.925 14.7389C31.025 14.6389 31.0188 14.5639 30.9063 14.5639C30.7938 14.5639 30.7875 14.4889 30.8875 14.3889C30.9438 14.3326 30.9375 14.3139 30.8563 14.3139C30.7313 14.3139 30.7188 14.2451 30.825 14.1389C30.8813 14.0826 30.875 14.0639 30.7813 14.0639C30.675 14.0639 30.675 14.0576 30.7813 13.9389C30.8875 13.8201 30.8875 13.8139 30.7813 13.8139C30.6938 13.8139 30.6875 13.7951 30.75 13.7201C30.8125 13.6451 30.8063 13.6201 30.725 13.5889C30.65 13.5576 30.6375 13.5264 30.6875 13.4701C30.7188 13.4326 30.7313 13.3764 30.7063 13.3576C30.6875 13.3326 30.7063 13.2764 30.75 13.2201C30.8063 13.1514 30.8063 13.1264 30.7563 13.1264C30.7063 13.1264 30.6938 13.0764 30.7188 13.0014C30.7438 12.9201 30.7313 12.8764 30.6813 12.8764C30.6313 12.8764 30.65 12.8326 30.7188 12.7514C30.8 12.6639 30.8063 12.6264 30.75 12.6264C30.6938 12.6264 30.7 12.5889 30.775 12.5076C30.8375 12.4389 30.8688 12.3576 30.85 12.3264C30.8313 12.2951 30.8563 12.2326 30.9063 12.1889C30.975 12.1326 30.9813 12.0889 30.9375 12.0326C30.8938 11.9764 30.9 11.9326 30.9688 11.8764C31.0188 11.8326 31.05 11.7764 31.0313 11.7514C31.0125 11.7264 31.0438 11.6701 31.0938 11.6264C31.1438 11.5826 31.1688 11.5201 31.15 11.4889C31.1313 11.4576 31.1625 11.3764 31.2188 11.3139C31.2875 11.2326 31.3 11.1889 31.25 11.1576C31.2 11.1264 31.2125 11.0764 31.2875 10.9951C31.3438 10.9326 31.3688 10.8764 31.3438 10.8764C31.3188 10.8764 31.3438 10.8139 31.4125 10.7451C31.5 10.6389 31.5125 10.6014 31.45 10.5826C31.3875 10.5576 31.3938 10.5264 31.475 10.4326C31.5313 10.3701 31.5563 10.3139 31.5313 10.3139C31.5063 10.3139 31.5313 10.2576 31.5938 10.1889C31.6563 10.1201 31.6875 10.0451 31.6688 10.0264C31.6438 10.0014 31.7125 9.88261 31.8125 9.75136C31.9375 9.58886 31.975 9.50136 31.9313 9.45761C31.8813 9.40761 31.8875 9.37636 31.9313 9.35136C31.9688 9.32636 32 9.12011 32 8.88886V8.47011L31.0625 7.53261C30.175 6.65136 30.125 6.61386 30.25 6.88886Z" fill="#FFB212"/>
<path d="M2 4.05625C1.48125 4.225 1.1875 4.39375 0.85625 4.71875C0.50625 5.06875 0.3 5.40625 0.125 5.90625C0 6.2625 0 6.425 0 15.9375C0 21.2562 0.01875 25.7 0.0375 25.8062L0.08125 26H14.2875H28.5V18.2562C28.5 13.2562 28.475 10.4 28.4375 10.1812C28.25 9.19375 27.5688 8.425 26.525 8.025C26.2313 7.9125 25.8313 7.90625 18.4688 7.875C11.2312 7.84375 10.7 7.8375 10.4375 7.73125C9.64375 7.4125 9.13125 6.9 8.75 6.01875C8.6 5.68125 8.3875 5.2625 8.26875 5.08125C8 4.6625 7.5 4.28125 6.95625 4.0875C6.5375 3.94375 6.49375 3.9375 4.4375 3.94375C2.60625 3.94375 2.3 3.95625 2 4.05625Z" fill="#FFD00D"/>
<path d="M14.2563 4.025C14.7938 4.175 15.2 4.45 15.8125 5.075L16.4 5.6875H22.6063C28.7813 5.6875 28.8125 5.6875 29.1625 5.81875C29.4813 5.9375 29.65 6.0875 30.7563 7.2125L31.9938 8.46875L32 7.3C32 6.225 31.9875 6.1 31.85 5.725C31.575 4.9625 30.975 4.3625 30.2125 4.0875L29.8063 3.9375L21.8875 3.94375C15.3688 3.95 14.0188 3.9625 14.2563 4.025Z" fill="#FFD00D"/>
<path d="M31.7937 9.77422C31.7 9.88672 31.65 9.99922 31.6687 10.0242C31.6875 10.043 31.6562 10.118 31.5937 10.1867C31.5312 10.2555 31.5062 10.3117 31.5312 10.3117C31.5562 10.3117 31.5312 10.368 31.475 10.4305C31.3937 10.5242 31.3875 10.5555 31.45 10.5805C31.5125 10.5992 31.5 10.6367 31.4125 10.743C31.3437 10.8117 31.3187 10.8742 31.3437 10.8742C31.3687 10.8742 31.3437 10.9305 31.2875 10.993C31.2125 11.0742 31.2 11.1242 31.25 11.1555C31.3 11.1867 31.2875 11.2305 31.2187 11.3117C31.1625 11.3742 31.1312 11.4555 31.15 11.4867C31.1687 11.518 31.1437 11.5805 31.0937 11.6242C31.0437 11.668 31.0125 11.7242 31.0312 11.7492C31.05 11.7742 31.0187 11.8305 30.9687 11.8742C30.9 11.9305 30.8937 11.9742 30.9375 12.0305C30.9812 12.0867 30.975 12.1305 30.9062 12.1867C30.8562 12.2305 30.8312 12.293 30.85 12.3242C30.8687 12.3555 30.8375 12.4367 30.775 12.5055C30.7 12.5867 30.6937 12.6242 30.75 12.6242C30.8062 12.6242 30.8 12.6617 30.7187 12.7492C30.65 12.8305 30.6312 12.8742 30.6812 12.8742C30.7312 12.8742 30.7437 12.918 30.7187 12.9992C30.6937 13.0742 30.7062 13.1242 30.7562 13.1242C30.8062 13.1242 30.8062 13.1492 30.75 13.218C30.7062 13.2742 30.6875 13.3305 30.7062 13.3555C30.7312 13.3742 30.7187 13.4305 30.6875 13.468C30.6375 13.5242 30.65 13.5555 30.725 13.5867C30.8062 13.618 30.8125 13.643 30.75 13.718C30.6875 13.793 30.6937 13.8117 30.7812 13.8117C30.8875 13.8117 30.8875 13.818 30.7812 13.9367C30.675 14.0555 30.675 14.0617 30.7812 14.0617C30.875 14.0617 30.8812 14.0805 30.825 14.1367C30.7187 14.243 30.7312 14.3117 30.8562 14.3117C30.9375 14.3117 30.9437 14.3305 30.8875 14.3867C30.7875 14.4867 30.7937 14.5617 30.9062 14.5617C31.0187 14.5617 31.025 14.6367 30.925 14.7367C30.8687 14.793 30.875 14.8117 30.9562 14.8117C31.0812 14.8117 31.0937 14.8805 30.9937 14.9805C30.9437 15.0305 30.9625 15.0617 31.0625 15.093C31.1687 15.1242 31.1812 15.1492 31.1187 15.2242C31.0562 15.2992 31.0687 15.3242 31.175 15.3555C31.3312 15.393 31.3437 15.443 31.2437 15.543C31.1937 15.593 31.2312 15.6242 31.3687 15.6555C31.5375 15.693 31.5562 15.7117 31.4937 15.793C31.4312 15.868 31.4312 15.893 31.5062 15.943C31.5562 15.9742 31.6312 15.9992 31.6812 15.9992C31.75 15.9992 31.75 16.018 31.6875 16.093C31.5937 16.2055 31.6062 16.2242 31.8312 16.2805L32 16.3242V12.943C32 11.0805 31.9875 9.56172 31.975 9.56172C31.9625 9.56172 31.8812 9.65547 31.7937 9.77422Z" fill="#FFB212"/>
<path d="M31.875 16.4688C31.8125 16.5437 31.8125 16.5625 31.9 16.5625C31.9562 16.5625 32 16.5188 32 16.4688C32 16.4188 31.9875 16.375 31.975 16.375C31.9625 16.375 31.9187 16.4188 31.875 16.4688Z" fill="#FFD00D"/>
<path d="M9.94998 4C9.44373 4.06875 8.83748 4.35 8.47498 4.6875L8.19373 4.95L8.34373 5.15625C8.43123 5.26875 8.57498 5.5375 8.66248 5.75625C8.74998 5.975 8.88123 6.2625 8.94373 6.3875L9.06248 6.625H12.7875C15.7437 6.625 16.5062 6.60625 16.4812 6.54375C15.975 5.34375 15.7125 4.94375 15.2 4.55C14.5125 4.03125 14.2687 3.98125 12.1562 3.9625C11.1625 3.95625 10.1625 3.96875 9.94998 4Z" fill="#FD4571"/>
<path d="M16.3125 6.0625C16.45 6.4125 16.575 6.625 16.6375 6.625C16.6625 6.625 16.7438 6.5375 16.8188 6.43125L16.95 6.2375L16.7125 5.99375C16.575 5.85 16.4125 5.75 16.3312 5.75H16.1875L16.3125 6.0625Z" fill="#BAC7E0"/>
<path d="M28.2063 9.37322C28.2938 9.52947 28.3813 9.74822 28.4063 9.85447C28.45 10.0795 28.5625 10.1357 28.5625 9.93572C28.5625 9.73572 28.4063 9.41697 28.225 9.24822L28.0563 9.09197L28.2063 9.37322Z" fill="#D0D8E6"/>
<path d="M28.5687 18.7C28.5625 25.9 28.5625 25.9375 28.6875 25.9375C28.7562 25.9375 28.8125 25.9812 28.8125 26.0312C28.8125 26.0938 28.8812 26.125 29.0312 26.125C29.1812 26.125 29.25 26.1562 29.25 26.2188C29.25 26.2938 29.35 26.3125 29.775 26.3125H30.3L30.3437 22.1562C30.3687 19.8687 30.375 17.975 30.35 17.9563C30.3312 17.9313 30.3125 18.1312 30.3125 18.3937C30.3125 18.7812 30.2937 18.875 30.2187 18.875C30.1625 18.875 30.125 18.8187 30.125 18.7188C30.125 18.6188 30.0875 18.5625 30.0312 18.5625C29.975 18.5625 29.9375 18.5062 29.9375 18.4062C29.9375 18.3187 29.9125 18.25 29.875 18.25C29.8437 18.25 29.8125 18.1812 29.8125 18.0938C29.8125 17.9937 29.775 17.9375 29.7125 17.9375C29.6375 17.9375 29.6187 17.9 29.65 17.7812C29.6812 17.6625 29.6625 17.625 29.5875 17.625C29.5125 17.625 29.4937 17.5875 29.525 17.4688C29.55 17.3813 29.5375 17.3125 29.5 17.3125C29.4687 17.3125 29.4375 17.2437 29.4375 17.1562C29.4375 17.0688 29.4062 17 29.3687 17C29.325 17 29.3125 16.9312 29.3375 16.8125C29.3625 16.675 29.35 16.625 29.2812 16.625C29.2187 16.625 29.2062 16.5688 29.2312 16.4062C29.2562 16.2688 29.2437 16.1875 29.2 16.1875C29.1562 16.1875 29.1437 16.1187 29.1687 16C29.1875 15.8938 29.1812 15.8125 29.15 15.8125C29.1187 15.8125 29.0875 15.6375 29.0812 15.425C29.075 15.2125 29.0375 15.0187 28.9937 14.9937C28.95 14.9688 28.9312 14.8938 28.95 14.8313C28.9687 14.7625 28.9437 14.475 28.9 14.1937C28.8125 13.6437 28.7312 12.7937 28.7312 12.45C28.7312 12.3438 28.7 12.25 28.6687 12.25C28.6375 12.25 28.625 12.1875 28.6437 12.1062C28.6625 12.0312 28.6562 11.8562 28.625 11.7188C28.6 11.5813 28.575 14.725 28.5687 18.7Z" fill="#BAC7E0"/>
<path d="M16.7937 6.45591L16.6312 6.66841L16.8187 6.89966C16.925 7.02466 17.0375 7.10591 17.0687 7.08716C17.1062 7.06841 17.1187 7.03091 17.1 7.01216C17.075 6.99341 17.1312 6.90591 17.2187 6.81216L17.375 6.64966L17.1687 6.44341L16.9562 6.24341L16.7937 6.45591Z" fill="#BAC7E0"/>
<path d="M28.475 9.5625C28.5 9.6125 28.5313 9.825 28.5375 10.0312C28.5438 10.2375 28.575 10.7312 28.6 11.125C28.625 11.5188 28.6438 11.9375 28.6375 12.0437C28.6375 12.1562 28.6563 12.25 28.6813 12.25C28.7063 12.25 28.7313 12.3438 28.7313 12.45C28.7313 12.7937 28.8125 13.6437 28.9 14.1937C28.9438 14.475 28.9688 14.7625 28.95 14.8312C28.9313 14.8937 28.95 14.9687 28.9938 14.9937C29.0375 15.0187 29.075 15.2125 29.0813 15.425C29.0875 15.6375 29.1188 15.8125 29.15 15.8125C29.1813 15.8125 29.1875 15.8937 29.1688 16C29.1438 16.1188 29.1563 16.1875 29.2 16.1875C29.2438 16.1875 29.2563 16.2687 29.2313 16.4062C29.2063 16.5687 29.2188 16.625 29.2813 16.625C29.35 16.625 29.3625 16.675 29.3375 16.8125C29.3125 16.9312 29.325 17 29.3688 17C29.4063 17 29.4375 17.0688 29.4375 17.1562C29.4375 17.2437 29.4688 17.3125 29.5 17.3125C29.5375 17.3125 29.55 17.3813 29.525 17.4688C29.4938 17.5875 29.5125 17.625 29.5875 17.625C29.6625 17.625 29.6813 17.6625 29.65 17.7812C29.6188 17.9 29.6375 17.9375 29.7125 17.9375C29.775 17.9375 29.8125 17.9937 29.8125 18.0938C29.8125 18.1812 29.8438 18.25 29.875 18.25C29.9125 18.25 29.9375 18.3188 29.9375 18.4062C29.9375 18.5062 29.975 18.5625 30.0313 18.5625C30.0875 18.5625 30.125 18.6188 30.125 18.7188C30.125 18.8062 30.1625 18.875 30.2125 18.875C30.325 18.875 30.375 17.9312 30.3063 16.9187C30.2813 16.5 30.275 16.1375 30.2875 16.1125C30.3063 16.0812 30.2875 16.0625 30.2563 16.0625C30.2188 16.0625 30.1875 16.0062 30.1875 15.9375C30.1875 15.8688 30.1625 15.8125 30.1313 15.8125C30.1 15.8125 30.0563 15.6813 30.0313 15.5125C30.0063 15.35 29.9688 15.2062 29.9438 15.1875C29.8938 15.15 29.3375 12.4 29.2813 11.9062C29.2625 11.7312 29.2261 11.3812 29.1886 11.125C29.1573 10.8687 29.1125 10.5562 29.1 10.4375C29.0813 10.1562 29.0063 10.025 28.6813 9.71875C28.5375 9.58125 28.4438 9.5125 28.475 9.5625Z" fill="#BAC7E0"/>
<path d="M16.925 6.20553L17.3812 6.66178L17.2312 6.79928C17 7.01803 17.05 7.16803 17.4375 7.41178C18.1312 7.84928 17.9812 7.83053 22.375 7.87428C26.6437 7.91178 26.4312 7.89303 27.1062 8.24303C27.3438 8.36178 28.8875 9.86803 29.025 10.1118C29.0625 10.168 29.0937 10.318 29.1 10.4368C29.1125 10.5555 29.15 10.868 29.1812 11.1243C29.2188 11.3805 29.2625 11.7305 29.2812 11.9055C29.3375 12.3993 29.8937 15.1493 29.9437 15.1868C29.9687 15.2055 30.0062 15.3493 30.0312 15.5118C30.0562 15.6805 30.1 15.8118 30.1312 15.8118C30.1625 15.8118 30.1875 15.868 30.1875 15.9368C30.1875 16.0055 30.2187 16.0618 30.2562 16.0618C30.2875 16.0618 30.3062 16.0805 30.2937 16.1055C30.275 16.1368 30.2875 16.4618 30.3125 16.843C30.3375 17.2305 30.3625 15.393 30.3625 12.6243C30.3687 9.77428 30.35 7.56803 30.3125 7.35553C30.2062 6.68053 29.8812 6.22428 29.3125 5.92428L29.0312 5.78053L22.75 5.76178L16.4688 5.74928L16.925 6.20553Z" fill="#F0F1F3"/>
</g>
<defs>
<clipPath id="clip0_5201_173308">
<rect width="32" height="32" fill="white"/>
</clipPath>
</defs>
</svg>
