<svg width="32" height="32" viewBox="0 0 32 32" fill="none" xmlns="http://www.w3.org/2000/svg">
<g id="image 14 (traced)" clip-path="url(#clip0_5201_173417)">
<g id="Yellow">
<path id="Vector" d="M13.9438 7.91183C12.5188 8.29308 11.6563 9.69308 11.9563 11.1431C12.3938 13.2806 15.05 14.0806 16.6 12.5368C17.4813 11.6493 17.6625 10.2431 17.0313 9.16808C16.8313 8.81808 16.2938 8.30558 15.95 8.13058C15.3438 7.82433 14.5875 7.73683 13.9438 7.91183Z" fill="#FFCC03"/>
</g>
<g id="Gray">
<path id="Vector_2" d="M3.875 0.0749989C3.3875 0.206249 3.0625 0.331249 2.76875 0.487499C2.6 0.581249 2.3625 0.706249 2.24375 0.775C1.93125 0.94375 1.30625 1.6 0.99375 2.09375C0.84375 2.325 0.7125 2.54375 0.7125 2.56875C0.70625 2.6 0.69375 2.6375 0.6875 2.65625C0.68125 2.675 0.66875 2.70625 0.65625 2.73125C0.65 2.7625 0.6125 2.8625 0.5625 2.96875C0.31875 3.5375 0.31875 3.58125 0.3125 13.0938V22.2812L4.2625 18.325C6.4375 16.1562 8.23125 14.375 8.25 14.375C8.26875 14.375 9.75 15.8438 11.55 17.6375L14.8125 20.9062L18.2313 17.5C20.1188 15.625 22.2438 13.5188 22.9563 12.8125L24.2563 11.5312L27.9688 15.2812L31.6812 19.0312V11.5C31.6812 6.45625 31.6625 3.8875 31.6187 3.71875C31.5812 3.58125 31.5438 3.4125 31.5312 3.34375C31.525 3.275 31.5 3.175 31.4813 3.125C31.3 2.6 31.2312 2.4375 31.1812 2.4375C31.15 2.4375 31.1313 2.41875 31.1375 2.3875C31.1562 2.3125 30.9313 1.9125 30.8 1.8C30.7313 1.74375 30.6812 1.68125 30.6875 1.6625C30.6875 1.6375 30.5375 1.4625 30.3438 1.26875C30.1562 1.075 30 0.94375 30 0.96875C30 1 29.9562 0.96875 29.9062 0.893749C29.825 0.775 29.0125 0.3375 28.9438 0.375C28.9312 0.38125 28.9 0.362499 28.8813 0.331249C28.8625 0.299999 28.6875 0.225 28.5 0.15625C28.1625 0.0375004 27.925 0.03125 16.125 0.0249996C8.60625 0.0187492 4.0125 0.0374985 3.875 0.0749989ZM15.0938 7.8125C15.65 7.9 16.2937 8.24375 16.6812 8.65625C18.375 10.45 17.1188 13.375 14.65 13.375C13.2375 13.375 12.075 12.375 11.8813 10.9875C11.6438 9.30625 12.8375 7.8875 14.5938 7.7625C14.6625 7.75625 14.8875 7.78125 15.0938 7.8125Z" fill="#4A566E"/>
</g>
<g id="Teal">
<path id="Vector_3" d="M25.5938 12.9375C26.3501 13.6937 26.9813 14.3125 27.0001 14.3125C27.0188 14.3125 26.4126 13.6937 25.6563 12.9375C24.9001 12.1812 24.2688 11.5625 24.2501 11.5625C24.2313 11.5625 24.8376 12.1812 25.5938 12.9375Z" fill="#159696"/>
<path id="Vector_4" d="M17.8313 17.8875L14.8125 20.9062L13.1438 19.25L11.4688 17.5938L13.1438 19.2812L14.8125 20.9688L17.8563 17.9188C19.5375 16.2438 20.8938 14.875 20.875 14.875C20.8562 14.875 19.4875 16.2312 17.8313 17.8875Z" fill="#159696"/>
<path id="Vector_5" d="M31.3875 18.7812L31.625 19.0375L31.6438 23.625L31.6562 28.2188L31.675 23.625L31.6875 19.025L31.425 18.7812L31.1562 18.5312L31.3875 18.7812Z" fill="#159696"/>
<path id="Vector_6" d="M0.34375 25.2198C0.34375 26.8698 0.35 27.5386 0.35625 26.7011C0.36875 25.8636 0.36875 24.5136 0.35625 23.7011C0.35 22.8886 0.34375 23.5698 0.34375 25.2198Z" fill="#159696"/>
<path id="Vector_7" d="M0.656293 29.2836C0.725043 29.5023 1.11879 30.1648 1.23129 30.2586C1.30004 30.3148 1.28129 30.2648 1.18754 30.1273C1.10004 30.0086 0.937543 29.7398 0.825043 29.5336C0.706293 29.3273 0.631293 29.2148 0.656293 29.2836Z" fill="#159696"/>
<path id="Vector_8" d="M31.25 29.3813C31.2063 29.4875 31.0563 29.75 30.9188 29.9563C30.7875 30.1688 30.7313 30.2875 30.8 30.2188C30.95 30.0688 31.4 29.2563 31.3625 29.2125C31.3438 29.2 31.2938 29.2688 31.25 29.3813Z" fill="#159696"/>
<path id="Vector_9" d="M1.59376 30.6875C1.76251 30.8563 1.91251 31 1.93126 31C1.95001 31 1.82501 30.8563 1.65626 30.6875C1.48751 30.5125 1.33751 30.375 1.31876 30.375C1.30001 30.375 1.42501 30.5125 1.59376 30.6875Z" fill="#159696"/>
<path id="Vector_10" d="M30.3438 30.7L30.0312 31.0312L30.3625 30.7188C30.5375 30.55 30.6875 30.4 30.6875 30.3938C30.6875 30.3438 30.6313 30.4 30.3438 30.7Z" fill="#159696"/>
<path id="Vector_11" d="M2.28126 31.2532C2.32501 31.3219 2.68751 31.5219 2.68751 31.4782C2.68751 31.4657 2.58751 31.3969 2.46251 31.3219C2.34376 31.2469 2.26251 31.2219 2.28126 31.2532Z" fill="#159696"/>
<path id="Vector_12" d="M29.5437 31.3087C29.2875 31.4712 29.2562 31.5337 29.4812 31.415C29.5875 31.3587 29.7 31.29 29.7187 31.2525C29.7687 31.1712 29.7562 31.1775 29.5437 31.3087Z" fill="#159696"/>
<path id="Vector_13" d="M2.87502 31.5961C2.96252 31.6461 3.06252 31.6836 3.09377 31.6836C3.13127 31.6836 3.08752 31.6461 3.00002 31.5961C2.91252 31.5461 2.81877 31.5086 2.78127 31.5086C2.75002 31.5086 2.78752 31.5461 2.87502 31.5961Z" fill="#159696"/>
<path id="Vector_14" d="M29 31.5961C28.9125 31.6461 28.875 31.6836 28.9063 31.6836C28.9438 31.6836 29.0375 31.6461 29.125 31.5961C29.2125 31.5461 29.2563 31.5086 29.2188 31.5086C29.1875 31.5086 29.0875 31.5461 29 31.5961Z" fill="#159696"/>
<path id="Vector_15" d="M3.3437 31.7836C3.44995 31.8336 3.57495 31.8711 3.62495 31.8711C3.67495 31.8711 3.6187 31.8273 3.49995 31.7836C3.21245 31.6711 3.09995 31.6773 3.3437 31.7836Z" fill="#159696"/>
<path id="Vector_16" d="M28.5 31.7836C28.3812 31.8273 28.325 31.8711 28.375 31.8711C28.425 31.8711 28.5562 31.8336 28.6562 31.7836C28.9 31.6773 28.7875 31.6711 28.5 31.7836Z" fill="#159696"/>
<path id="Vector_17" d="M4.23745 31.9828C4.31245 31.9953 4.43745 31.9953 4.5187 31.9828C4.5937 31.9703 4.5312 31.9578 4.37495 31.9578C4.2187 31.9578 4.1562 31.9703 4.23745 31.9828Z" fill="#159696"/>
<path id="Vector_18" d="M27.4874 31.9828C27.5624 31.9953 27.6874 31.9953 27.7687 31.9828C27.8437 31.9703 27.7812 31.9578 27.6249 31.9578C27.4687 31.9578 27.4062 31.9703 27.4874 31.9828Z" fill="#159696"/>
</g>
<g id="Teal_2">
<path id="Vector_19" d="M19.5125 16.2625L14.8063 20.9688L11.5312 17.6562L8.25625 14.3438L4.31875 18.2812L0.375 22.2188V25.1937C0.375 27.9313 0.3875 28.2062 0.49375 28.6375C0.9125 30.2687 2.18125 31.4875 3.88125 31.8875C4.375 32.0062 27.625 32.0062 28.1187 31.8875C29.8188 31.4875 31.0875 30.2687 31.5063 28.6375C31.6187 28.1937 31.625 27.9125 31.625 23.575V18.9812L27.925 15.2687L24.2188 11.5562L19.5125 16.2625Z" fill="#00B594"/>
</g>
</g>
<defs>
<clipPath id="clip0_5201_173417">
<rect width="32" height="32" fill="white"/>
</clipPath>
</defs>
</svg>
