<svg width="20" height="20" viewBox="0 0 20 20" fill="none" xmlns="http://www.w3.org/2000/svg">
<g clip-path="url(#clip0_2400_71591)">
<path d="M4.10816 4.10963L7.6415 7.64296M12.3582 12.3597L15.8915 15.893M15.8915 4.10963L12.3582 7.64296L15.2999 4.70131M4.10816 15.893L7.6415 12.3597M18.3332 10.0013C18.3332 14.6037 14.6022 18.3346 9.99984 18.3346C5.39746 18.3346 1.6665 14.6037 1.6665 10.0013C1.6665 5.39893 5.39746 1.66797 9.99984 1.66797C14.6022 1.66797 18.3332 5.39893 18.3332 10.0013ZM13.3332 10.0013C13.3332 11.8423 11.8408 13.3346 9.99984 13.3346C8.15889 13.3346 6.6665 11.8423 6.6665 10.0013C6.6665 8.16035 8.15889 6.66797 9.99984 6.66797C11.8408 6.66797 13.3332 8.16035 13.3332 10.0013Z" stroke="#FF9F43" stroke-width="2" stroke-linecap="round" stroke-linejoin="round"/>
</g>
<defs>
<clipPath id="clip0_2400_71591">
<rect width="20" height="20" fill="white"/>
</clipPath>
</defs>
</svg>
