<svg width="61" height="17" viewBox="0 0 61 17" fill="none" xmlns="http://www.w3.org/2000/svg">
<path d="M46.8866 4.16406H43.5105C43.28 4.16406 43.0835 4.34079 43.0475 4.58092L41.6823 13.6962C41.6551 13.8761 41.7874 14.0382 41.9597 14.0382H43.6921C43.853 14.0382 43.9907 13.9145 44.0159 13.7461L44.4034 11.1623C44.4389 10.9217 44.6359 10.7449 44.8664 10.7449H45.9345C48.1586 10.7449 49.4414 9.61182 49.777 7.36639C49.9285 6.38402 49.7829 5.61215 49.3461 5.07159C48.8668 4.47801 48.0164 4.16406 46.8866 4.16406ZM47.276 7.49322C47.0919 8.76875 46.1665 8.76875 45.2711 8.76875H44.7622L45.1201 6.38662C45.1413 6.24264 45.2588 6.13661 45.3974 6.13661H45.6309C46.24 6.13661 46.8155 6.13661 47.1126 6.50253C47.2898 6.72083 47.3436 7.04517 47.276 7.49322Z" fill="#179BD7"/>
<path d="M56.9765 7.44915H55.361C55.2223 7.44915 55.1043 7.55519 55.0836 7.69916L55.012 8.17528L54.8985 8.00271C54.5485 7.46786 53.7687 7.28906 52.9898 7.28906C51.2035 7.28906 49.6784 8.71376 49.3812 10.7123C49.2272 11.7092 49.4459 12.6625 49.9829 13.3273C50.4765 13.9385 51.1803 14.1932 52.0189 14.1932C53.4582 14.1932 54.2563 13.2186 54.2563 13.2186L54.1843 13.6916C54.1571 13.8725 54.2894 14.0347 54.4627 14.0347H55.9182C56.1487 14.0347 56.3452 13.858 56.3812 13.6173L57.2553 7.79116C57.282 7.61184 57.1497 7.44915 56.9765 7.44915ZM54.7233 10.7622C54.5683 11.7347 53.8343 12.3875 52.8995 12.3875C52.4311 12.3875 52.055 12.229 51.8141 11.9286C51.5752 11.6302 51.4854 11.2056 51.5604 10.7326C51.707 9.76839 52.4513 9.09424 53.3718 9.09424C53.8309 9.09424 54.204 9.25485 54.4498 9.55788C54.6971 9.86402 54.7948 10.2913 54.7233 10.7622Z" fill="#179BD7"/>
<path d="M58.8822 4.41459L57.4967 13.6967C57.4696 13.8766 57.6018 14.0387 57.7741 14.0387H59.167C59.3985 14.0387 59.5949 13.862 59.6305 13.6214L60.9967 4.50659C61.0238 4.32675 60.8916 4.16406 60.7193 4.16406H59.1596C59.0219 4.16458 58.9034 4.27062 58.8822 4.41459Z" fill="#179BD7"/>
<path d="M22.8089 4.16406H19.4333C19.2023 4.16406 19.0059 4.34079 18.9699 4.58092L17.6046 13.6962C17.5775 13.8761 17.7098 14.0382 17.883 14.0382H19.4945C19.7255 14.0382 19.922 13.8615 19.958 13.6208L20.3262 11.1623C20.3618 10.9217 20.5587 10.7449 20.7892 10.7449H21.8578C24.0814 10.7449 25.3647 9.61182 25.6999 7.36639C25.8509 6.38402 25.7063 5.61215 25.2695 5.07159C24.7897 4.47801 23.9388 4.16406 22.8089 4.16406ZM23.1984 7.49322C23.0138 8.76875 22.0883 8.76875 21.1935 8.76875H20.6841L21.0414 6.38662C21.0627 6.24264 21.1811 6.13661 21.3193 6.13661H21.5528C22.1624 6.13661 22.7374 6.13661 23.0345 6.50253C23.2117 6.72083 23.266 7.04517 23.1984 7.49322Z" fill="#253B80"/>
<path d="M32.8995 7.44915H31.283C31.1453 7.44915 31.0263 7.55519 31.0051 7.69916L30.9335 8.17528L30.8205 8.00271C30.4706 7.46786 29.6902 7.28906 28.9113 7.28906C27.1251 7.28906 25.5994 8.71376 25.3023 10.7123C25.1478 11.7092 25.3674 12.6625 25.9044 13.3273C26.397 13.9385 27.1019 14.1932 27.9405 14.1932C29.3797 14.1932 30.1779 13.2186 30.1779 13.2186L30.1058 13.6916C30.0787 13.8725 30.2109 14.0347 30.3832 14.0347H31.8393C32.0708 14.0347 32.2662 13.858 32.3027 13.6173L33.1764 7.79116C33.204 7.61184 33.0722 7.44915 32.8995 7.44915ZM30.6463 10.7622C30.4903 11.7347 29.7573 12.3875 28.8225 12.3875C28.3531 12.3875 27.978 12.229 27.7371 11.9286C27.4982 11.6302 27.4074 11.2056 27.4834 10.7326C27.629 9.76839 28.3743 9.09424 29.2948 9.09424C29.7539 9.09424 30.127 9.25485 30.3728 9.55788C30.6191 9.86402 30.7169 10.2913 30.6463 10.7622Z" fill="#253B80"/>
<path d="M41.5084 7.45312H39.8841C39.7291 7.45312 39.5835 7.53421 39.4956 7.66987L37.2552 11.1451L36.3056 7.80553C36.2459 7.59658 36.0627 7.45312 35.8554 7.45312H34.2592C34.0652 7.45312 33.9305 7.65272 33.9922 7.84504L35.7814 13.3744L34.0993 15.875C33.967 16.072 34.1003 16.3428 34.3288 16.3428H35.9512C36.1052 16.3428 36.2493 16.2638 36.3367 16.1308L41.7394 7.91832C41.8688 7.72185 41.736 7.45312 41.5084 7.45312Z" fill="#253B80"/>
<path d="M3.5866 15.8088L3.84475 14.0821L3.26972 14.068H0.523926L2.43211 1.3268C2.43804 1.28834 2.45729 1.25247 2.48542 1.227C2.51355 1.20153 2.54959 1.1875 2.5871 1.1875H7.2169C8.75391 1.1875 9.81462 1.52431 10.3684 2.18911C10.628 2.50097 10.7934 2.82687 10.8734 3.18551C10.9573 3.56183 10.9587 4.01143 10.8768 4.5598L10.8709 4.59982V4.95119L11.1305 5.10608C11.3492 5.22823 11.5229 5.36805 11.6562 5.52814C11.8783 5.79478 12.0219 6.13367 12.0826 6.53546C12.1453 6.94868 12.1246 7.44039 12.0219 7.99706C11.9035 8.63743 11.7119 9.19515 11.4533 9.65151C11.2154 10.072 10.9123 10.4208 10.5525 10.6911C10.209 10.9478 9.8008 11.1427 9.3393 11.2675C8.89211 11.3902 8.38225 11.452 7.82302 11.452H7.4627C7.20505 11.452 6.95481 11.5497 6.75836 11.7249C6.56142 11.9037 6.43112 12.148 6.39114 12.4151L6.36399 12.5706L5.90792 15.6138L5.88719 15.7256C5.88176 15.7609 5.87238 15.7786 5.85856 15.7906C5.84622 15.8015 5.82845 15.8088 5.81118 15.8088H3.5866Z" fill="#253B80"/>
<path d="M11.3763 4.64062C11.3625 4.73366 11.3467 4.82878 11.3289 4.9265C10.7184 8.22759 8.62953 9.36797 5.96172 9.36797H4.60338C4.27713 9.36797 4.0022 9.61747 3.95136 9.95636L3.2559 14.6011L3.05897 15.9177C3.0259 16.1401 3.18878 16.3407 3.402 16.3407H5.81118C6.09647 16.3407 6.33882 16.1224 6.38373 15.8262L6.40743 15.6973L6.86103 12.6659L6.89015 12.4996C6.93457 12.2023 7.17741 11.984 7.46271 11.984H7.82302C10.1572 11.984 11.9844 10.986 12.5185 8.09817C12.7416 6.89177 12.6261 5.88445 12.0357 5.17599C11.8571 4.96237 11.6354 4.78512 11.3763 4.64062Z" fill="#179BD7"/>
<path d="M10.7374 4.37141C10.6441 4.34282 10.5479 4.31683 10.4492 4.29344C10.35 4.27057 10.2483 4.2503 10.1437 4.23263C9.77741 4.17025 9.37613 4.14062 8.94622 4.14062H5.31741C5.22807 4.14062 5.14317 4.16194 5.06716 4.2004C4.89984 4.28512 4.77545 4.45197 4.74535 4.65624L3.97338 9.80513L3.95117 9.95534C4.00201 9.61645 4.27694 9.36696 4.60319 9.36696H5.96153C8.62934 9.36696 10.7182 8.22605 11.3287 4.92548C11.347 4.82777 11.3623 4.73265 11.3761 4.63961C11.2216 4.55333 11.0543 4.47952 10.8742 4.41663C10.8297 4.40103 10.7838 4.38596 10.7374 4.37141Z" fill="#222D65"/>
<path d="M4.74529 4.65799C4.7754 4.45372 4.89978 4.28687 5.06711 4.20267C5.14361 4.16421 5.22802 4.1429 5.31735 4.1429H8.94617C9.37608 4.1429 9.77736 4.17252 10.1436 4.2349C10.2482 4.25257 10.3499 4.27284 10.4491 4.29571C10.5478 4.3191 10.6441 4.34509 10.7374 4.37368C10.7838 4.38823 10.8297 4.4033 10.8746 4.41838C11.0548 4.48127 11.2221 4.5556 11.3766 4.64136C11.5582 3.42145 11.3751 2.59085 10.7487 1.83874C10.0582 1.01074 8.81192 0.65625 7.21715 0.65625H2.58735C2.26159 0.65625 1.9837 0.905742 1.93336 1.24515L0.0049303 14.1174C-0.0330755 14.3721 0.153499 14.6018 0.397328 14.6018H3.25566L3.97333 9.80688L4.74529 4.65799Z" fill="#253B80"/>
</svg>
