<svg width="80" height="40" viewBox="0 0 80 40" fill="none" xmlns="http://www.w3.org/2000/svg">
<rect width="80" height="40" rx="8" fill="white"/>
<path d="M64 19.8505C64 16.2617 62.3467 13.4299 59.1867 13.4299C56.0133 13.4299 54.0933 16.2617 54.0933 19.8224C54.0933 24.0421 56.36 26.1729 59.6133 26.1729C61.2 26.1729 62.4 25.7944 63.3067 25.2617V22.4579C62.4 22.9346 61.36 23.229 60.04 23.229C58.7467 23.229 57.6 22.7523 57.4533 21.0981H63.9733C63.9733 20.9159 64 20.1869 64 19.8505ZM57.4133 18.5187C57.4133 16.9346 58.3333 16.2757 59.1733 16.2757C59.9867 16.2757 60.8533 16.9346 60.8533 18.5187H57.4133ZM48.9467 13.4299C47.64 13.4299 46.8 14.0748 46.3333 14.5234L46.16 13.6542H43.2267V30L46.56 29.257L46.5733 25.2897C47.0533 25.6542 47.76 26.1729 48.9333 26.1729C51.32 26.1729 53.4933 24.1542 53.4933 19.7103C53.48 15.6449 51.28 13.4299 48.9467 13.4299ZM48.1467 23.0888C47.36 23.0888 46.8933 22.7944 46.5733 22.4299L46.56 17.229C46.9067 16.8224 47.3867 16.5421 48.1467 16.5421C49.36 16.5421 50.2 17.972 50.2 19.8084C50.2 21.6869 49.3733 23.0888 48.1467 23.0888ZM38.64 12.6028L41.9867 11.8458V9L38.64 9.74299V12.6028ZM38.64 13.6682H41.9867V25.9346H38.64V13.6682ZM35.0533 14.7056L34.84 13.6682H31.96V25.9346H35.2933V17.6215C36.08 16.5421 37.4133 16.7383 37.8267 16.8925V13.6682C37.4 13.5 35.84 13.1916 35.0533 14.7056ZM28.3867 10.6262L25.1333 11.3551L25.12 22.5841C25.12 24.6589 26.6 26.1869 28.5733 26.1869C29.6667 26.1869 30.4667 25.9766 30.9067 25.7243V22.8785C30.48 23.0607 28.3733 23.7056 28.3733 21.6308V16.6542H30.9067V13.6682H28.3733L28.3867 10.6262ZM19.3733 17.229C19.3733 16.6822 19.8 16.472 20.5067 16.472C21.52 16.472 22.8 16.7944 23.8133 17.3692V14.0748C22.7067 13.6121 21.6133 13.4299 20.5067 13.4299C17.8 13.4299 16 14.9159 16 17.3972C16 21.2664 21.0667 20.6495 21.0667 22.3178C21.0667 22.9626 20.5333 23.1729 19.7867 23.1729C18.68 23.1729 17.2667 22.6963 16.1467 22.0514V25.3878C17.3867 25.9486 18.64 26.1869 19.7867 26.1869C22.56 26.1869 24.4667 24.743 24.4667 22.2336C24.4533 18.0561 19.3733 18.7991 19.3733 17.229Z" fill="#635BFF"/>
<rect x="0.5" y="0.5" width="79" height="39" rx="7.5" stroke="#919EAB" stroke-opacity="0.3"/>
</svg>
