<svg width="16" height="10" viewBox="0 0 16 10" fill="none" xmlns="http://www.w3.org/2000/svg">
<path d="M3.80013 4.33594C3.66828 4.33594 3.53938 4.37504 3.42975 4.44829C3.32012 4.52155 3.23467 4.62566 3.18421 4.74748C3.13375 4.8693 3.12055 5.00334 3.14627 5.13266C3.172 5.26199 3.23549 5.38077 3.32873 5.47401C3.42196 5.56724 3.54075 5.63074 3.67007 5.65646C3.79939 5.68218 3.93343 5.66898 4.05525 5.61852C4.17707 5.56807 4.28119 5.48262 4.35444 5.37298C4.4277 5.26335 4.4668 5.13446 4.4668 5.0026C4.4668 4.82579 4.39656 4.65622 4.27153 4.5312C4.14651 4.40618 3.97694 4.33594 3.80013 4.33594ZM11.8001 4.33594C11.6683 4.33594 11.5394 4.37504 11.4297 4.44829C11.3201 4.52155 11.2347 4.62566 11.1842 4.74748C11.1338 4.8693 11.1205 5.00334 11.1463 5.13266C11.172 5.26199 11.2355 5.38077 11.3287 5.47401C11.422 5.56724 11.5407 5.63074 11.6701 5.65646C11.7994 5.68218 11.9334 5.66898 12.0553 5.61852C12.1771 5.56807 12.2812 5.48262 12.3544 5.37298C12.4277 5.26335 12.4668 5.13446 12.4668 5.0026C12.4668 4.82579 12.3966 4.65622 12.2715 4.5312C12.1465 4.40618 11.9769 4.33594 11.8001 4.33594ZM13.1335 0.335938H2.4668C1.93636 0.335938 1.42766 0.546651 1.05258 0.921724C0.677511 1.2968 0.466797 1.8055 0.466797 2.33594V7.66927C0.466797 8.1997 0.677511 8.70841 1.05258 9.08348C1.42766 9.45856 1.93636 9.66927 2.4668 9.66927H13.1335C13.6639 9.66927 14.1726 9.45856 14.5477 9.08348C14.9227 8.70841 15.1335 8.1997 15.1335 7.66927V2.33594C15.1335 1.8055 14.9227 1.2968 14.5477 0.921724C14.1726 0.546651 13.6639 0.335938 13.1335 0.335938ZM13.8001 7.66927C13.8001 7.84608 13.7299 8.01565 13.6049 8.14068C13.4798 8.2657 13.3103 8.33594 13.1335 8.33594H2.4668C2.28999 8.33594 2.12042 8.2657 1.99539 8.14068C1.87037 8.01565 1.80013 7.84608 1.80013 7.66927V2.33594C1.80013 2.15913 1.87037 1.98956 1.99539 1.86453C2.12042 1.73951 2.28999 1.66927 2.4668 1.66927H13.1335C13.3103 1.66927 13.4798 1.73951 13.6049 1.86453C13.7299 1.98956 13.8001 2.15913 13.8001 2.33594V7.66927ZM7.80013 3.0026C7.40457 3.0026 7.01789 3.1199 6.68899 3.33967C6.36009 3.55943 6.10375 3.87179 5.95237 4.23724C5.801 4.60269 5.76139 5.00482 5.83856 5.39278C5.91573 5.78075 6.10621 6.13711 6.38592 6.41682C6.66562 6.69652 7.02199 6.887 7.40995 6.96418C7.79791 7.04135 8.20004 7.00174 8.5655 6.85036C8.93095 6.69899 9.24331 6.44264 9.46307 6.11374C9.68283 5.78485 9.80013 5.39817 9.80013 5.0026C9.80013 4.47217 9.58942 3.96346 9.21434 3.58839C8.83927 3.21332 8.33056 3.0026 7.80013 3.0026ZM7.80013 5.66927C7.66828 5.66927 7.53938 5.63017 7.42975 5.55692C7.32012 5.48366 7.23467 5.37954 7.18421 5.25773C7.13375 5.13591 7.12055 5.00186 7.14627 4.87254C7.172 4.74322 7.23549 4.62443 7.32873 4.5312C7.42196 4.43796 7.54075 4.37447 7.67007 4.34875C7.79939 4.32302 7.93343 4.33623 8.05525 4.38668C8.17707 4.43714 8.28119 4.52259 8.35444 4.63222C8.4277 4.74186 8.4668 4.87075 8.4668 5.0026C8.4668 5.17942 8.39656 5.34898 8.27153 5.47401C8.14651 5.59903 7.97694 5.66927 7.80013 5.66927Z" fill="#5B6670"/>
</svg>
