<svg width="80" height="40" viewBox="0 0 80 40" fill="none" xmlns="http://www.w3.org/2000/svg">
<rect width="80" height="40" rx="8" fill="white"/>
<path d="M58.2668 15.8019H54.5033C54.2463 15.8019 54.0273 15.9935 53.9872 16.2537L52.4653 26.1328C52.435 26.3277 52.5825 26.5034 52.7745 26.5034H54.7058C54.8851 26.5034 55.0387 26.3694 55.0667 26.1868L55.4986 23.3865C55.5383 23.1257 55.7578 22.9342 56.0148 22.9342H57.2054C59.6847 22.9342 61.1148 21.7061 61.4889 19.2726C61.6578 18.2079 61.4955 17.3714 61.0086 16.7855C60.4743 16.1422 59.5263 15.8019 58.2668 15.8019ZM58.7009 19.41C58.4957 20.7924 57.464 20.7924 56.4659 20.7924H55.8987L56.2976 18.2107C56.3212 18.0547 56.4522 17.9397 56.6068 17.9397H56.867C57.546 17.9397 58.1876 17.9397 58.5188 18.3363C58.7163 18.5729 58.7763 18.9244 58.7009 19.41Z" fill="#179BD7"/>
<path d="M69.5144 19.3656H67.7135C67.5589 19.3656 67.4274 19.4805 67.4043 19.6365L67.3245 20.1525L67.1979 19.9655C66.8078 19.3858 65.9385 19.1921 65.0702 19.1921C63.079 19.1921 61.3788 20.7361 61.0475 22.9021C60.8759 23.9826 61.1196 25.0157 61.7183 25.7362C62.2685 26.3987 63.0531 26.6747 63.9879 26.6747C65.5924 26.6747 66.4821 25.6185 66.4821 25.6185L66.4018 26.1311C66.3715 26.3271 66.519 26.5029 66.7121 26.5029H68.3347C68.5916 26.5029 68.8106 26.3114 68.8508 26.0505L69.8252 19.7362C69.855 19.5419 69.7075 19.3656 69.5144 19.3656ZM67.0026 22.9562C66.8298 24.0102 66.0117 24.7177 64.9695 24.7177C64.4474 24.7177 64.0281 24.5459 63.7596 24.2203C63.4933 23.897 63.3931 23.4367 63.4768 22.9241C63.6402 21.8791 64.4699 21.1485 65.4961 21.1485C66.0078 21.1485 66.4238 21.3226 66.6978 21.651C66.9734 21.9828 67.0824 22.4458 67.0026 22.9562Z" fill="#179BD7"/>
<path d="M71.6389 16.0729L70.0944 26.1328C70.0642 26.3277 70.2116 26.5034 70.4036 26.5034H71.9564C72.2144 26.5034 72.4334 26.3119 72.473 26.0511L73.996 16.1726C74.0263 15.9777 73.8789 15.8014 73.6868 15.8014H71.9481C71.7946 15.8019 71.6626 15.9169 71.6389 16.0729Z" fill="#179BD7"/>
<path d="M31.4262 15.8019H27.6633C27.4057 15.8019 27.1868 15.9934 27.1466 16.2537L25.6247 26.1327C25.5944 26.3276 25.7419 26.5034 25.935 26.5034H27.7315C27.989 26.5034 28.208 26.3118 28.2481 26.051L28.6586 23.3865C28.6982 23.1257 28.9178 22.9341 29.1747 22.9341H30.3659C32.8447 22.9341 34.2753 21.7061 34.6489 19.2725C34.8172 18.2078 34.656 17.3713 34.1691 16.7854C33.6343 16.1421 32.6857 15.8019 31.4262 15.8019ZM31.8603 19.41C31.6546 20.7924 30.6229 20.7924 29.6253 20.7924H29.0575L29.4559 18.2107C29.4795 18.0546 29.6116 17.9397 29.7657 17.9397H30.0259C30.7054 17.9397 31.3464 17.9397 31.6777 18.3363C31.8752 18.5729 31.9357 18.9244 31.8603 19.41Z" fill="#253B80"/>
<path d="M42.6745 19.3655H40.8726C40.719 19.3655 40.5864 19.4804 40.5628 19.6365L40.483 20.1525L40.357 19.9655C39.9669 19.3858 39.097 19.192 38.2287 19.192C36.2375 19.192 34.5367 20.7361 34.2055 22.9021C34.0333 23.9825 34.2781 25.0157 34.8768 25.7362C35.4259 26.3986 36.2116 26.6747 37.1464 26.6747C38.7509 26.6747 39.6406 25.6184 39.6406 25.6184L39.5603 26.1311C39.53 26.3271 39.6775 26.5029 39.8695 26.5029H41.4926C41.7507 26.5029 41.9686 26.3113 42.0093 26.0505L42.9832 19.7362C43.014 19.5418 42.8671 19.3655 42.6745 19.3655ZM40.1628 22.9562C39.9889 24.0101 39.1718 24.7177 38.1297 24.7177C37.6064 24.7177 37.1883 24.5459 36.9198 24.2203C36.6534 23.8969 36.5522 23.4367 36.6369 22.924C36.7993 21.8791 37.6301 21.1484 38.6563 21.1484C39.168 21.1484 39.5839 21.3225 39.8579 21.6509C40.1325 21.9827 40.2414 22.4458 40.1628 22.9562Z" fill="#253B80"/>
<path d="M52.2715 19.3654H50.4607C50.288 19.3654 50.1256 19.4533 50.0277 19.6003L47.5302 23.3667L46.4716 19.7474C46.405 19.5209 46.2009 19.3654 45.9698 19.3654H44.1904C43.9742 19.3654 43.8239 19.5818 43.8927 19.7902L45.8873 25.7828L44.0121 28.493C43.8647 28.7065 44.0132 29 44.268 29H46.0766C46.2482 29 46.4089 28.9144 46.5063 28.7702L52.529 19.8696C52.6732 19.6567 52.5252 19.3654 52.2715 19.3654Z" fill="#253B80"/>
<path d="M9.99794 28.4232L10.2857 26.5519L9.64469 26.5366H6.58381L8.71097 12.7278C8.71757 12.6862 8.73903 12.6473 8.77039 12.6197C8.80175 12.5921 8.84192 12.5769 8.88374 12.5769H14.0448C15.7582 12.5769 16.9406 12.9419 17.558 13.6624C17.8474 14.0004 18.0317 14.3536 18.1209 14.7423C18.2144 15.1501 18.2161 15.6374 18.1247 16.2317L18.1181 16.2751V16.6559L18.4075 16.8238C18.6513 16.9562 18.845 17.1077 18.9935 17.2812C19.2411 17.5702 19.4012 17.9375 19.4689 18.3729C19.5388 18.8208 19.5157 19.3537 19.4012 19.957C19.2692 20.651 19.0557 21.2555 18.7674 21.7501C18.5022 22.2058 18.1643 22.5838 17.7632 22.8767C17.3803 23.155 16.9252 23.3662 16.4108 23.5014C15.9123 23.6344 15.3439 23.7014 14.7205 23.7014H14.3188C14.0316 23.7014 13.7527 23.8073 13.5337 23.9972C13.3141 24.191 13.1689 24.4557 13.1243 24.7453L13.094 24.9137L12.5856 28.212L12.5625 28.3331C12.5565 28.3714 12.546 28.3905 12.5306 28.4035C12.5169 28.4153 12.497 28.4232 12.4778 28.4232H9.99794Z" fill="#253B80"/>
<path d="M18.6816 16.319C18.6662 16.4198 18.6486 16.5229 18.6288 16.6288C17.9482 20.2065 15.6196 21.4425 12.6457 21.4425H11.1315C10.7678 21.4425 10.4613 21.7129 10.4046 22.0801L9.62935 27.114L9.40981 28.5409C9.37294 28.782 9.55452 28.9995 9.79221 28.9995H12.4779C12.7959 28.9995 13.066 28.7629 13.1161 28.4418L13.1425 28.3021L13.6482 25.0168L13.6806 24.8365C13.7302 24.5143 14.0009 24.2777 14.3189 24.2777H14.7206C17.3226 24.2777 19.3595 23.1961 19.9548 20.0663C20.2035 18.7588 20.0748 17.6671 19.4167 16.8992C19.2175 16.6677 18.9705 16.4756 18.6816 16.319Z" fill="#179BD7"/>
<path d="M17.9695 16.0284C17.8655 15.9974 17.7582 15.9692 17.6481 15.9439C17.5376 15.9191 17.4242 15.8971 17.3076 15.878C16.8993 15.8104 16.452 15.7782 15.9727 15.7782H11.9275C11.8279 15.7782 11.7333 15.8013 11.6485 15.843C11.462 15.9348 11.3233 16.1157 11.2898 16.3371L10.4292 21.9174L10.4046 22.0801C10.4613 21.7129 10.7678 21.4425 11.1315 21.4425H12.6457C15.6196 21.4425 17.9482 20.2065 18.6288 16.6288C18.6486 16.5229 18.6662 16.4198 18.6816 16.319C18.5094 16.2255 18.3227 16.1455 18.1219 16.0774C18.0724 16.0605 18.0212 16.0441 17.9695 16.0284Z" fill="#222D65"/>
<path d="M11.2898 16.3371C11.3233 16.1157 11.462 15.9348 11.6485 15.843C11.7333 15.8013 11.8279 15.7782 11.9275 15.7782H15.9727C16.452 15.7782 16.8993 15.8104 17.3076 15.878C17.4242 15.8971 17.5376 15.9191 17.6481 15.9439C17.7582 15.9692 17.8655 15.9974 17.9695 16.0284C18.0212 16.0441 18.0724 16.0605 18.1219 16.0774C18.3227 16.1455 18.5094 16.2255 18.6816 16.319C18.8841 14.9969 18.6804 14.0967 17.9822 13.2816C17.2124 12.3842 15.8231 12 14.0454 12H8.88426C8.52111 12 8.21134 12.2704 8.15522 12.6382L6.0055 26.589C5.96313 26.865 6.17111 27.114 6.44292 27.114L9.62935 27.114L10.4292 21.9174L11.2898 16.3371Z" fill="#253B80"/>
<rect x="0.5" y="0.5" width="79" height="39" rx="7.5" stroke="#919EAB" stroke-opacity="0.3"/>
</svg>
