<svg width="80" height="40" viewBox="0 0 80 40" fill="none" xmlns="http://www.w3.org/2000/svg">
<rect width="80" height="40" rx="8" fill="white"/>
<path d="M31.0179 19.109C31.0179 13.5401 25.4179 9 18.5093 9C11.6015 9 6.00141 13.5401 6.00141 19.109C6.00141 19.2534 6 19.6509 6 19.7013C6 25.6095 10.8948 30.3948 18.5079 30.3948C26.1682 30.3948 31.0179 25.6112 31.0179 19.7022C31.0179 19.496 31.0179 19.3769 31.0179 19.109Z" fill="#0A0080"/>
<path d="M30.5375 19.1096C30.5375 24.3602 25.1528 28.6167 18.5103 28.6167C11.8678 28.6167 6.48315 24.3602 6.48315 19.1096C6.48315 13.8581 11.8678 9.60156 18.5103 9.60156C25.1528 9.60156 30.5375 13.8581 30.5375 19.1096Z" fill="#00BCFF"/>
<path d="M14.5169 16.1047C14.5106 16.1195 14.3909 16.2734 14.4684 16.3961C14.6584 16.6962 15.2447 16.8676 15.8374 16.7032C16.1901 16.6057 16.6426 16.1612 17.0812 15.7307C17.5556 15.2644 18.0272 14.7982 18.5009 14.6121C19.002 14.4146 19.3237 14.4998 19.5363 14.579C19.7693 14.6642 20.0431 14.8539 20.4802 15.2592C21.303 16.0238 24.6119 19.5936 25.1835 20.2104C25.6445 19.9529 27.6907 18.8647 30.4717 18.1071C30.2303 16.2752 29.3279 14.5981 27.9603 13.2255C26.0542 14.2154 23.7244 14.7321 21.4466 13.3569C21.4346 13.3508 20.2014 12.6297 18.9859 12.6653C17.1776 12.7167 16.3949 13.6839 15.5664 14.7069L14.5169 16.1047Z" fill="white"/>
<path d="M25.0523 20.6009C25.0136 20.5582 21.1612 16.3926 20.2891 15.5827C19.7837 15.1148 19.5029 14.9947 19.208 14.9486C19.0545 14.9234 18.842 14.9591 18.6941 15.0095C18.288 15.1461 17.7573 15.5845 17.2857 16.0464C16.7979 16.5265 16.3376 16.9788 15.911 17.0971C15.3655 17.2485 14.6996 17.0693 14.3956 16.8162C14.2724 16.7135 14.1858 16.5952 14.1443 16.4752C14.0317 16.1534 14.2386 15.8959 14.2731 15.8533L15.3359 14.4319C15.4598 14.2797 15.5837 14.1275 15.7111 13.977C15.3683 14.0327 15.0509 14.1405 14.7426 14.2467C14.3576 14.3806 13.9873 14.5076 13.6122 14.5076C13.4559 14.5076 12.6176 14.338 12.4585 14.2841C11.4963 13.9587 10.6516 13.6421 9.391 12.9141C7.87978 14.3049 6.86901 16.0429 6.5769 17.9574C6.7944 18.0287 7.14423 18.1575 7.29134 18.1975C10.7108 19.1369 11.7757 20.105 11.9693 20.3077C12.1784 20.0198 12.4803 19.838 12.8175 19.838C13.1955 19.8389 13.5368 20.0729 13.7438 20.4365C13.9395 20.2451 14.2097 20.0824 14.5589 20.0824C14.7172 20.0824 14.8819 20.119 15.0481 20.1886C15.4338 20.3521 15.633 20.6696 15.7365 20.9566C15.866 20.8844 16.025 20.8314 16.2123 20.8322C16.3967 20.8322 16.5881 20.8836 16.781 20.9871C17.4117 21.3211 17.5095 22.0865 17.4525 22.6633C17.4976 22.6572 17.5426 22.6546 17.5884 22.6546C18.3359 22.6554 18.944 23.4061 18.944 24.3307C18.944 24.6169 18.8849 24.8857 18.7814 25.1214C18.9848 25.2632 19.5036 25.5824 19.959 25.5111C20.3229 25.4546 20.4609 25.3006 20.5101 25.2145C20.5439 25.1554 20.5798 25.0858 20.5467 25.0362L19.5817 23.7114C19.5817 23.7114 19.4227 23.5253 19.4754 23.4539C19.5296 23.38 19.6282 23.4861 19.6972 23.5575C20.1885 24.0646 20.7882 24.8292 20.7882 24.8292C20.798 24.8379 20.8382 24.9344 21.0599 24.984C21.2506 25.0257 21.5885 25.0014 21.8222 24.7639C21.8813 24.7039 21.9404 24.6291 21.9897 24.5517C21.9862 24.5552 21.9827 24.5613 21.9791 24.563C22.2255 24.1724 21.9517 23.7775 21.9517 23.7775L20.8248 22.2144C20.8248 22.2144 20.6643 22.03 20.7185 21.9561C20.7678 21.8917 20.8712 21.9891 20.9423 22.0613C21.2985 22.4301 21.8025 23.0547 22.286 23.6392C22.3796 23.7253 22.8048 24.0498 23.3665 23.5931C23.7079 23.3165 23.7761 22.9773 23.7663 22.7207C23.7431 22.3814 23.5284 22.1396 23.5284 22.1396L21.9897 20.2277C21.9897 20.2277 21.8271 20.0563 21.8848 19.9694C21.932 19.8963 22.0376 20.0015 22.1065 20.0729C22.5964 20.58 23.924 22.0839 23.924 22.0839C23.943 22.1005 24.4012 22.5041 24.9678 22.0578C25.1705 21.8978 25.3 21.6568 25.3113 21.3759C25.3303 20.8896 25.0523 20.6009 25.0523 20.6009Z" fill="white"/>
<path d="M17.5869 23.0275C17.3483 23.024 17.0871 23.1988 17.0534 23.1736C17.0344 23.158 17.0674 23.0397 17.09 22.9709C17.1132 22.9031 17.4271 21.7349 16.6613 21.3287C16.075 21.0182 15.7167 21.3678 15.5935 21.5261C15.5611 21.5679 15.5471 21.5644 15.5428 21.5114C15.5316 21.3009 15.4549 20.732 14.9495 20.5406C14.2266 20.2675 13.7613 20.8912 13.6431 21.1164C13.5903 20.6067 13.2426 20.2118 12.8153 20.2109C12.3515 20.2109 11.9756 20.6746 11.9756 21.2478C11.9749 21.8201 12.3508 22.2846 12.8146 22.2846C13.0398 22.2855 13.244 22.1742 13.3946 21.9959C13.3995 22.0011 13.4016 22.0106 13.3988 22.0306C13.3636 22.2864 13.2989 23.2189 14.0886 23.599C14.4054 23.7503 14.675 23.6372 14.8981 23.4441C14.9642 23.3859 14.9755 23.4102 14.9657 23.4876C14.9375 23.7277 14.9734 24.2409 15.5562 24.5323C15.9989 24.755 16.2615 24.5271 16.4332 24.3314C16.5079 24.247 16.5283 24.2601 16.5318 24.3905C16.5529 25.0847 17.0196 25.6353 17.5855 25.6361C18.169 25.6361 18.642 25.0534 18.642 24.3331C18.6427 23.612 18.1704 23.0353 17.5869 23.0275Z" fill="white"/>
<path d="M17.5845 25.5389C17.0559 25.5381 16.6258 25.0301 16.6061 24.3839C16.6054 24.3283 16.6004 24.1804 16.4998 24.1804C16.4576 24.1804 16.4217 24.2117 16.3801 24.2578C16.264 24.3909 16.1162 24.5266 15.9001 24.5266C15.8015 24.5266 15.6953 24.4979 15.5833 24.4413C15.0245 24.1621 15.0167 23.6881 15.0392 23.4977C15.0456 23.4463 15.0477 23.3933 15.0195 23.3524L14.985 23.315H14.9506C14.9224 23.315 14.8928 23.3289 14.8534 23.3637C14.6915 23.5037 14.5367 23.5716 14.379 23.5716C14.2924 23.5716 14.2037 23.5498 14.1144 23.5072C13.3795 23.1541 13.4379 22.2965 13.4738 22.0391C13.4788 21.986 13.4682 21.946 13.4414 21.9191L13.3894 21.866L13.3408 21.9234C13.1979 22.0939 13.01 22.1878 12.8136 22.1878C12.392 22.187 12.0492 21.7643 12.0499 21.2442C12.0499 20.7232 12.3934 20.3014 12.8143 20.3014C13.1951 20.3014 13.5189 20.6553 13.5674 21.125L13.5935 21.3781L13.7061 21.1641C13.7188 21.1389 14.0271 20.5623 14.5944 20.5631C14.7021 20.5631 14.8133 20.584 14.9259 20.6275C15.3778 20.798 15.4545 21.3042 15.4665 21.5155C15.4742 21.6381 15.5453 21.6442 15.5594 21.6442C15.5981 21.6442 15.627 21.6138 15.6474 21.5868C15.7326 21.4772 15.9184 21.2946 16.2091 21.2946C16.3421 21.2946 16.4843 21.3337 16.63 21.4111C17.3487 21.7921 17.0228 22.9201 17.0193 22.9323C16.9573 23.1193 16.9545 23.2019 17.0129 23.2498L17.0411 23.2663H17.0622C17.0946 23.2663 17.1347 23.2489 17.2009 23.2211C17.2987 23.1793 17.4465 23.1167 17.5845 23.1167H17.5852C18.1257 23.1245 18.5657 23.6681 18.5657 24.3291C18.565 24.9962 18.125 25.5389 17.5845 25.5389ZM25.1976 20.1013C24.0109 18.8219 21.2686 15.8761 20.526 15.1864C20.1015 14.7924 19.8122 14.5837 19.5581 14.4906C19.4441 14.448 19.2857 14.3993 19.0823 14.3993C18.8937 14.3993 18.691 14.441 18.4791 14.5245C17.9991 14.7124 17.5211 15.1821 17.058 15.6361L17.034 15.6595C16.6033 16.0831 16.1584 16.5206 15.8213 16.6136C15.6741 16.6545 15.5228 16.6754 15.3722 16.6754C14.9942 16.6754 14.6556 16.5406 14.5282 16.3405C14.5071 16.3066 14.5205 16.2536 14.5698 16.1762L14.5768 16.1657L15.6206 14.7759C16.4379 13.7652 17.21 12.812 18.988 12.7616C19.0169 12.7607 19.0471 12.7598 19.0767 12.7598C20.1832 12.7607 21.289 13.373 21.4129 13.4434C22.4504 14.0688 23.5217 14.3862 24.5979 14.3871C25.7199 14.388 26.8778 14.0444 28.0948 13.3521C27.9589 13.2112 27.8174 13.0738 27.6717 12.939C26.6025 13.5113 25.584 13.8009 24.6014 13.8009C23.597 13.7992 22.5947 13.5017 21.6205 12.9146C21.5691 12.8842 20.3479 12.1727 19.0767 12.1719C19.0436 12.1719 19.0098 12.1727 18.9767 12.1736C17.4838 12.2162 16.6427 12.872 16.0768 13.446C15.527 13.4626 15.0519 13.6261 14.6303 13.7722C14.253 13.9009 13.9278 14.0131 13.6104 14.0131C13.4795 14.0131 13.2444 13.9983 13.2232 13.9975C12.8586 13.9835 11.0194 13.4269 9.55675 12.7424C9.40753 12.8729 9.26394 13.0077 9.12387 13.1451C10.652 13.9192 12.5116 14.5176 13.0987 14.5645C13.262 14.5785 13.4358 14.6011 13.6097 14.6011C13.9982 14.6011 14.3853 14.4671 14.7605 14.3375C14.9815 14.2601 15.2258 14.1766 15.4834 14.1157C15.4144 14.1992 15.3461 14.2836 15.2772 14.368L14.2171 15.7857C14.1334 15.89 13.9518 16.1683 14.0714 16.5101C14.1193 16.6484 14.2157 16.7806 14.3509 16.8928C14.6028 17.1033 15.0554 17.2451 15.4764 17.2459C15.6354 17.2459 15.7868 17.2259 15.9254 17.1877C16.3696 17.0642 16.8362 16.6049 17.3304 16.1196C17.7238 15.7335 18.2827 15.2429 18.7114 15.0986C18.831 15.0585 18.9781 15.0333 19.0957 15.0333C19.1309 15.0342 19.1647 15.0351 19.1956 15.0412C19.4786 15.0846 19.7517 15.2038 20.2402 15.6569C21.1109 16.4649 24.9632 20.6292 25.0012 20.671C25.0033 20.6736 25.249 20.9345 25.2321 21.3703C25.2229 21.6129 25.1138 21.8286 24.9245 21.9782C24.7598 22.1069 24.5902 22.1722 24.4191 22.1722C24.1615 22.1722 23.9841 22.0226 23.9721 22.013C23.9581 21.9982 22.6383 20.5031 22.1526 20.0004C22.0752 19.9213 21.9999 19.85 21.9239 19.85C21.8837 19.85 21.8478 19.8708 21.8232 19.9091C21.7472 20.0256 21.8324 20.1865 21.9337 20.2927L23.4752 22.207C23.4773 22.2096 23.6674 22.4296 23.6878 22.7236C23.7005 23.041 23.5773 23.3063 23.3218 23.5133C23.1402 23.6612 22.9558 23.7368 22.7756 23.7368C22.5391 23.7368 22.3722 23.6029 22.3356 23.5716L22.1146 23.302C21.7106 22.8106 21.2932 22.3026 20.9877 21.9878C20.9131 21.9112 20.8336 21.8408 20.7575 21.8408C20.7202 21.8408 20.6865 21.8573 20.6604 21.8912C20.6259 21.9391 20.6013 22.0252 20.6886 22.1678C20.7238 22.2261 20.766 22.2748 20.766 22.2748L21.8915 23.8369C21.9006 23.8508 22.1231 24.1778 21.9168 24.5031L21.8767 24.5648C21.8436 24.6109 21.807 24.6535 21.7725 24.6901C21.5804 24.8849 21.3242 24.9058 21.2228 24.9058C21.1686 24.9058 21.1158 24.8997 21.0708 24.8892C20.9596 24.8649 20.8849 24.8266 20.8483 24.7736L20.835 24.7562C20.7737 24.6779 20.2064 23.9621 19.7369 23.4785C19.6757 23.4142 19.5983 23.3333 19.5187 23.3333C19.4793 23.3333 19.4441 23.3524 19.4167 23.3898C19.3237 23.515 19.4631 23.7029 19.5222 23.7725L20.4823 25.0797C20.4809 25.091 20.469 25.118 20.4457 25.1597C20.4112 25.218 20.2951 25.3624 19.9467 25.4163C19.9051 25.4233 19.8622 25.4259 19.8193 25.4259C19.4603 25.4259 19.0774 25.2102 18.8803 25.0815C18.9704 24.8466 19.0169 24.5883 19.0169 24.33C19.0169 23.3533 18.3756 22.5592 17.5859 22.5592C17.569 22.5592 17.5514 22.5592 17.5345 22.5601C17.5598 22.1148 17.5092 21.2711 16.8081 20.8997C16.6061 20.7919 16.4048 20.7371 16.2098 20.7371C16.0563 20.7371 15.9092 20.7693 15.7713 20.8345C15.6256 20.4857 15.3849 20.2318 15.0702 20.0996C14.8964 20.0256 14.7232 19.9874 14.5564 19.9874C14.2643 19.9874 13.9961 20.0935 13.7561 20.304C13.5266 19.9517 13.1796 19.7421 12.8143 19.7421C12.4947 19.7421 12.1871 19.9004 11.9598 20.1796C11.6606 19.8978 10.476 18.9672 7.30434 18.0774C7.1509 18.0348 6.79896 17.9096 6.58287 17.8322C6.54697 18.0435 6.51952 18.2583 6.50122 18.4749C6.50122 18.4749 7.08614 18.648 7.20158 18.6802C10.4415 19.569 11.5114 20.4936 11.693 20.6684C11.6311 20.8502 11.5994 21.0459 11.5994 21.2442C11.5987 22.0704 12.1435 22.7445 12.8129 22.7453C12.8882 22.7453 12.9628 22.7366 13.0353 22.7201C13.1367 23.3289 13.459 23.7908 13.9511 24.0273C14.0953 24.0952 14.2411 24.1308 14.3839 24.1308C14.4761 24.1308 14.5698 24.1169 14.6606 24.0882C14.7514 24.3735 14.9562 24.7292 15.4137 24.9588C15.5742 25.0388 15.7347 25.0806 15.8902 25.0806C16.0176 25.0806 16.1422 25.0528 16.2612 24.9988C16.4801 25.659 17.0024 26.0956 17.5838 26.0956C17.9695 26.0964 18.3397 25.9025 18.61 25.5589C18.8409 25.7181 19.3287 26.0051 19.8214 26.006C19.8854 26.006 19.9453 25.9999 20.0051 25.9912C20.495 25.9155 20.7223 25.6781 20.8272 25.4946C20.8462 25.4624 20.8631 25.4285 20.8779 25.3928C20.9933 25.4346 21.12 25.4676 21.2657 25.4685C21.5332 25.4685 21.7901 25.3554 22.0492 25.1215C22.304 24.8953 22.4849 24.5692 22.5109 24.2917C22.5116 24.2874 22.5123 24.2839 22.513 24.2796C22.5982 24.3013 22.6869 24.3126 22.7749 24.3126C23.0501 24.3126 23.3204 24.2065 23.5794 23.9969C24.0784 23.5933 24.165 23.0654 24.1573 22.7192C24.2438 22.7418 24.3332 22.7532 24.4219 22.7532C24.6803 22.7532 24.9343 22.6575 25.1758 22.467C25.4855 22.2226 25.6713 21.8486 25.6995 21.4129C25.7192 21.1172 25.66 20.8189 25.5333 20.5623C26.3696 20.117 28.2806 19.2559 30.5309 18.6288C30.5175 18.4131 30.4922 18.2001 30.4612 17.9878C27.7386 18.7349 25.7065 19.8213 25.1976 20.1013Z" fill="#0A0080"/>
<path d="M72.5184 16.684C72.2995 17.0432 71.9862 17.2224 71.5766 17.2224C71.1676 17.2224 70.8523 17.0432 70.632 16.684C70.411 16.3248 70.3012 15.8133 70.3012 15.1513C70.3012 14.4894 70.411 13.9797 70.632 13.6222C70.8523 13.2655 71.1676 13.0863 71.5766 13.0863C71.9862 13.0863 72.2995 13.2655 72.5184 13.6222C72.7373 13.9797 72.8478 14.4894 72.8478 15.1513C72.8478 15.8133 72.7373 16.3248 72.5184 16.684ZM73.6375 12.6732C73.1856 11.9747 72.5008 11.625 71.5808 11.625C70.6623 11.625 69.9767 11.9747 69.5255 12.6732C69.0736 13.3725 68.8477 14.198 68.8477 15.1513C68.8477 16.1212 69.0736 16.9502 69.5255 17.64C69.9767 18.3271 70.6623 18.6725 71.5808 18.6725C72.5008 18.6725 73.1856 18.3271 73.6375 17.64C74.0894 16.9502 74.3147 16.1212 74.3147 15.1513C74.3147 14.198 74.0894 13.3725 73.6375 12.6732Z" fill="#0A0080"/>
<path d="M61.3931 15.8507C61.384 16.4308 61.2495 16.831 60.9912 17.0493C60.7329 17.2685 60.4506 17.379 60.1444 17.379C59.9509 17.379 59.7869 17.312 59.6517 17.1807C59.5166 17.0484 59.4497 16.8345 59.4497 16.5378C59.4497 16.2064 59.5595 15.9611 59.7805 15.802C59.9121 15.7097 60.1261 15.6297 60.426 15.5662L60.7455 15.4932C60.9046 15.4558 61.0299 15.4157 61.1214 15.3731C61.2143 15.3314 61.3037 15.2757 61.3931 15.2061V15.8507ZM62.1047 12.0721C61.6465 11.7859 61.1228 11.6406 60.533 11.6406C59.6264 11.6406 58.9866 11.9329 58.6142 12.5166C58.3798 12.8906 58.2489 13.3664 58.2179 13.9466H59.5722C59.606 13.6908 59.6721 13.4882 59.7721 13.3386C59.9121 13.1359 60.1494 13.0341 60.4851 13.0341C60.785 13.0341 61.0123 13.0846 61.1672 13.1898C61.3213 13.2925 61.3987 13.4803 61.3987 13.7517C61.3987 13.9753 61.2988 14.1388 61.0961 14.2449C60.9834 14.3058 60.7969 14.3563 60.5351 14.3972L60.055 14.4702C59.5102 14.5546 59.0957 14.6973 58.8155 14.8964C58.3024 15.2618 58.0469 15.8507 58.0469 16.6666C58.0469 17.2946 58.2052 17.7808 58.5241 18.1236C58.8423 18.4663 59.247 18.6098 59.7355 18.6385C62.798 18.8073 62.7636 16.644 62.7917 16.1934V13.703C62.7917 12.9045 62.5622 12.3609 62.1047 12.0721Z" fill="#0A0080"/>
<path d="M55.1143 13.1332C55.4648 13.1332 55.7218 13.2672 55.8879 13.5342C56.0019 13.7317 56.073 13.9552 56.1004 14.2022H57.6117C57.5286 13.2602 57.2618 12.6026 56.8114 12.2294C56.3595 11.8589 55.7816 11.6719 55.0742 11.6719C54.2415 11.6719 53.5883 11.9876 53.116 12.6183C52.643 13.2498 52.4065 14.1318 52.4065 15.2661C52.4065 16.2699 52.6205 17.0884 53.0484 17.7199C53.4764 18.3497 54.1444 18.6654 55.0524 18.6654C55.9611 18.6654 56.6466 18.2879 57.1091 17.5311C57.3984 17.0623 57.561 16.5647 57.5955 16.0394H56.0899C56.0589 16.3864 55.9709 16.67 55.8252 16.8883C55.6802 17.1058 55.4353 17.2154 55.089 17.2154C54.6019 17.2154 54.2697 16.9414 54.093 16.3899C53.9966 16.0968 53.948 15.7079 53.948 15.2234C53.948 14.7155 53.9966 14.3084 54.093 14.0013C54.2767 13.4237 54.6174 13.1332 55.1143 13.1332Z" fill="#0A0080"/>
<path d="M52.0033 11.6719C48.8999 11.6719 49.0836 15.0677 49.0836 15.0677V18.5167H50.4914V15.2817C50.4914 14.752 50.5456 14.3588 50.6532 14.104C50.8461 13.6516 51.2241 13.4246 51.7872 13.4246C51.8294 13.4246 51.885 13.4272 51.954 13.4316C52.0223 13.435 52.1004 13.4429 52.1898 13.4559V11.6849C52.1272 11.6797 52.087 11.678 52.0694 11.6754C52.0511 11.6736 52.0293 11.6719 52.0033 11.6719Z" fill="#0A0080"/>
<path d="M44.9329 13.4742C45.1314 13.2228 45.4095 13.0967 45.7677 13.0967C46.0986 13.0967 46.3745 13.215 46.5976 13.4533C46.82 13.6899 46.9446 14.0387 46.97 14.4971H44.5606C44.6106 14.0666 44.7352 13.7264 44.9329 13.4742ZM46.8257 16.7144C46.7665 16.8187 46.7032 16.9083 46.6328 16.9779C46.4343 17.1806 46.164 17.2415 45.8459 17.2415C45.5446 17.2415 45.3095 17.1849 45.0962 17.0188C44.745 16.7526 44.5472 16.3012 44.5261 15.6375H48.4228C48.4284 15.0669 48.4129 14.6302 48.3756 14.3258C48.3109 13.8082 48.1687 13.3515 47.9498 12.9592C47.7069 12.5139 47.3979 12.1877 47.0249 11.9807C46.6525 11.7745 46.2337 11.6719 45.7677 11.6719C44.9829 11.6719 44.3459 11.9772 43.8546 12.5878C43.3633 13.1993 43.1169 14.077 43.1169 15.2217C43.1169 16.4447 43.3893 17.3267 43.9341 17.8686C44.4782 18.4105 45.1068 18.6828 45.8184 18.6828C46.6807 18.6828 47.3515 18.361 47.8308 17.7181C48.0891 17.3798 48.251 17.0449 48.3193 16.7144H46.8257Z" fill="#0A0080"/>
<path d="M42.5591 18.508H41.2724V14.505C41.2724 14.1397 41.1753 13.2698 40.3264 13.2698C39.7605 13.2698 39.3515 13.7743 39.3515 14.505V18.508H38.0641V14.505C38.0641 14.1397 37.9762 13.2698 37.128 13.2698C36.5522 13.2698 36.1524 13.7743 36.1524 14.505V18.508H34.8657V14.5433C34.8657 12.8906 35.7526 11.6406 37.128 11.6406C37.8107 11.6406 38.3661 11.9955 38.7272 12.5635C39.1073 11.9955 39.6725 11.6406 40.3264 11.6406C41.7306 11.6406 42.5591 12.8401 42.5591 14.5433V18.508Z" fill="#0A0080"/>
<path d="M66.7412 16.6878C66.5356 17.0522 66.2337 17.234 65.8381 17.234C65.4418 17.234 65.1469 17.0505 64.9526 16.6852C64.7583 16.3181 64.6612 15.7857 64.6612 15.1751C64.6612 14.6088 64.7562 14.1348 64.9477 13.7529C65.1384 13.3711 65.4383 13.1797 65.8479 13.1797C66.1161 13.1797 66.3519 13.2841 66.5553 13.4946C66.8855 13.8425 67.0509 14.4662 67.0509 15.2751C67.0509 15.8527 66.9474 16.3242 66.7412 16.6878ZM68.4305 9.57855C68.4305 9.57855 67.0115 9.39153 67.0115 10.7998L67.0108 12.6639C66.8538 12.3525 66.6497 12.1081 66.3977 11.9332C66.1464 11.7575 65.8585 11.6688 65.5333 11.6688C64.8301 11.6688 64.2692 11.9924 63.8482 12.6395C63.4273 13.2867 63.2183 14.2192 63.2183 15.3473C63.2183 16.3259 63.4315 17.1279 63.8581 17.7533C64.2853 18.377 65.123 18.651 65.8662 18.651C68.4593 18.651 68.4291 15.9023 68.4291 15.9023L68.4305 9.57855Z" fill="#0A0080"/>
<path d="M38.6336 24.8614C38.6336 24.2056 38.5301 23.7011 38.3225 23.347C38.1155 22.9947 37.8192 22.8164 37.4321 22.8164C37.0604 22.8164 36.7697 22.9947 36.5621 23.347C36.3699 23.6671 36.2735 24.1734 36.2735 24.8614C36.2735 25.5034 36.3762 25.9809 36.5839 26.301C36.7901 26.655 37.0879 26.8316 37.4736 26.8316C37.8326 26.8316 38.1155 26.655 38.3225 26.301C38.5301 25.9479 38.6336 25.4694 38.6336 24.8614ZM36.2735 29.5708C36.2735 29.8056 36.2045 30.0083 36.0651 30.1762C35.9279 30.3449 35.7625 30.4293 35.5689 30.4293H34.8657V24.3813C34.8657 23.2052 35.186 22.4694 35.7139 21.9709C36.063 21.6421 36.5825 21.3281 37.5566 21.3281C38.2141 21.3281 38.9841 21.6439 39.4001 22.2702C39.8668 22.9747 40.061 23.7602 40.061 24.7857C40.061 25.847 39.8541 26.7029 39.4409 27.3614C39.027 28.0016 38.4949 28.3199 37.8459 28.3199C37.501 28.3199 37.1977 28.2442 36.9358 28.0938C36.6585 27.925 36.4389 27.6641 36.2735 27.31V29.5708Z" fill="#0A0080"/>
<path d="M47.0734 24.8637C47.0734 26.0241 47.3451 26.6669 47.887 26.7939C48.4283 26.9183 48.8288 26.7626 49.0864 26.3259C49.2089 26.1424 49.2962 25.851 49.3511 25.4569C49.4046 25.062 49.4088 24.6706 49.361 24.2844C49.3145 23.8964 49.2019 23.552 49.0252 23.2493C48.8499 22.9474 48.5916 22.7952 48.2531 22.7952C47.792 22.7952 47.4809 23.0066 47.3176 23.425C47.1543 23.846 47.0734 24.3253 47.0734 24.8637ZM49.3919 27.7637V27.3366C49.1484 27.8081 48.8183 28.1004 48.4051 28.2187C47.9919 28.3361 47.5816 28.2943 47.1761 28.0917C46.7686 27.8907 46.4195 27.5167 46.1281 26.9704C45.8366 26.4224 45.6917 25.704 45.6917 24.8124C45.6917 23.7712 45.8845 22.9257 46.2702 22.2785C46.6567 21.6314 47.2775 21.3356 48.1313 21.3069C48.9724 21.2791 49.4616 21.5148 49.941 21.9628C50.4646 22.4542 50.7743 23.2075 50.7743 24.3844V27.9421C50.7765 29.0737 50.1373 31.1718 48.1313 30.9943C46.8882 30.883 46.1984 30.2524 45.8134 28.8249H47.2979C47.4063 29.0598 47.5717 29.2399 47.7962 29.3651C48.0187 29.493 48.2439 29.526 48.4656 29.4669C48.6895 29.4077 48.8929 29.2433 49.0773 28.9754C49.2596 28.7066 49.3645 28.3022 49.3919 27.7637Z" fill="#0A0080"/>
<path d="M43.7764 25.5616C43.7673 26.1418 43.6328 26.541 43.3752 26.7602C43.1169 26.9786 42.8346 27.0882 42.5284 27.0882C42.3342 27.0882 42.1702 27.0221 42.0357 26.8907C41.9006 26.7594 41.833 26.5445 41.833 26.2479C41.833 25.9165 41.9435 25.6712 42.1645 25.5129C42.2962 25.4198 42.5101 25.3398 42.8093 25.2763L43.1288 25.2032C43.2886 25.1658 43.4139 25.1258 43.5047 25.0832C43.5976 25.0414 43.687 24.9866 43.7764 24.917V25.5616ZM44.488 21.783C44.0298 21.4968 43.5061 21.3516 42.917 21.3516C42.0097 21.3516 41.3706 21.6438 40.9975 22.2275C40.7638 22.6007 40.6322 23.0765 40.6019 23.6575H41.9569C41.99 23.4009 42.0561 23.1982 42.1561 23.0486C42.2962 22.846 42.5334 22.7451 42.8684 22.7451C43.1697 22.7451 43.3963 22.7955 43.5505 22.8999C43.7046 23.0034 43.7827 23.1913 43.7827 23.4627C43.7827 23.6853 43.6821 23.8497 43.4801 23.9559C43.3682 24.0168 43.1809 24.0672 42.9191 24.1081L42.439 24.1803C41.8942 24.2655 41.4797 24.4082 41.1995 24.6065C40.6864 24.9718 40.4302 25.5616 40.4302 26.3766C40.4302 27.0047 40.5893 27.4909 40.9081 27.8336C41.2263 28.1755 41.631 28.3207 42.1195 28.3486C45.1806 28.5173 45.1469 26.3532 45.175 25.9034V23.4131C45.175 22.6146 44.9462 22.0718 44.488 21.783Z" fill="#0A0080"/>
<path d="M54.9817 26.3463C54.7628 26.7064 54.4489 26.8856 54.0399 26.8856C53.6303 26.8856 53.3149 26.7064 53.0953 26.3463C52.8736 25.988 52.7638 25.4774 52.7638 24.8154C52.7638 24.1535 52.8736 23.6437 53.0953 23.2862C53.3149 22.9287 53.6303 22.7513 54.0399 22.7513C54.4489 22.7513 54.7628 22.9287 54.9817 23.2862C55.2006 23.6437 55.3104 24.1535 55.3104 24.8154C55.3104 25.4774 55.2006 25.988 54.9817 26.3463ZM56.1009 22.3372C55.649 21.6379 54.9634 21.2891 54.0435 21.2891C53.1256 21.2891 52.4393 21.6379 51.9881 22.3372C51.5362 23.0357 51.3103 23.8612 51.3103 24.8154C51.3103 25.7853 51.5362 26.6134 51.9881 27.3032C52.4393 27.9903 53.1256 28.3357 54.0435 28.3357C54.9634 28.3357 55.649 27.9903 56.1009 27.3032C56.5521 26.6134 56.7766 25.7853 56.7766 24.8154C56.7766 23.8612 56.5521 23.0357 56.1009 22.3372Z" fill="#0A0080"/>
<rect x="0.5" y="0.5" width="79" height="39" rx="7.5" stroke="#919EAB" stroke-opacity="0.3"/>
</svg>
