<svg width="32" height="32" viewBox="0 0 32 32" fill="none" xmlns="http://www.w3.org/2000/svg">
<path d="M7.03122 0.143749C6.79372 0.2125 6.57497 0.299999 6.55622 0.331249C6.53747 0.362499 6.50622 0.38125 6.49372 0.36875C6.44997 0.34375 5.99997 0.574999 5.99997 0.625C5.99997 0.65 5.93747 0.6875 5.85622 0.7125C5.73122 0.74375 5.01247 1.375 5.09997 1.375C5.11247 1.375 5.04997 1.45625 4.94997 1.55C4.85622 1.64375 4.71247 1.8375 4.64372 1.96875C4.33122 2.5625 4.17497 2.9125 4.15622 3.0625C4.14372 3.15 4.13122 3.21875 4.12497 3.21875C4.02497 3.21875 3.98122 28.075 4.07497 28.5625C4.09997 28.6812 4.13122 28.8375 4.14997 28.9062C4.16247 28.975 4.18122 29.0687 4.18122 29.1125C4.18747 29.1562 4.21872 29.175 4.26247 29.15C4.30622 29.1187 4.31247 29.1312 4.28747 29.1812C4.23122 29.2687 4.59372 30.0562 4.74372 30.1687C4.79997 30.2125 4.81872 30.25 4.79372 30.25C4.76872 30.25 4.81247 30.3125 4.89372 30.3937C4.98122 30.4688 5.04997 30.5437 5.04997 30.5625C5.04997 30.6187 5.49997 31.075 5.49997 31.0188C5.49997 30.9937 5.54372 31.0375 5.59997 31.1125C5.64997 31.1875 5.72497 31.25 5.76247 31.25C5.79997 31.25 5.92497 31.3187 6.03122 31.4062C6.14372 31.4875 6.24997 31.5375 6.27497 31.5187C6.29372 31.4937 6.31247 31.5125 6.31247 31.55C6.31247 31.6188 6.81872 31.8375 6.98747 31.8312C7.04372 31.8312 7.12497 31.8563 7.16872 31.8875C7.21247 31.9187 7.27497 31.9312 7.30622 31.9125C7.33747 31.8875 7.38122 31.9 7.40622 31.9375C7.43122 31.975 10.3 32 15.9562 32C24.2812 32 24.8437 31.9875 25 31.8125C25.0187 31.7938 25.075 31.775 25.125 31.7687C25.3562 31.7438 25.5062 31.6875 25.8187 31.4937C26.0062 31.3812 26.1687 31.2625 26.175 31.2375C26.1875 31.2063 26.225 31.2 26.2562 31.225C26.2875 31.2437 26.3125 31.2312 26.3125 31.1937C26.3125 31.1625 26.3687 31.1125 26.4437 31.0938C26.5125 31.0687 26.5562 31.0375 26.5375 31.0125C26.5187 30.9937 26.5875 30.925 26.6937 30.8625C26.8 30.7937 26.9 30.6875 26.9187 30.625C26.9375 30.5562 27.0187 30.4625 27.1 30.4062C27.1812 30.3562 27.25 30.2687 27.25 30.225C27.25 30.175 27.275 30.125 27.3 30.1125C27.375 30.0812 27.8187 29.125 27.8437 28.9375C27.8562 28.85 27.875 28.7812 27.8812 28.7812C27.9437 28.7812 27.9625 27.2125 27.9812 18.95L28.0062 9.4375H23.4375H18.875V4.71875V0L13.175 0.00625038C7.59997 0.0124989 7.45622 0.0187492 7.03122 0.143749ZM11.8687 18.1C12.35 18.2312 12.7437 18.5312 12.9687 18.9437C13.1437 19.2562 13.1562 19.3313 13.1562 19.9062C13.1562 20.4812 13.1437 20.5562 12.975 20.8625C12.775 21.225 12.5187 21.4437 12.075 21.6375C11.8437 21.7437 11.6125 21.775 10.9875 21.8L10.1875 21.8313V22.85V23.875H9.40622H8.62497V20.9375V18H10.075C11.2 18 11.6 18.025 11.8687 18.1ZM17.0062 18.1687C17.775 18.4563 18.1625 18.7375 18.5062 19.2688C19.0562 20.1125 19.0875 21.5813 18.5812 22.5125C18.375 22.8938 17.925 23.3125 17.5062 23.525C16.9187 23.825 16.5875 23.875 15.1125 23.875H13.75V20.9312V17.9875L15.2062 18.0125C16.475 18.0375 16.7 18.0562 17.0062 18.1687ZM23.875 18.6562V19.3125H22.5312H21.1875V19.75V20.1875H22.25H23.3125V20.8438V21.5H22.25H21.1875V22.6875V23.875H20.4062H19.625V20.9375V18H21.75H23.875V18.6562Z" fill="#E5252A"/>
<path d="M10.1875 19.9V20.5H10.55C11.3375 20.4937 11.6438 20.3062 11.6125 19.8562C11.5813 19.475 11.375 19.35 10.7125 19.3188L10.1875 19.3V19.9Z" fill="#E5252A"/>
<path d="M15.3125 20.9375V22.5625H15.675C16.2312 22.5625 16.6562 22.4125 16.9625 22.1062C17.2937 21.7688 17.4 21.4187 17.3625 20.7875C17.325 20.2437 17.125 19.8375 16.7937 19.6312C16.5312 19.4688 15.9312 19.3125 15.5812 19.3125H15.3125V20.9375Z" fill="#E5252A"/>
<path d="M18.875 4.71875V9.375H23.3812H27.8875L27.1813 8.6375C25.5687 6.96875 22.475 3.71875 21.6562 2.84375C20.5125 1.61875 18.9875 0.0625 18.925 0.0625C18.9 0.0625 18.875 2.15625 18.875 4.71875Z" fill="#EC6B6B"/>
<path d="M8.65625 20.9673C8.65625 22.5861 8.6625 23.2548 8.66875 22.4548C8.68125 21.6611 8.68125 20.3361 8.66875 19.5173C8.6625 18.6986 8.65625 19.3486 8.65625 20.9673Z" fill="#EC6B6B"/>
<path d="M13.7812 20.9673C13.7812 22.5861 13.7875 23.2548 13.7938 22.4548C13.8063 21.6611 13.8063 20.3361 13.7938 19.5173C13.7875 18.6986 13.7812 19.3486 13.7812 20.9673Z" fill="#EC6B6B"/>
<path d="M23.8375 18.6866C23.8375 19.0491 23.8438 19.1928 23.8563 19.0116C23.8688 18.8366 23.8688 18.5366 23.8563 18.3553C23.8438 18.1803 23.8375 18.3241 23.8375 18.6866Z" fill="#EC6B6B"/>
<path d="M10.4875 21.7914C10.6687 21.8039 10.95 21.8039 11.1125 21.7914C11.275 21.7789 11.125 21.7727 10.7812 21.7727C10.4375 21.7727 10.3062 21.7789 10.4875 21.7914Z" fill="#EC6B6B"/>
<path d="M15.3937 22.6039C15.4874 22.6164 15.6374 22.6164 15.7374 22.6039C15.8312 22.5914 15.7499 22.5789 15.5624 22.5789C15.3749 22.5789 15.2937 22.5914 15.3937 22.6039Z" fill="#EC6B6B"/>
<path d="M22.5938 3.8125C22.7625 3.98125 22.9125 4.125 22.9313 4.125C22.95 4.125 22.825 3.98125 22.6563 3.8125C22.4875 3.6375 22.3375 3.5 22.3188 3.5C22.3 3.5 22.425 3.6375 22.5938 3.8125Z" fill="#ECECEC"/>
<path d="M24.1875 5.46875C24.5125 5.79375 24.7937 6.0625 24.8125 6.0625C24.825 6.0625 24.575 5.79375 24.25 5.46875C23.925 5.14375 23.6437 4.875 23.625 4.875C23.6125 4.875 23.8625 5.14375 24.1875 5.46875Z" fill="#ECECEC"/>
<path d="M26.4374 7.81076C27.2437 8.65451 27.9312 9.35451 27.9687 9.36701C28.0374 9.39201 25.5187 6.77326 25.1812 6.46701C25.0687 6.36076 25.6312 6.96701 26.4374 7.81076Z" fill="#ECECEC"/>
<path d="M8.6875 20.9625V23.875H9.40625H10.125V22.8188V21.7625L10.9562 21.7375C11.65 21.7188 11.8312 21.6938 12.0938 21.575C12.7875 21.2563 13.125 20.7125 13.125 19.9063C13.1188 19.1188 12.8313 18.6188 12.1562 18.2625C11.8438 18.0938 11.8375 18.0938 10.2688 18.075L8.6875 18.05V20.9625ZM11.3937 19.3875C11.6063 19.5 11.6813 19.6375 11.6875 19.8938C11.6875 20.075 11.6437 20.175 11.5063 20.3188C11.3312 20.4938 11.3 20.5 10.725 20.5H10.125V19.9063V19.3125H10.6938C11.0063 19.3125 11.3188 19.3438 11.3937 19.3875Z" fill="white"/>
<path d="M13.8125 20.9742V23.8867L15.175 23.8555C16.2313 23.8367 16.6063 23.8055 16.875 23.718C18.2313 23.2867 18.875 22.3992 18.875 20.9742C18.875 19.7367 18.45 18.9492 17.5 18.443C16.9125 18.1305 16.4938 18.0617 15.0813 18.0617H13.8125V20.9742ZM16.4438 19.4055C17.0688 19.6305 17.375 20.0555 17.425 20.7867C17.5 21.9367 16.9438 22.5492 15.7688 22.6117L15.25 22.643V20.9742V19.3117H15.7125C15.9625 19.3117 16.2938 19.3555 16.4438 19.4055Z" fill="white"/>
<path d="M19.6875 20.9688V23.875H20.4062H21.125V22.6875V21.5H22.1875H23.25V20.875V20.25H22.1875H21.125V19.7812V19.3125H22.4688H23.8125V18.6875V18.0625H21.75H19.6875V20.9688Z" fill="white"/>
</svg>
