<svg width="45" height="46" viewBox="0 0 45 46" fill="none" xmlns="http://www.w3.org/2000/svg">
<path d="M29.2851 1.97559C28.6875 2.19531 28.081 2.71387 27.7471 3.30274C27.5361 3.66309 27.4746 3.90918 27.4394 4.40137L27.4043 5.02539L28.4678 6.43164L29.5224 7.83789L29.5312 8.93653V10.0352L27.8525 12.7598C26.9297 14.2627 26.1562 15.5459 26.1299 15.6162C26.0859 15.8096 27.2549 16.5215 27.3867 16.3809C27.4394 16.3193 28.2041 15.0977 29.0918 13.6563L30.6914 11.0459H33.75H36.8086L39.2256 14.9746C40.5615 17.1455 41.7305 19.1318 41.8447 19.3955C42.1172 20.0723 42.1787 21.5313 41.9678 22.2607C41.5107 23.8516 40.3066 25.0732 38.6719 25.6006C38.25 25.7324 37.7051 25.7588 34.2158 25.7939L30.2344 25.8291V26.5234V27.2266L34.4795 27.2002L38.7158 27.1738L39.4189 26.9277C41.2295 26.2861 42.5918 24.9502 43.251 23.1748C43.4971 22.5332 43.541 22.2783 43.5762 21.3555C43.6201 20.0898 43.4795 19.2988 43.0312 18.376C42.8642 18.042 41.6601 16.0293 40.3506 13.9023L37.9687 10.0352V8.93653L37.9775 7.83789L39.0234 6.44043C40.0605 5.06055 40.0781 5.03418 40.0781 4.57715C40.0781 3.56641 39.4365 2.56446 38.5137 2.10742C38.0742 1.8877 37.916 1.86133 37.2041 1.86133H36.3955L35.0771 2.52051L33.7588 3.1709L32.4141 2.52051C31.1572 1.89649 31.043 1.86133 30.4189 1.83496C29.9443 1.81738 29.6191 1.86133 29.2851 1.97559ZM32.0713 4.01465C32.8711 4.41016 33.6094 4.71778 33.75 4.71778C33.8906 4.71778 34.6289 4.41016 35.4287 4.01465C37.2129 3.12696 37.582 3.10059 38.2588 3.82129C38.6807 4.26074 38.6279 4.43653 37.7051 5.68457L36.8701 6.81836H33.75H30.6299L29.7949 5.68457C29.1973 4.87598 28.9687 4.48926 28.9775 4.33106C29.0127 3.83008 29.6719 3.32031 30.2871 3.31153C30.5683 3.31153 30.9814 3.46973 32.0713 4.01465ZM36.5625 8.93653V9.63965H33.75H30.9375V8.93653V8.2334H33.75H36.5625V8.93653Z" fill="#FF9F43"/>
<path d="M21.252 3.31445L21.0235 4.00879L22.0254 4.34277C22.5791 4.51855 23.0274 4.69434 23.0274 4.7207C23.0274 4.74707 22.8076 4.87891 22.5352 5.01953C19.9248 6.38184 17.6045 8.79883 16.2598 11.5322C15.5215 13.0352 15.5215 12.9121 16.2774 13.1934C16.6289 13.3164 16.9453 13.4219 16.9805 13.4219C17.0069 13.4219 17.2529 12.9648 17.5166 12.4111C18.2285 10.9434 18.9492 9.93262 20.1709 8.71973C21.2696 7.6123 22.3067 6.83887 23.458 6.25879C23.9854 5.99512 24.0908 5.96875 24.0469 6.10059C23.9238 6.39941 23.291 8.36816 23.291 8.42969C23.291 8.45605 23.5547 8.57031 23.8887 8.68457C24.2139 8.79004 24.5215 8.89551 24.5742 8.91309C24.7061 8.96582 26.0156 5.06348 26.0156 4.62402C26.0156 4.41309 25.9541 4.25488 25.8223 4.13184C25.6641 3.99121 21.7705 2.61133 21.5332 2.61133C21.5069 2.61133 21.375 2.92773 21.252 3.31445Z" fill="#FF9F43"/>
<path d="M15.1611 14.4921C15.1171 14.6151 14.8623 15.8808 14.8886 15.8895C14.9677 15.9159 16.3125 16.1181 16.33 16.1005C16.3652 16.0653 16.6113 14.9052 16.6113 14.7821C16.6113 14.7294 16.3476 14.6239 16.0224 14.536C15.3105 14.3602 15.2138 14.3515 15.1611 14.4921Z" fill="#FF9F43"/>
<path d="M33.0469 14.9492C33.0469 15.2744 33.0205 15.3447 32.8535 15.3887C32.5283 15.4678 32.0186 15.9424 31.8252 16.3467C31.7021 16.6104 31.6406 16.9004 31.6406 17.2695C31.6406 18.2715 31.9658 18.7021 33.1611 19.3174C34.2246 19.8535 34.3652 19.9678 34.3652 20.2666C34.3652 20.5654 34.2773 20.6885 33.9961 20.7939C33.6445 20.9258 33.2578 20.7676 33.1436 20.4424C33.0557 20.1875 33.0557 20.1875 32.3525 20.1875H31.6406V20.5127C31.6406 21.1455 32.2822 22.0332 32.8535 22.1738C33.0205 22.2178 33.0469 22.2881 33.0469 22.6133V23H33.75H34.4531V22.6133C34.4531 22.2881 34.4795 22.2178 34.6553 22.1738C34.9717 22.0947 35.4814 21.6201 35.6748 21.2158C35.7979 20.9521 35.8594 20.6621 35.8594 20.293C35.8594 19.291 35.5342 18.8604 34.3389 18.2451C33.2754 17.709 33.1348 17.5947 33.1348 17.2959C33.1348 16.9971 33.2227 16.874 33.5039 16.7686C33.8555 16.6367 34.2422 16.7949 34.3564 17.1201C34.4443 17.375 34.4443 17.375 35.1475 17.375H35.8594V17.0498C35.8594 16.417 35.2178 15.5293 34.6553 15.3887C34.4795 15.3447 34.4531 15.2744 34.4531 14.9492V14.5625H33.75H33.0469V14.9492Z" fill="#FF9F43"/>
<path d="M10.7227 17.5508C10.5469 17.7266 10.5469 17.8408 10.5469 23.8789V30.0312H11.25H11.9531V24.4062V18.7812H19.6875H27.4219V26.1641V33.5469H28.125H28.8281V25.6367C28.8281 17.8408 28.8281 17.7266 28.6523 17.5508C28.4766 17.375 28.3623 17.375 19.6875 17.375C11.0127 17.375 10.8984 17.375 10.7227 17.5508Z" fill="#FF9F43"/>
<path d="M37.2656 18.7812V19.4844H37.9688H38.6719V18.7812V18.0781H37.9688H37.2656V18.7812Z" fill="#FF9F43"/>
<path d="M16.3477 21.0664C16.1807 21.2334 16.1719 21.3564 16.1719 23.8789V26.5156H15.4688H14.7656V27.2188V27.9219H19.6875H24.6094V27.2188V26.5156H23.9062H23.2031V25.2852C23.2031 23.6416 23.2646 23.7031 21.6211 23.7031H20.3906V22.4727C20.3906 20.7852 20.5312 20.8906 18.2812 20.8906C16.6377 20.8906 16.5146 20.8994 16.3477 21.0664ZM18.9844 24.4062V26.5156H18.2812H17.5781V24.4062V22.2969H18.2812H18.9844V24.4062ZM21.7969 25.8125V26.5156H21.0938H20.3906V25.8125V25.1094H21.0938H21.7969V25.8125Z" fill="#FF9F43"/>
<path d="M35.7363 28.4512C34.3389 29.5938 32.2295 30.6309 30.5596 31.0088L30.041 31.123L30.1025 31.4307C30.2607 32.292 30.3486 32.582 30.4365 32.582C30.6299 32.582 32.0625 32.1689 32.7129 31.9229C34.084 31.4131 35.8945 30.3408 36.9932 29.4004L37.2744 29.1543L36.8086 28.627C36.5537 28.3369 36.3076 28.0996 36.2549 28.0996C36.2109 28.1084 35.9736 28.2666 35.7363 28.4512Z" fill="#FF9F43"/>
<path d="M14.0625 30.7344V31.4375H14.7656H15.4688V30.7344V30.0312H14.7656H14.0625V30.7344Z" fill="#FF9F43"/>
<path d="M16.875 30.7344V31.4375H21.0938H25.3125V30.7344V30.0312H21.0938H16.875V30.7344Z" fill="#FF9F43"/>
<path d="M1.40625 31.4377V32.1409H3.16406H4.92188V36.3596V40.5784H3.16406H1.40625V41.2815V41.9846H3.69141C5.8623 41.9846 5.98535 41.9758 6.15234 41.8088C6.24902 41.7121 6.32812 41.5188 6.32812 41.3694C6.32812 41.22 6.3457 41.1057 6.36328 41.1057C6.38965 41.1057 7.70801 41.6418 9.29004 42.301C11.0039 43.0129 12.5859 43.6106 13.1836 43.7688C14.168 44.0325 14.2471 44.0412 16.1279 44.0412C17.9561 44.05 18.1143 44.0325 19.002 43.8127C20.0391 43.5491 31.2715 39.3039 31.8867 38.9436C32.291 38.7063 32.7568 38.1262 32.9326 37.6516C32.9854 37.4934 33.0381 37.0715 33.0381 36.7112C33.0469 35.6301 32.5459 34.8039 31.5879 34.3293C31.2451 34.1623 31.0166 34.1184 30.498 34.1184C29.8564 34.1184 29.7773 34.1448 27.5098 35.1116C26.2266 35.6653 25.1279 36.1311 25.0752 36.1575C24.9961 36.1926 24.9609 36.0784 24.9609 35.7795C24.9521 34.9709 24.416 34.1711 23.625 33.7756L23.168 33.5471H20.2236C18.5977 33.5383 17.0156 33.512 16.6992 33.468C16.3213 33.4153 15.7764 33.2395 15.1172 32.9495C13.8252 32.3782 12.4893 31.9387 11.2852 31.6926C10.5293 31.5432 9.91406 31.4905 8.33203 31.4553C6.44238 31.4202 6.32812 31.4114 6.32812 31.2532C6.32812 31.1565 6.24902 31.0071 6.15234 30.9104C5.98535 30.7434 5.8623 30.7346 3.69141 30.7346H1.40625V31.4377ZM8.94727 32.9319C10.916 33.0637 12.6562 33.5032 14.4141 34.2942C15.873 34.9621 15.8379 34.9534 19.2832 34.9534C21.1201 34.9534 22.5 34.9885 22.6934 35.0412C23.7041 35.3225 23.7041 36.6936 22.6934 36.9748C22.4912 37.0276 20.7773 37.0627 18.2197 37.0627H14.0625V37.7659V38.469H18.6592C21.7354 38.469 23.3613 38.4338 23.5986 38.3723C23.792 38.3196 25.3916 37.6604 27.1494 36.9133C30.7178 35.4016 30.7002 35.4016 31.2627 35.9641C31.5176 36.219 31.5527 36.3157 31.5527 36.7024C31.5527 37.5637 31.7373 37.467 25.2246 39.9455C22.0518 41.1496 19.1162 42.2219 18.6943 42.3362C17.71 42.5823 16.3828 42.6789 15.3105 42.5911C13.7285 42.4592 13.1748 42.2834 9.30762 40.6662L6.37207 39.4446L6.3457 36.1487L6.32812 32.844H7.00488C7.38281 32.844 8.25293 32.8879 8.94727 32.9319Z" fill="#FF9F43"/>
</svg>
