<svg width="19" height="18" viewBox="0 0 19 18" fill="none" xmlns="http://www.w3.org/2000/svg">
<g clip-path="url(#clip0_2911_207040)">
<path d="M6.83301 15.75H3.83301C3.6341 15.75 3.44333 15.671 3.30268 15.5303C3.16203 15.3897 3.08301 15.1989 3.08301 15V12C3.08301 11.8011 3.00399 11.6103 2.86334 11.4697C2.72269 11.329 2.53192 11.25 2.33301 11.25C2.1341 11.25 1.94333 11.329 1.80268 11.4697C1.66203 11.6103 1.58301 11.8011 1.58301 12V15C1.58301 15.5967 1.82006 16.169 2.24202 16.591C2.66397 17.0129 3.23627 17.25 3.83301 17.25H6.83301C7.03192 17.25 7.22269 17.171 7.36334 17.0303C7.50399 16.8897 7.58301 16.6989 7.58301 16.5C7.58301 16.3011 7.50399 16.1103 7.36334 15.9697C7.22269 15.829 7.03192 15.75 6.83301 15.75ZM17.333 11.25C17.1341 11.25 16.9433 11.329 16.8027 11.4697C16.662 11.6103 16.583 11.8011 16.583 12V15C16.583 15.1989 16.504 15.3897 16.3633 15.5303C16.2227 15.671 16.0319 15.75 15.833 15.75H12.833C12.6341 15.75 12.4433 15.829 12.3027 15.9697C12.162 16.1103 12.083 16.3011 12.083 16.5C12.083 16.6989 12.162 16.8897 12.3027 17.0303C12.4433 17.171 12.6341 17.25 12.833 17.25H15.833C16.4297 17.25 17.002 17.0129 17.424 16.591C17.846 16.169 18.083 15.5967 18.083 15V12C18.083 11.8011 18.004 11.6103 17.8633 11.4697C17.7227 11.329 17.5319 11.25 17.333 11.25ZM15.833 0.75H12.833C12.6341 0.75 12.4433 0.829018 12.3027 0.96967C12.162 1.11032 12.083 1.30109 12.083 1.5C12.083 1.69891 12.162 1.88968 12.3027 2.03033C12.4433 2.17098 12.6341 2.25 12.833 2.25H15.833C16.0319 2.25 16.2227 2.32902 16.3633 2.46967C16.504 2.61032 16.583 2.80109 16.583 3V6C16.583 6.19891 16.662 6.38968 16.8027 6.53033C16.9433 6.67098 17.1341 6.75 17.333 6.75C17.5319 6.75 17.7227 6.67098 17.8633 6.53033C18.004 6.38968 18.083 6.19891 18.083 6V3C18.083 2.40326 17.846 1.83097 17.424 1.40901C17.002 0.987053 16.4297 0.75 15.833 0.75ZM2.33301 6.75C2.53192 6.75 2.72269 6.67098 2.86334 6.53033C3.00399 6.38968 3.08301 6.19891 3.08301 6V3C3.08301 2.80109 3.16203 2.61032 3.30268 2.46967C3.44333 2.32902 3.6341 2.25 3.83301 2.25H6.83301C7.03192 2.25 7.22269 2.17098 7.36334 2.03033C7.50399 1.88968 7.58301 1.69891 7.58301 1.5C7.58301 1.30109 7.50399 1.11032 7.36334 0.96967C7.22269 0.829018 7.03192 0.75 6.83301 0.75H3.83301C3.23627 0.75 2.66397 0.987053 2.24202 1.40901C1.82006 1.83097 1.58301 2.40326 1.58301 3V6C1.58301 6.19891 1.66203 6.38968 1.80268 6.53033C1.94333 6.67098 2.1341 6.75 2.33301 6.75ZM8.33301 3.75H5.33301C5.1341 3.75 4.94333 3.82902 4.80268 3.96967C4.66203 4.11032 4.58301 4.30109 4.58301 4.5V7.5C4.58301 7.69891 4.66203 7.88968 4.80268 8.03033C4.94333 8.17098 5.1341 8.25 5.33301 8.25H8.33301C8.53192 8.25 8.72269 8.17098 8.86334 8.03033C9.00399 7.88968 9.08301 7.69891 9.08301 7.5V4.5C9.08301 4.30109 9.00399 4.11032 8.86334 3.96967C8.72269 3.82902 8.53192 3.75 8.33301 3.75ZM7.58301 6.75H6.08301V5.25H7.58301V6.75ZM11.333 8.25H14.333C14.5319 8.25 14.7227 8.17098 14.8633 8.03033C15.004 7.88968 15.083 7.69891 15.083 7.5V4.5C15.083 4.30109 15.004 4.11032 14.8633 3.96967C14.7227 3.82902 14.5319 3.75 14.333 3.75H11.333C11.1341 3.75 10.9433 3.82902 10.8027 3.96967C10.662 4.11032 10.583 4.30109 10.583 4.5V7.5C10.583 7.69891 10.662 7.88968 10.8027 8.03033C10.9433 8.17098 11.1341 8.25 11.333 8.25ZM12.083 5.25H13.583V6.75H12.083V5.25ZM8.33301 9.75H5.33301C5.1341 9.75 4.94333 9.82902 4.80268 9.96967C4.66203 10.1103 4.58301 10.3011 4.58301 10.5V13.5C4.58301 13.6989 4.66203 13.8897 4.80268 14.0303C4.94333 14.171 5.1341 14.25 5.33301 14.25H8.33301C8.53192 14.25 8.72269 14.171 8.86334 14.0303C9.00399 13.8897 9.08301 13.6989 9.08301 13.5V10.5C9.08301 10.3011 9.00399 10.1103 8.86334 9.96967C8.72269 9.82902 8.53192 9.75 8.33301 9.75ZM7.58301 12.75H6.08301V11.25H7.58301V12.75ZM11.333 12C11.5319 12 11.7227 11.921 11.8633 11.7803C12.004 11.6397 12.083 11.4489 12.083 11.25C12.2819 11.25 12.4727 11.171 12.6133 11.0303C12.754 10.8897 12.833 10.6989 12.833 10.5C12.833 10.3011 12.754 10.1103 12.6133 9.96967C12.4727 9.82902 12.2819 9.75 12.083 9.75H11.333C11.1341 9.75 10.9433 9.82902 10.8027 9.96967C10.662 10.1103 10.583 10.3011 10.583 10.5V11.25C10.583 11.4489 10.662 11.6397 10.8027 11.7803C10.9433 11.921 11.1341 12 11.333 12ZM14.333 9.75C14.1341 9.75 13.9433 9.82902 13.8027 9.96967C13.662 10.1103 13.583 10.3011 13.583 10.5V12.75C13.3841 12.75 13.1933 12.829 13.0527 12.9697C12.912 13.1103 12.833 13.3011 12.833 13.5C12.833 13.6989 12.912 13.8897 13.0527 14.0303C13.1933 14.171 13.3841 14.25 13.583 14.25H14.333C14.5319 14.25 14.7227 14.171 14.8633 14.0303C15.004 13.8897 15.083 13.6989 15.083 13.5V10.5C15.083 10.3011 15.004 10.1103 14.8633 9.96967C14.7227 9.82902 14.5319 9.75 14.333 9.75ZM11.333 12.75C11.1847 12.75 11.0397 12.794 10.9163 12.8764C10.793 12.9588 10.6969 13.0759 10.6401 13.213C10.5833 13.35 10.5685 13.5008 10.5974 13.6463C10.6264 13.7918 10.6978 13.9254 10.8027 14.0303C10.9076 14.1352 11.0412 14.2066 11.1867 14.2356C11.3322 14.2645 11.483 14.2497 11.62 14.1929C11.7571 14.1361 11.8742 14.04 11.9566 13.9167C12.039 13.7933 12.083 13.6483 12.083 13.5C12.083 13.3011 12.004 13.1103 11.8633 12.9697C11.7227 12.829 11.5319 12.75 11.333 12.75Z" fill="#092C4C"/>
</g>
<defs>
<clipPath id="clip0_2911_207040">
<rect width="18" height="18" fill="white" transform="translate(0.833008)"/>
</clipPath>
</defs>
</svg>
