<svg width="15" height="15" viewBox="0 0 15 15" fill="none" xmlns="http://www.w3.org/2000/svg">
<g clip-path="url(#clip0_2659_108911)">
<path d="M5 13.125H2.5C2.33424 13.125 2.17527 13.0592 2.05806 12.9419C1.94085 12.8247 1.875 12.6658 1.875 12.5V10C1.875 9.83424 1.80915 9.67527 1.69194 9.55806C1.57473 9.44085 1.41576 9.375 1.25 9.375C1.08424 9.375 0.925268 9.44085 0.808058 9.55806C0.690848 9.67527 0.625 9.83424 0.625 10V12.5C0.625 12.9973 0.822544 13.4742 1.17417 13.8258C1.52581 14.1775 2.00272 14.375 2.5 14.375H5C5.16576 14.375 5.32473 14.3092 5.44194 14.1919C5.55915 14.0747 5.625 13.9158 5.625 13.75C5.625 13.5842 5.55915 13.4253 5.44194 13.3081C5.32473 13.1908 5.16576 13.125 5 13.125ZM13.75 9.375C13.5842 9.375 13.4253 9.44085 13.3081 9.55806C13.1908 9.67527 13.125 9.83424 13.125 10V12.5C13.125 12.6658 13.0592 12.8247 12.9419 12.9419C12.8247 13.0592 12.6658 13.125 12.5 13.125H10C9.83424 13.125 9.67527 13.1908 9.55806 13.3081C9.44085 13.4253 9.375 13.5842 9.375 13.75C9.375 13.9158 9.44085 14.0747 9.55806 14.1919C9.67527 14.3092 9.83424 14.375 10 14.375H12.5C12.9973 14.375 13.4742 14.1775 13.8258 13.8258C14.1775 13.4742 14.375 12.9973 14.375 12.5V10C14.375 9.83424 14.3092 9.67527 14.1919 9.55806C14.0747 9.44085 13.9158 9.375 13.75 9.375ZM12.5 0.625H10C9.83424 0.625 9.67527 0.690848 9.55806 0.808058C9.44085 0.925268 9.375 1.08424 9.375 1.25C9.375 1.41576 9.44085 1.57473 9.55806 1.69194C9.67527 1.80915 9.83424 1.875 10 1.875H12.5C12.6658 1.875 12.8247 1.94085 12.9419 2.05806C13.0592 2.17527 13.125 2.33424 13.125 2.5V5C13.125 5.16576 13.1908 5.32473 13.3081 5.44194C13.4253 5.55915 13.5842 5.625 13.75 5.625C13.9158 5.625 14.0747 5.55915 14.1919 5.44194C14.3092 5.32473 14.375 5.16576 14.375 5V2.5C14.375 2.00272 14.1775 1.52581 13.8258 1.17417C13.4742 0.822544 12.9973 0.625 12.5 0.625ZM1.25 5.625C1.41576 5.625 1.57473 5.55915 1.69194 5.44194C1.80915 5.32473 1.875 5.16576 1.875 5V2.5C1.875 2.33424 1.94085 2.17527 2.05806 2.05806C2.17527 1.94085 2.33424 1.875 2.5 1.875H5C5.16576 1.875 5.32473 1.80915 5.44194 1.69194C5.55915 1.57473 5.625 1.41576 5.625 1.25C5.625 1.08424 5.55915 0.925268 5.44194 0.808058C5.32473 0.690848 5.16576 0.625 5 0.625H2.5C2.00272 0.625 1.52581 0.822544 1.17417 1.17417C0.822544 1.52581 0.625 2.00272 0.625 2.5V5C0.625 5.16576 0.690848 5.32473 0.808058 5.44194C0.925268 5.55915 1.08424 5.625 1.25 5.625ZM6.25 3.125H3.75C3.58424 3.125 3.42527 3.19085 3.30806 3.30806C3.19085 3.42527 3.125 3.58424 3.125 3.75V6.25C3.125 6.41576 3.19085 6.57473 3.30806 6.69194C3.42527 6.80915 3.58424 6.875 3.75 6.875H6.25C6.41576 6.875 6.57473 6.80915 6.69194 6.69194C6.80915 6.57473 6.875 6.41576 6.875 6.25V3.75C6.875 3.58424 6.80915 3.42527 6.69194 3.30806C6.57473 3.19085 6.41576 3.125 6.25 3.125ZM5.625 5.625H4.375V4.375H5.625V5.625ZM8.75 6.875H11.25C11.4158 6.875 11.5747 6.80915 11.6919 6.69194C11.8092 6.57473 11.875 6.41576 11.875 6.25V3.75C11.875 3.58424 11.8092 3.42527 11.6919 3.30806C11.5747 3.19085 11.4158 3.125 11.25 3.125H8.75C8.58424 3.125 8.42527 3.19085 8.30806 3.30806C8.19085 3.42527 8.125 3.58424 8.125 3.75V6.25C8.125 6.41576 8.19085 6.57473 8.30806 6.69194C8.42527 6.80915 8.58424 6.875 8.75 6.875ZM9.375 4.375H10.625V5.625H9.375V4.375ZM6.25 8.125H3.75C3.58424 8.125 3.42527 8.19085 3.30806 8.30806C3.19085 8.42527 3.125 8.58424 3.125 8.75V11.25C3.125 11.4158 3.19085 11.5747 3.30806 11.6919C3.42527 11.8092 3.58424 11.875 3.75 11.875H6.25C6.41576 11.875 6.57473 11.8092 6.69194 11.6919C6.80915 11.5747 6.875 11.4158 6.875 11.25V8.75C6.875 8.58424 6.80915 8.42527 6.69194 8.30806C6.57473 8.19085 6.41576 8.125 6.25 8.125ZM5.625 10.625H4.375V9.375H5.625V10.625ZM8.75 10C8.91576 10 9.07473 9.93415 9.19194 9.81694C9.30915 9.69973 9.375 9.54076 9.375 9.375C9.54076 9.375 9.69973 9.30915 9.81694 9.19194C9.93415 9.07473 10 8.91576 10 8.75C10 8.58424 9.93415 8.42527 9.81694 8.30806C9.69973 8.19085 9.54076 8.125 9.375 8.125H8.75C8.58424 8.125 8.42527 8.19085 8.30806 8.30806C8.19085 8.42527 8.125 8.58424 8.125 8.75V9.375C8.125 9.54076 8.19085 9.69973 8.30806 9.81694C8.42527 9.93415 8.58424 10 8.75 10ZM11.25 8.125C11.0842 8.125 10.9253 8.19085 10.8081 8.30806C10.6908 8.42527 10.625 8.58424 10.625 8.75V10.625C10.4592 10.625 10.3003 10.6908 10.1831 10.8081C10.0658 10.9253 10 11.0842 10 11.25C10 11.4158 10.0658 11.5747 10.1831 11.6919C10.3003 11.8092 10.4592 11.875 10.625 11.875H11.25C11.4158 11.875 11.5747 11.8092 11.6919 11.6919C11.8092 11.5747 11.875 11.4158 11.875 11.25V8.75C11.875 8.58424 11.8092 8.42527 11.6919 8.30806C11.5747 8.19085 11.4158 8.125 11.25 8.125ZM8.75 10.625C8.62639 10.625 8.50555 10.6617 8.40277 10.7303C8.29999 10.799 8.21988 10.8966 8.17257 11.0108C8.12527 11.125 8.11289 11.2507 8.13701 11.3719C8.16112 11.4932 8.22065 11.6045 8.30806 11.6919C8.39547 11.7794 8.50683 11.8389 8.62807 11.863C8.74931 11.8871 8.87497 11.8747 8.98918 11.8274C9.10338 11.7801 9.20099 11.7 9.26967 11.5972C9.33834 11.4945 9.375 11.3736 9.375 11.25C9.375 11.0842 9.30915 10.9253 9.19194 10.8081C9.07473 10.6908 8.91576 10.625 8.75 10.625Z" fill="#5B6670"/>
</g>
<defs>
<clipPath id="clip0_2659_108911">
<rect width="15" height="15" fill="white"/>
</clipPath>
</defs>
</svg>
