<svg width="40" height="19" viewBox="0 0 40 19" fill="none" xmlns="http://www.w3.org/2000/svg">
<path d="M40 9.8004C40 6.7243 38.6222 4.29706 35.9889 4.29706C33.3444 4.29706 31.7444 6.7243 31.7444 9.77637C31.7444 13.3932 33.6333 15.2196 36.3444 15.2196C37.6667 15.2196 38.6667 14.8952 39.4222 14.4386V12.0354C38.6667 12.4439 37.8 12.6963 36.7 12.6963C35.6222 12.6963 34.6667 12.2877 34.5444 10.8698H39.9778C39.9778 10.7136 40 10.0888 40 9.8004ZM34.5111 8.65888C34.5111 7.30107 35.2778 6.73631 35.9778 6.73631C36.6556 6.73631 37.3778 7.30107 37.3778 8.65888H34.5111ZM27.4556 4.29706C26.3667 4.29706 25.6667 4.8498 25.2778 5.23431L25.1333 4.48932H22.6889V18.5L25.4667 17.8631L25.4778 14.4626C25.8778 14.775 26.4667 15.2196 27.4444 15.2196C29.4333 15.2196 31.2444 13.4893 31.2444 9.68024C31.2333 6.19559 29.4 4.29706 27.4556 4.29706ZM26.7889 12.5761C26.1333 12.5761 25.7444 12.3238 25.4778 12.0113L25.4667 7.5534C25.7556 7.20494 26.1556 6.96462 26.7889 6.96462C27.8 6.96462 28.5 8.19025 28.5 9.76435C28.5 11.3745 27.8111 12.5761 26.7889 12.5761ZM18.8667 3.58812L21.6556 2.93925V0.5L18.8667 1.13685V3.58812ZM18.8667 4.50134H21.6556V15.0154H18.8667V4.50134ZM15.8778 5.39052L15.7 4.50134H13.3V15.0154H16.0778V7.88985C16.7333 6.96462 17.8444 7.13284 18.1889 7.26502V4.50134C17.8333 4.35714 16.5333 4.09279 15.8778 5.39052ZM10.3222 1.89386L7.61111 2.51869L7.6 12.1435C7.6 13.9219 8.83333 15.2316 10.4778 15.2316C11.3889 15.2316 12.0556 15.0514 12.4222 14.8351V12.3959C12.0667 12.5521 10.3111 13.1048 10.3111 11.3264V7.06075H12.4222V4.50134H10.3111L10.3222 1.89386ZM2.81111 7.5534C2.81111 7.08478 3.16667 6.90454 3.75556 6.90454C4.6 6.90454 5.66667 7.18091 6.51111 7.67356V4.8498C5.58889 4.45327 4.67778 4.29706 3.75556 4.29706C1.5 4.29706 0 5.57076 0 7.6976C0 11.014 4.22222 10.4853 4.22222 11.9152C4.22222 12.468 3.77778 12.6482 3.15556 12.6482C2.23333 12.6482 1.05556 12.2397 0.122222 11.6869V14.5467C1.15556 15.0274 2.2 15.2316 3.15556 15.2316C5.46667 15.2316 7.05556 13.994 7.05556 11.8431C7.04444 8.26235 2.81111 8.8992 2.81111 7.5534Z" fill="#635BFF"/>
</svg>
