<svg width="45" height="46" viewBox="0 0 45 46" fill="none" xmlns="http://www.w3.org/2000/svg">
<path d="M36.0001 4.38281C35.7364 4.75195 35.8243 4.93652 36.7911 6.04394C37.3976 6.75586 37.6876 7.14258 37.6261 7.2041C37.3185 7.51172 25.963 16.2041 25.9103 16.1689C25.8751 16.1514 24.7677 14.8594 23.4581 13.3037C22.1485 11.748 21.006 10.4209 20.9269 10.3594C20.8478 10.2979 20.672 10.2539 20.5226 10.2715C20.338 10.2979 17.8243 12.0469 12.5685 15.8262C8.34093 18.8584 4.8253 21.4072 4.76378 21.4863C4.48253 21.8467 4.75499 22.3828 5.21202 22.3828C5.3878 22.3828 7.48839 20.915 12.92 17.0215C17.0245 14.0684 20.4171 11.6602 20.4523 11.6602C20.4962 11.6602 21.6476 12.9873 23.0187 14.6045C24.671 16.5645 25.5763 17.5664 25.7169 17.6016C25.8663 17.6367 26.0333 17.5928 26.2618 17.4346C26.4376 17.3203 29.2589 15.1582 32.5196 12.6357C35.7804 10.1221 38.4786 8.06543 38.5138 8.08301C38.5401 8.09179 38.9093 8.49609 39.3312 8.97949C40.2364 10.0166 40.3067 10.0781 40.6056 10.0781C41.0978 10.0781 41.1329 9.94629 41.3175 7.30078L41.4933 4.86621L41.3087 4.68164C41.1505 4.51465 40.922 4.48828 39.0411 4.34765C36.211 4.14551 36.1671 4.14551 36.0001 4.38281ZM39.8409 5.56054L40.254 5.61328L40.2452 6.06152C40.2364 6.3164 40.2101 6.87012 40.1749 7.30957L40.1222 8.09179L38.9444 6.74707L37.7667 5.40234L38.5929 5.45508C39.0499 5.49023 39.6036 5.53418 39.8409 5.56054Z" fill="white"/>
<path d="M31.8165 15.1686C30.34 15.6168 29.7423 17.3658 30.6476 18.5875C30.8497 18.8512 30.8585 18.8951 30.7355 19.027C30.129 19.6949 30.0763 21.0221 30.6212 21.7604L30.8321 22.0504L30.5685 22.4723C30.1026 23.2281 30.129 24.2301 30.6388 24.9772L30.8497 25.2936L30.6388 25.5748C30.0939 26.3219 30.0939 27.4117 30.6388 28.1588L30.8497 28.4401L30.6388 28.7565C30.129 29.5035 30.1026 30.5055 30.5685 31.2613L30.8321 31.6832L30.6212 31.9733C30.0763 32.7115 30.129 34.0387 30.7355 34.7067C30.8585 34.8385 30.8497 34.8824 30.6476 35.1461C30.5333 35.3043 30.3927 35.568 30.3312 35.735C30.1202 36.3854 30.2872 37.3961 30.6827 37.818L30.8585 38.0026L30.5685 38.4684C30.3048 38.899 30.2784 38.9957 30.2784 39.6549C30.2784 40.2965 30.3048 40.4196 30.5421 40.8063C30.7091 41.0699 30.9728 41.3336 31.2364 41.5006L31.6671 41.7643L36.9933 41.7906C40.8341 41.8082 42.4249 41.7906 42.6886 41.7115C43.1632 41.5797 43.7521 41.0787 43.9542 40.6305C44.2794 39.9186 44.1124 38.6002 43.6554 38.2223C43.5323 38.1168 43.5499 38.0641 43.796 37.7125C44.0509 37.3522 44.0773 37.2379 44.1124 36.5699C44.1388 35.8844 44.1212 35.8053 43.8663 35.3571L43.5939 34.8737L43.8663 34.3639C44.1124 33.8981 44.13 33.8014 44.1036 33.1334C44.0773 32.4918 44.0509 32.3776 43.796 32.0172C43.5499 31.6656 43.5323 31.6129 43.6554 31.5074C43.9366 31.2789 44.1212 30.7076 44.1212 30.0748C44.1212 29.442 43.9366 28.8707 43.6554 28.6422C43.5323 28.5367 43.5499 28.484 43.796 28.1324C44.0685 27.7457 44.0773 27.693 44.0773 26.8668C44.0773 26.0406 44.0685 25.9879 43.796 25.61C43.5235 25.2233 43.5235 25.2057 43.6817 25.0651C43.9894 24.7838 44.1476 24.2125 44.1036 23.4918C44.0773 22.9293 44.0333 22.7799 43.8048 22.4547L43.5411 22.0768L43.8048 21.6989C44.0157 21.4 44.0773 21.2155 44.1036 20.7584C44.1564 20.0201 44.0773 19.6686 43.8048 19.2555L43.5763 18.9215L43.8487 18.4205C44.086 17.9899 44.1212 17.8317 44.1212 17.278C44.1212 16.5133 43.9191 16.0123 43.4357 15.6168C42.8028 15.0895 42.7501 15.0895 37.1427 15.0983C34.3302 15.0983 31.9396 15.1334 31.8165 15.1686ZM42.4513 16.3639C42.8204 16.5573 42.9786 16.8297 42.9786 17.2955C42.9786 17.7965 42.7501 18.1217 42.2931 18.2535C42.0909 18.3063 40.1837 18.3414 37.1515 18.3414C32.0362 18.3414 31.9835 18.3414 31.6144 17.9196C31.2101 17.4713 31.3858 16.6451 31.9396 16.3727C32.3439 16.1705 42.0646 16.1617 42.4513 16.3639ZM42.6974 19.7477C43.1192 20.1696 43.1105 20.8287 42.6622 21.2506L42.4337 21.4615L37.3009 21.4879C32.8185 21.5055 32.1329 21.4967 31.9044 21.3737C31.3067 21.066 31.2101 20.1871 31.7286 19.7213L31.9923 19.484H37.213H42.4337L42.6974 19.7477ZM42.4425 22.7623C43.1544 23.1227 43.1896 24.2477 42.4864 24.5641C42.3282 24.6432 40.8253 24.6696 37.1339 24.6696H31.9923L31.7286 24.4235C31.2276 23.9752 31.298 23.1578 31.8517 22.8151C32.1066 22.6569 32.3878 22.6481 37.1778 22.6481C41.0187 22.6481 42.2843 22.6744 42.4425 22.7623ZM42.3985 25.9352C42.8028 26.1022 42.9786 26.3922 42.9786 26.8668C42.9786 27.3414 42.8028 27.6315 42.3985 27.7985C41.9415 27.9918 32.3614 27.983 31.9571 27.7897C31.3419 27.4996 31.1925 26.735 31.6407 26.2164C31.7901 26.0494 32.0011 25.8912 32.1066 25.8737C32.212 25.8561 34.506 25.8297 37.2042 25.8209C41.2208 25.8121 42.1612 25.8385 42.3985 25.9352ZM42.5216 29.1871C42.7765 29.319 42.961 29.6002 42.9874 29.899C43.0226 30.3297 42.961 30.5055 42.6798 30.7867L42.381 31.0856H37.2745C32.8712 31.0856 32.1241 31.068 31.9044 30.9537C31.3067 30.6461 31.2101 29.7672 31.7286 29.3014L31.9923 29.0641H37.1427C41.4054 29.0641 42.3282 29.0817 42.5216 29.1871ZM42.6622 32.483C43.1105 32.9049 43.1192 33.5641 42.6974 33.986L42.4337 34.2496H37.213H31.9923L31.7286 34.0035C31.2276 33.5553 31.298 32.7379 31.8517 32.3951C32.1153 32.2369 32.3526 32.2281 37.2833 32.2457L42.4337 32.2721L42.6622 32.483ZM42.2931 35.4801C42.7501 35.6119 42.9786 35.9371 42.9786 36.4381C42.9786 36.9039 42.8204 37.1764 42.4513 37.3697C42.0646 37.5719 32.379 37.5631 31.9571 37.3697C31.1661 36.9918 31.2101 35.8844 32.0362 35.5153C32.3702 35.3658 41.7745 35.3395 42.2931 35.4801ZM42.6271 38.8815C43.128 39.3385 43.1192 40.0153 42.6183 40.4371L42.3458 40.6656H37.2569C31.6671 40.6656 31.7901 40.6744 31.5089 40.1383C31.4386 39.9977 31.3771 39.7692 31.3771 39.6373C31.3771 39.3209 31.6759 38.8375 31.9308 38.7321C32.0362 38.6881 34.4181 38.653 37.2394 38.653L42.3634 38.6442L42.6271 38.8815Z" fill="white"/>
<path d="M16.8398 21.5498C16.0049 21.8398 15.5391 22.5078 15.4863 23.457C15.4424 24.1162 15.5654 24.5557 15.8818 24.9336C16.0928 25.1885 16.0928 25.1973 15.9346 25.4082C15.7852 25.6104 15.7148 25.6279 15.0732 25.6367C13.4385 25.6455 12.085 26.208 10.9336 27.3506C9.94922 28.3174 9.4834 29.2314 9.18457 30.752L9.14062 30.9893L5.81836 31.0156C2.15332 31.042 2.12695 31.0508 1.50293 31.6396C1.08105 32.0439 0.878906 32.5273 0.878906 33.1777C0.878906 33.7666 1.03711 34.2588 1.33594 34.5752C1.50293 34.7598 1.51172 34.7861 1.38867 34.9268C1.30957 35.0146 1.16016 35.2607 1.05469 35.4717C0.896484 35.7969 0.870117 35.9727 0.896484 36.5439C0.922852 37.1416 0.958008 37.2734 1.2041 37.625C1.4502 37.9766 1.46777 38.0293 1.34473 38.1348C1.06348 38.3633 0.878906 38.9346 0.878906 39.5674C0.878906 40.2881 1.06348 40.7451 1.50293 41.167C2.10938 41.7383 1.90723 41.7207 7.7959 41.7207H13.1396L13.5967 41.5098C14.7129 40.9824 15.1084 39.4707 14.4229 38.3633C14.1592 37.9414 14.1592 37.9238 14.3086 37.7217C14.4404 37.5459 14.5283 37.5195 15.0996 37.5195C15.6973 37.5195 15.7412 37.5371 15.9082 37.7656L16.084 38.0205L15.8027 38.4248C15.5479 38.7852 15.5127 38.9082 15.4775 39.5234C15.46 40.1035 15.4863 40.2881 15.6445 40.6221C15.873 41.0967 16.4004 41.5713 16.8662 41.7031C17.1035 41.7822 18.7207 41.8086 22.4648 41.8086H27.7295L28.1689 41.5977C28.6963 41.3516 28.9336 41.1055 29.1709 40.5781C29.5049 39.8574 29.3555 38.7324 28.8545 38.1875C28.7227 38.0469 28.7314 38.0029 28.9424 37.7041C29.2588 37.2471 29.3555 36.9482 29.3555 36.4648C29.3555 35.9199 29.2412 35.5244 28.9512 35.1113C28.7314 34.8037 28.7227 34.7598 28.8545 34.6191C29.4873 33.916 29.4961 32.4746 28.8633 31.7803C28.749 31.6484 28.7666 31.5869 29.0215 31.1826C29.4961 30.4004 29.4521 29.293 28.9248 28.6953L28.6699 28.4141L28.916 28.0977C29.2236 27.7021 29.3555 27.3066 29.3555 26.7441C29.3555 26.2959 29.1182 25.6455 28.8633 25.3643C28.7402 25.2324 28.7578 25.1797 29.0127 24.8193C29.25 24.4766 29.3027 24.3184 29.3379 23.7559C29.373 23.167 29.3555 23.0439 29.1445 22.6045C28.8721 22.0684 28.5205 21.752 27.958 21.5498C27.4131 21.3652 17.376 21.3564 16.8398 21.5498ZM27.6855 22.6924C28.0107 22.8594 28.2129 23.2373 28.2129 23.668C28.2129 24.1162 27.7734 24.5469 27.2373 24.626C27.0264 24.6523 24.6973 24.6699 22.0605 24.6523C17.6572 24.626 17.2529 24.6172 17.042 24.4678C16.7607 24.2832 16.6113 23.9668 16.6113 23.5625C16.6113 23.1582 16.7344 22.9385 17.0771 22.7363C17.3496 22.5693 17.5605 22.5605 22.3945 22.5605C26.7275 22.5605 27.4658 22.5781 27.6855 22.6924ZM27.5098 25.8389C27.8525 25.9619 28.2129 26.4277 28.2129 26.7705C28.2129 27.1045 28.0283 27.4033 27.6943 27.6318L27.3955 27.834H23.6074H19.8193L19.2129 27.2627C18.7998 26.876 18.3516 26.5596 17.8242 26.2959L17.042 25.9092L17.332 25.8213C17.7803 25.6982 27.1318 25.707 27.5098 25.8389ZM16.1016 26.876C17.4463 27.1572 18.7646 28.1768 19.3711 29.416C19.9951 30.6904 20.083 31.8682 19.6436 33.1338C19.3711 33.916 19.002 34.4873 18.3428 35.1025C16.4619 36.8604 13.5615 36.8076 11.7334 34.9883C9.81738 33.0723 9.80859 30.1191 11.7246 28.2295C12.709 27.2539 13.7549 26.8057 15.0469 26.7881C15.3721 26.7793 15.8467 26.8232 16.1016 26.876ZM27.6855 29.1172C28.1689 29.4072 28.3359 29.9697 28.0811 30.4707C27.8174 30.9893 27.7383 30.998 24.2314 30.998H21.0322L20.9707 30.5498C20.9355 30.3037 20.8213 29.8555 20.707 29.5391L20.4961 28.9766H23.9678C27.0264 28.9766 27.4658 28.9941 27.6855 29.1172ZM9.17578 32.334C9.34277 33.1514 9.44824 33.5557 9.58887 33.8721L9.74707 34.25H6.31934C3.42773 34.25 2.83887 34.2324 2.60156 34.1182C2.03906 33.8545 1.8457 33.0898 2.21484 32.624C2.5752 32.1582 2.68945 32.1494 6.03809 32.1406H9.14062L9.17578 32.334ZM27.5098 32.2549C27.8525 32.3779 28.2129 32.8438 28.2129 33.1865C28.2129 33.5205 28.0283 33.8193 27.6943 34.0479C27.3955 34.25 27.3955 34.25 23.9238 34.25C20.6631 34.25 20.4609 34.2412 20.5225 34.0918C20.7598 33.5205 20.9355 32.9316 20.9795 32.5625L21.0322 32.1406L24.1172 32.1494C26.2705 32.1494 27.2988 32.1846 27.5098 32.2549ZM10.8984 35.7969C11.3467 36.2627 12.2783 36.8955 12.7705 37.0713C13.1396 37.2031 13.1836 37.2998 12.9023 37.3701C12.7881 37.3965 10.415 37.4053 7.62012 37.3965L2.53125 37.3701L2.27637 37.0801C2.08301 36.8691 2.02148 36.7109 2.02148 36.4385C2.02148 35.9902 2.13574 35.7793 2.4873 35.5684C2.75098 35.4014 2.96191 35.3926 6.63574 35.3926H10.5117L10.8984 35.7969ZM27.6855 35.5332C28.1689 35.8232 28.3359 36.3857 28.0811 36.8867C27.7998 37.4229 27.9229 37.4141 22.3945 37.4053C19.626 37.4053 17.2881 37.3701 17.2002 37.335C17.0684 37.291 17.2002 37.1943 17.7803 36.9043C18.2725 36.6582 18.7207 36.3506 19.125 35.9727L19.7314 35.4014L23.5811 35.3926C27 35.3926 27.4658 35.4102 27.6855 35.5332ZM13.0957 38.6885C13.5703 38.9346 13.7549 39.5498 13.4912 40.0508C13.21 40.6045 13.4736 40.5781 7.81348 40.5781H2.6543L2.38184 40.3496C1.88086 39.9277 1.87207 39.251 2.37305 38.7939L2.63672 38.5566H7.74316C12.1289 38.5566 12.876 38.5742 13.0957 38.6885ZM27.9141 38.9434C28.1689 39.1982 28.2129 39.3037 28.2129 39.6465C28.2129 39.9629 28.1602 40.1035 27.958 40.332L27.7031 40.6221L22.4561 40.6484L17.209 40.666L16.9102 40.3672C16.6553 40.1123 16.6113 40.0068 16.6113 39.6553C16.6113 39.3037 16.6553 39.1982 16.9102 38.9434L17.209 38.6445H22.4121H27.6152L27.9141 38.9434Z" fill="white"/>
<path d="M14.6427 27.3223C14.5636 27.4277 14.5021 27.6211 14.5021 27.7441C14.5021 27.9199 14.4054 28.0166 14.0626 28.21C13.5353 28.4912 13.131 29.0713 13.0431 29.6426C12.8673 30.8467 13.5704 31.8486 14.7394 32.0684C15.5304 32.209 15.8116 32.3584 15.961 32.7188C16.0665 32.9648 16.0753 33.0967 15.9962 33.334C15.6798 34.2832 14.3351 34.1602 14.1769 33.1758C14.0802 32.543 13.5704 32.2793 13.1837 32.666C12.6915 33.1582 13.3507 34.6611 14.1944 34.9688C14.4581 35.0566 14.5021 35.1094 14.5021 35.3643C14.5021 35.6982 14.8272 36.0938 15.0909 36.0938C15.4161 36.0938 15.6446 35.8389 15.6446 35.4785C15.6446 35.1709 15.671 35.127 16.0401 34.9512C16.8663 34.5557 17.3409 33.5801 17.1564 32.6748C16.9542 31.7344 16.295 31.1367 15.3019 30.9961C15.0206 30.9609 14.7042 30.8818 14.5987 30.8291C14.3878 30.7148 14.1505 30.293 14.1505 30.0293C14.1505 29.5635 14.6515 29.0625 15.1173 29.0625C15.5743 29.0625 16.0841 29.6162 16.0841 30.0996C16.0841 30.3721 16.3214 30.5566 16.6554 30.5566C17.7189 30.5566 17.0772 28.4912 15.8907 28.0781C15.6974 28.0078 15.6446 27.9375 15.6446 27.7266C15.6446 27.2871 15.504 27.1289 15.1173 27.1289C14.8624 27.1289 14.7394 27.1816 14.6427 27.3223Z" fill="white"/>
</svg>
