<svg width="13" height="13" viewBox="0 0 13 13" fill="none" xmlns="http://www.w3.org/2000/svg">
<path d="M3.9241 2.74801L4.41343 2.85075L3.9241 2.74801C3.82541 3.21802 3.87634 3.70488 4.06912 4.14578C4.26173 4.58631 4.58592 4.95842 4.99643 5.21828C5.40669 5.47798 5.88638 5.61513 6.375 5.61513C7.02958 5.61513 7.66243 5.36904 8.13309 4.92315C8.60466 4.4764 8.875 3.86451 8.875 3.22039C8.875 2.74055 8.72466 2.27389 8.44654 1.87955C8.16867 1.48558 7.77664 1.18245 7.32301 1.00444C6.86955 0.826496 6.372 0.780304 5.89223 0.870713C5.41238 0.961137 4.96811 1.18492 4.61691 1.51764C4.26543 1.85062 4.02273 2.27823 3.9241 2.74801ZM4.79053 1.01717C5.25733 0.721683 5.80879 0.5625 6.375 0.5625C7.13491 0.5625 7.85861 0.848737 8.38815 1.3504C8.91677 1.8512 9.20833 2.52447 9.20833 3.22039C9.20833 3.73986 9.04588 4.25008 8.73797 4.68664C8.4298 5.12358 7.98888 5.46805 7.46796 5.67246C6.94689 5.87694 6.37209 5.93081 5.81729 5.82626C5.26258 5.72173 4.75653 5.4643 4.36185 5.09039C3.96746 4.71675 3.7022 4.24407 3.59505 3.73373C3.48794 3.22363 3.54263 2.69457 3.75353 2.21222C3.96458 1.7295 4.32398 1.31251 4.79053 1.01717ZM11.875 11.4309V11.5625H11.5417V11.4309C11.5417 10.4518 11.1309 9.51862 10.4092 8.83498C9.68852 8.1522 8.71654 7.77303 7.70833 7.77303H5.04167C4.03346 7.77303 3.06148 8.1522 2.34077 8.83498C1.61915 9.51862 1.20833 10.4518 1.20833 11.4309V11.5625H0.875V11.4309C0.875 10.4 1.30704 9.40543 2.08571 8.66774C2.86529 7.92919 3.92814 7.50987 5.04167 7.50987H7.70833C8.82186 7.50987 9.88471 7.92919 10.6643 8.66774C11.443 9.40543 11.875 10.4 11.875 11.4309Z" fill="#092C4C" stroke="#5B6670"/>
</svg>
