<svg width="32" height="32" viewBox="0 0 32 32" fill="none" xmlns="http://www.w3.org/2000/svg">
<g id="image 16 (traced)" clip-path="url(#clip0_5201_173449)">
<g id="Red">
<path id="Vector" d="M25.0625 0.12422C25.8937 0.34297 26.5187 0.69922 27.1312 1.30547C27.725 1.89922 28.0437 2.40547 28.3 3.17422C28.4437 3.59922 28.4625 3.75547 28.4625 4.49922C28.4562 5.23047 28.4375 5.40547 28.3 5.82422C28.0562 6.56797 27.725 7.09922 27.1625 7.66172C26.6 8.22422 26.075 8.54922 25.325 8.80547L24.8437 8.96797L19.125 9.00547C15.9812 9.03047 13.2937 9.07422 13.1625 9.09922L12.9187 9.15547L17.7875 12.143C20.4625 13.793 22.7312 15.218 22.8312 15.318C22.925 15.418 23.0375 15.6305 23.075 15.7867L23.1562 16.0742L23.9687 16.0305C25.4937 15.9555 26.525 15.7117 27.6 15.168C29.8812 14.018 31.4687 11.8617 31.9062 9.34922C32.025 8.64297 32.025 7.29922 31.9062 6.59922C31.7 5.43672 31.2062 4.25547 30.525 3.30547C30.1062 2.73047 29.1937 1.82422 28.6187 1.41797C27.7187 0.78047 26.5187 0.286719 25.4 0.0929699C24.6625 -0.0382805 24.4937 -0.0195293 25.0625 0.12422Z" fill="#FF0000"/>
<path id="Vector_2" d="M10.0938 9.83798C8.2375 10.5005 6.76875 11.338 5.25 12.613C3.5875 14.0005 2.13125 15.9755 1.25625 18.013C0.41875 19.963 0 21.988 0 24.1005C0 26.2192 0.78125 28.1005 2.3 29.6442C3.21875 30.5692 4.2375 31.2067 5.46875 31.6192C6.65 32.013 6.30625 32.0005 15.525 31.9942C20.3313 31.988 23.6438 31.963 23.2938 31.9317C19.4875 31.6192 16.4 28.5255 16.0688 24.6942C15.9625 23.4192 16.175 22.0255 16.6562 20.9255C16.7688 20.6567 16.8563 20.438 16.85 20.438C16.8375 20.438 15.8313 21.0505 14.6062 21.8067C13.3813 22.5567 12.2937 23.188 12.1813 23.213C11.9375 23.263 11.5688 23.1692 11.3625 23.0005C10.9812 22.7067 11 23.063 11 16.0067C11 10.8942 10.9812 9.56298 10.925 9.56923C10.8813 9.56923 10.5063 9.68798 10.0938 9.83798Z" fill="#FF0000"/>
<path id="Vector_3" d="M31.95 24.4766C31.925 25.3579 31.6375 26.4579 31.1937 27.4079C30.0187 29.9204 27.4937 31.6891 24.75 31.9329C24.275 31.9766 24.225 31.9891 24.5062 31.9954C25.2875 32.0141 26.675 31.6516 27.5625 31.2079C28.6687 30.6454 29.8187 29.6704 30.5187 28.7016C31.4125 27.4641 32.0562 25.5954 31.9812 24.4579L31.9625 24.0954L31.95 24.4766Z" fill="#EC1515"/>
</g>
<g id="Red_2">
<path id="Vector_4" d="M31.8875 9.42333C31.5187 11.7983 29.8437 14.0358 27.6 15.1671C26.5187 15.7108 25.475 15.9546 23.925 16.0358L23.1312 16.0733L23.0937 16.2608C23.0687 16.3608 22.9687 16.5358 22.875 16.6421C22.775 16.7546 21.3875 17.6421 19.7875 18.6233L16.8812 20.4046L16.6562 20.9358C14.7625 25.3858 17.3375 30.5171 22.0687 31.7233C26.1187 32.7483 30.2812 30.4233 31.5937 26.4046C31.9687 25.2483 31.9562 25.5733 31.9812 17.5296C31.9937 13.4733 32 9.87333 31.9875 9.52958L31.9687 8.90458L31.8875 9.42333Z" fill="#D5002C"/>
</g>
<g id="Red_3">
<path id="Vector_5" d="M6.57506 0.0960333C6.06881 0.189783 5.22506 0.433533 5.26256 0.477283C5.28131 0.489783 5.40631 0.464783 5.54381 0.414783C5.96881 0.264783 6.72506 0.114783 7.32506 0.0647833C7.89381 0.0210333 7.90006 0.0210333 7.46881 0.0147833C7.23131 0.0147833 6.82506 0.0522833 6.57506 0.0960333Z" fill="#EC4040"/>
<path id="Vector_6" d="M24.1751 0.0453125C24.2501 0.0578125 24.3751 0.0578125 24.4563 0.0453125C24.5313 0.0328125 24.4688 0.0203125 24.3126 0.0203125C24.1563 0.0203125 24.0938 0.0328125 24.1751 0.0453125Z" fill="#EC4040"/>
<path id="Vector_7" d="M4.50007 0.769641C3.40632 1.31964 2.20007 2.30714 1.62507 3.13214C1.54382 3.25089 1.45632 3.35714 1.43757 3.37589C1.41257 3.39464 1.31882 3.54464 1.22507 3.71964C1.13132 3.88839 1.09382 3.97589 1.13757 3.91339C2.15007 2.44464 3.02507 1.62589 4.31257 0.944641C4.90007 0.632141 5.04382 0.500891 4.50007 0.769641Z" fill="#EC4040"/>
<path id="Vector_8" d="M28.4501 4.1909C28.4501 4.30965 28.4626 4.35965 28.4813 4.29715C28.4938 4.2409 28.4938 4.1409 28.4813 4.0784C28.4626 4.02215 28.4501 4.07215 28.4501 4.1909Z" fill="#EC4040"/>
<path id="Vector_9" d="M0.925069 4.20093C0.787569 4.45093 0.625069 4.83218 0.643819 4.85093C0.656319 4.86343 0.750069 4.68843 0.862569 4.46968C1.05007 4.08843 1.09382 3.90093 0.925069 4.20093Z" fill="#EC4040"/>
<path id="Vector_10" d="M28.4501 4.8159C28.4501 4.93465 28.4626 4.98465 28.4813 4.92215C28.4938 4.8659 28.4938 4.7659 28.4813 4.7034C28.4626 4.64715 28.4501 4.69715 28.4501 4.8159Z" fill="#EC4040"/>
<path id="Vector_11" d="M0.381294 5.44473C0.343794 5.55723 0.312544 5.67598 0.318794 5.71348C0.318794 5.75098 0.362544 5.66973 0.412544 5.53848C0.462544 5.40098 0.487544 5.28223 0.475044 5.26973C0.462544 5.25723 0.418794 5.33223 0.381294 5.44473Z" fill="#EC4040"/>
<path id="Vector_12" d="M0.156293 6.2718C0.100043 6.5343 0.0625434 6.8093 0.0812934 6.89055C0.106293 7.0093 0.112543 7.00305 0.118793 6.8468C0.125043 6.74055 0.168793 6.47805 0.218793 6.2593C0.275043 6.04055 0.300043 5.8468 0.287543 5.8343C0.275043 5.81555 0.212543 6.01555 0.156293 6.2718Z" fill="#EC4040"/>
<path id="Vector_13" d="M0.0187988 7.47085C0.0187988 7.70835 0.0312988 7.8021 0.0437988 7.67085C0.0562988 7.54585 0.0562988 7.34585 0.0437988 7.23335C0.0312988 7.1271 0.0187988 7.2271 0.0187988 7.47085Z" fill="#EC4040"/>
<path id="Vector_14" d="M24.175 8.98281C24.25 8.99531 24.3625 8.99531 24.425 8.98281C24.4812 8.96406 24.4187 8.95156 24.2812 8.95781C24.1437 8.95781 24.0937 8.97031 24.175 8.98281Z" fill="#EC4040"/>
</g>
<g id="Red_4">
<path id="Vector_15" d="M7.325 0.0636482C3.76875 0.363649 0.868751 2.98865 0.150001 6.56365C0.0500012 7.0449 0.0375012 7.82615 0.0250012 14.9074C0.0187512 19.5636 0.0375012 22.5324 0.0687512 22.2511C0.193751 21.1699 0.518751 19.8199 0.918751 18.7511C2.4875 14.5324 6 11.1449 10.2438 9.75115C10.8875 9.53865 10.975 9.4949 11.1188 9.2824C11.3813 8.8949 11.5813 8.7824 11.9938 8.7824C12.2875 8.7824 12.4063 8.8199 12.625 8.96365C12.8125 9.08865 12.925 9.12615 13.025 9.08865C13.0938 9.06365 15.7438 9.02615 18.9062 9.00115C25.225 8.9574 24.9562 8.9699 25.8562 8.56365C27.0625 8.01365 28.0437 6.8199 28.35 5.5324C28.4812 4.9699 28.4812 4.0324 28.35 3.4699C28.05 2.21365 27.1375 1.0699 25.9687 0.501148C24.95 0.00739861 25.6625 0.0386486 16.2812 0.0261478C11.675 0.0198994 7.64375 0.0386486 7.325 0.0636482Z" fill="#FF5A51"/>
</g>
<g id="LightGray">
<path id="Vector_16" d="M11.5875 8.9C11.4812 8.95 11.3125 9.09375 11.2125 9.225L11.0312 9.45625L11.0125 15.9L11 22.3438L11.1375 22.6187C11.3437 23.0187 11.5562 23.1562 11.9875 23.1562H12.3437L17.4687 20.0062C20.2875 18.2687 22.6812 16.7625 22.7937 16.6562C23.1437 16.3063 23.1437 15.6937 22.7937 15.3438C22.6812 15.2375 20.2875 13.7312 17.475 12C11.9375 8.6 12.0812 8.675 11.5875 8.9Z" fill="white"/>
</g>
</g>
<defs>
<clipPath id="clip0_5201_173449">
<rect width="32" height="32" fill="white"/>
</clipPath>
</defs>
</svg>
