<svg width="87" height="33" viewBox="0 0 87 33" fill="none" xmlns="http://www.w3.org/2000/svg">
<rect opacity="0.66" x="0.514648" y="15.9141" width="2" height="2" rx="1" fill="#FF9F43"/>
<rect opacity="0.66" x="6.51465" y="12.9141" width="2" height="8" rx="1" fill="#FF9F43"/>
<rect opacity="0.66" x="12.5146" y="9.91406" width="2" height="14" rx="1" fill="#FF9F43"/>
<rect opacity="0.66" x="18.5146" y="14.9141" width="2" height="4" rx="1" fill="#FF9F43"/>
<rect opacity="0.66" x="24.5146" y="8.91406" width="2" height="16" rx="1" fill="#FF9F43"/>
<rect opacity="0.66" x="30.5146" y="9.91406" width="2" height="14" rx="1" fill="#FF9F43"/>
<rect opacity="0.66" x="36.5146" y="11.9141" width="2" height="10" rx="1" fill="#5B6670"/>
<rect opacity="0.66" x="42.5146" y="11.9141" width="2" height="10" rx="1" fill="#5B6670"/>
<rect opacity="0.66" x="48.5146" y="11.9141" width="2" height="10" rx="1" fill="#5B6670"/>
<rect opacity="0.66" x="54.5146" y="9.91406" width="2" height="14" rx="1" fill="#5B6670"/>
<rect opacity="0.66" x="60.5146" y="11.9141" width="2" height="10" rx="1" fill="#5B6670"/>
<rect opacity="0.66" x="66.5146" y="8.91406" width="2" height="16" rx="1" fill="#5B6670"/>
<rect opacity="0.66" x="72.5146" y="11.9141" width="2" height="10" rx="1" fill="#5B6670"/>
<rect opacity="0.66" x="78.5146" y="14.9141" width="2" height="4" rx="1" fill="#5B6670"/>
<rect opacity="0.66" x="84.5146" y="15.9141" width="2" height="2" rx="1" fill="#5B6670"/>
</svg>
