<svg width="32" height="32" viewBox="0 0 32 32" fill="none" xmlns="http://www.w3.org/2000/svg">
<g id="image 13 (traced)" clip-path="url(#clip0_5201_173497)">
<g id="Teal">
<path id="Vector" d="M7.16253 0.0998783C5.98753 0.381128 4.94378 1.25613 4.40003 2.40613C3.97503 3.30613 4.00003 2.51238 4.00003 15.9999C4.00003 29.4936 3.97503 28.6749 4.40003 29.5936C4.81878 30.4874 5.47503 31.1624 6.34378 31.5936C7.21253 32.0186 6.69378 31.9999 16 31.9999C25.2938 31.9999 24.7813 32.0186 25.6563 31.5936C26.8125 31.0311 27.6438 29.9436 27.9063 28.6499C27.9938 28.2124 28 27.1311 27.9875 18.7811L27.9688 9.40613L23.425 9.38738L18.875 9.37488V4.68738V-0.00012207L13.2063 0.00612831C8.50003 0.0123768 7.46878 0.0248775 7.16253 0.0998783ZM21.4375 17.4436C22.25 17.5749 22.875 17.9874 23.1625 18.5936L23.3125 18.9061L22.925 19.0811C22.7125 19.1811 22.4 19.3124 22.2375 19.3811L21.9375 19.4999L21.85 19.2936C21.6813 18.8811 21.175 18.6124 20.7688 18.7186C20.5188 18.7811 20.4375 18.8686 20.4375 19.0686C20.4375 19.3061 20.5938 19.3999 21.2813 19.5624C22.0938 19.7499 22.7 20.0624 22.9375 20.3999C23.125 20.6749 23.3125 21.2561 23.3125 21.5624C23.3125 22.1999 22.8438 22.8561 22.1688 23.1624C21.8125 23.3249 21.7188 23.3436 21.0625 23.3436C20.4125 23.3436 20.3125 23.3249 19.9875 23.1749C19.325 22.8686 18.8063 22.2374 18.7375 21.6624C18.7188 21.4874 18.7313 21.4811 19.3125 21.3061C20.0063 21.0999 20.0625 21.0936 20.0625 21.2249C20.0625 21.3811 20.3063 21.7686 20.4875 21.9061C20.5938 21.9874 20.7813 22.0374 21.0313 22.0499C21.3438 22.0686 21.4375 22.0499 21.5813 21.9374C21.6875 21.8499 21.75 21.7436 21.75 21.6374C21.75 21.3624 21.5188 21.1999 20.8438 20.9874C20.2125 20.7936 19.7375 20.5811 19.4188 20.3624C19.0313 20.0874 18.7875 19.2499 18.9313 18.7061C19.0875 18.1311 19.7063 17.6186 20.4375 17.4624C20.8813 17.3624 20.95 17.3624 21.4375 17.4436ZM10.95 18.1561C11.1688 18.5186 11.3563 18.8124 11.375 18.8124C11.3938 18.8061 11.575 18.5124 11.7813 18.1561L12.1563 17.4999H12.9563C13.3938 17.4999 13.75 17.5124 13.75 17.5311C13.75 17.5561 13.4 18.1624 12.9625 18.8874L12.1813 20.1999L13.0688 21.7124C13.5563 22.5374 13.9688 23.2374 13.9813 23.2624C13.9938 23.2936 13.65 23.3124 13.2063 23.3124H12.4063L11.9063 22.4686C11.6375 22.0061 11.3938 21.6249 11.3688 21.6249C11.3438 21.6249 11.1 22.0061 10.8313 22.4686L10.3438 23.3124H9.55003C9.10628 23.3124 8.75003 23.2936 8.75003 23.2749C8.75003 23.2561 9.15628 22.5561 9.65628 21.7186L10.5563 20.1874L9.75003 18.8436L8.94378 17.4999H9.75003H10.5563L10.95 18.1561ZM16.0625 19.7499V21.9999H17.3125H18.5625V22.6561V23.3124H16.5313H14.5V20.4061V17.4999H15.2813H16.0625V19.7499Z" fill="#00733B"/>
<path id="Vector_2" d="M18.9375 0.01875C18.9375 0.03125 19.0312 0.11875 19.1437 0.225L19.3438 0.40625L19.1625 0.2C18.9875 0.0125 18.9375 -0.03125 18.9375 0.01875Z" fill="#00733B"/>
</g>
<g id="Gray">
<path id="Vector_3" d="M18.875 4.66875V9.375H23.35H27.825L27.5875 9.10625C27.4563 8.9625 26.1375 7.575 24.6562 6.03125C23.175 4.48125 21.6688 2.89375 21.3063 2.5C20.95 2.10625 20.2563 1.375 19.7688 0.875L18.875 -0.03125V4.66875Z" fill="#4D9D76"/>
<path id="Vector_4" d="M16.0312 19.75C16.0312 21.0063 16.0375 21.5188 16.0438 20.8938C16.0563 20.2625 16.0563 19.2375 16.0438 18.6125C16.0375 17.9813 16.0312 18.4938 16.0312 19.75Z" fill="#4D9D76"/>
<path id="Vector_5" d="M23.2625 21.562C23.2625 21.6807 23.275 21.7307 23.2937 21.6682C23.3062 21.612 23.3062 21.512 23.2937 21.4495C23.275 21.3932 23.2625 21.4432 23.2625 21.562Z" fill="#4D9D76"/>
</g>
<g id="LightGray">
<path id="Vector_6" d="M22.5625 3.78125C22.75 3.96875 22.9187 4.125 22.9312 4.125C22.95 4.125 22.8125 3.96875 22.625 3.78125C22.4375 3.59375 22.2687 3.4375 22.2562 3.4375C22.2375 3.4375 22.375 3.59375 22.5625 3.78125Z" fill="white"/>
<path id="Vector_7" d="M24.1563 5.4375C24.5001 5.78125 24.7938 6.0625 24.8126 6.0625C24.8251 6.0625 24.5626 5.78125 24.2188 5.4375C23.8751 5.09375 23.5813 4.8125 23.5626 4.8125C23.5501 4.8125 23.8126 5.09375 24.1563 5.4375Z" fill="white"/>
<path id="Vector_8" d="M26.3687 7.75216C27.2062 8.62716 27.925 9.35841 27.9625 9.37091C28.0312 9.39591 25.5875 6.84591 25.1187 6.40841C24.975 6.27091 25.5375 6.87716 26.3687 7.75216Z" fill="white"/>
<path id="Vector_9" d="M20.325 17.5391C19.875 17.6578 19.6563 17.7828 19.35 18.0891C19.025 18.4078 18.9063 18.7828 18.9563 19.3141C19.025 20.1266 19.5688 20.6016 20.7625 20.9141C21.4375 21.0828 21.8125 21.3453 21.8125 21.6391C21.8125 21.6953 21.75 21.8203 21.6688 21.9141C21.4813 22.1328 20.9438 22.1953 20.6375 22.0391C20.375 21.9016 20.1375 21.6391 20.0563 21.3953C20.0188 21.2828 19.9625 21.1891 19.925 21.1891C19.8563 21.1891 18.7938 21.5016 18.7625 21.5328C18.75 21.5453 18.7813 21.7078 18.8375 21.8953C19.0313 22.5641 19.8 23.1766 20.6063 23.3078C20.8375 23.3453 21.15 23.3453 21.4313 23.3078C22.7688 23.1453 23.5063 22.1453 23.1563 20.9641C22.9438 20.2516 22.45 19.8953 21.2438 19.5953C20.5125 19.4141 20.3625 19.3141 20.3875 19.0391C20.4125 18.7766 20.7625 18.5953 21.1313 18.6578C21.425 18.7078 21.7625 18.9766 21.875 19.2516C21.9188 19.3516 21.9625 19.4391 21.9688 19.4391C21.9938 19.4391 23.2188 18.9266 23.2375 18.9078C23.2938 18.8578 23.0375 18.4078 22.8125 18.1641C22.2563 17.5641 21.2125 17.2953 20.325 17.5391Z" fill="white"/>
<path id="Vector_10" d="M9.07503 17.6391C9.48753 18.2891 10.5625 20.1328 10.5625 20.1953C10.5625 20.2391 10.1813 20.9203 9.70628 21.7141C9.23753 22.5078 8.84378 23.1766 8.83128 23.2016C8.81878 23.2328 9.14378 23.2516 9.55628 23.2516H10.3063L10.8375 22.3641L11.3688 21.4828L11.4938 21.6953C11.5625 21.8141 11.8 22.2016 12.0188 22.5641L12.4125 23.2203L13.175 23.2391L13.9438 23.2578L13.85 23.1141C13.8 23.0328 13.45 22.4328 13.0625 21.7828C12.675 21.1266 12.3063 20.5078 12.2438 20.4016L12.125 20.2078L12.9313 18.8516L13.7438 17.5016H12.975H12.2125L11.8125 18.1891C11.5938 18.5703 11.3875 18.8703 11.3625 18.8641C11.3313 18.8516 11.1375 18.5516 10.9188 18.1891L10.525 17.5328L9.75628 17.5141L8.98128 17.4953L9.07503 17.6391Z" fill="white"/>
<path id="Vector_11" d="M14.5625 20.375V23.25H16.5312H18.5V22.6562V22.0625H17.25H16V19.7812V17.5H15.2812H14.5625V20.375Z" fill="white"/>
</g>
</g>
<defs>
<clipPath id="clip0_5201_173497">
<rect width="32" height="32" fill="white"/>
</clipPath>
</defs>
</svg>
