<svg width="32" height="32" viewBox="0 0 32 32" fill="none" xmlns="http://www.w3.org/2000/svg">
<path d="M7.09378 0.11875C5.88128 0.46875 4.93753 1.2625 4.40628 2.3875C3.97503 3.2875 4.00003 2.51875 4.00003 16.0062C4.00003 26.825 4.01253 28.25 4.10003 28.675C4.39378 30.1313 5.42503 31.3 6.87503 31.825L7.28128 31.9688H16H24.7188L25.125 31.825C26.3938 31.3625 27.3625 30.375 27.8 29.0938L27.9688 28.5938L27.9875 18.9812L28 9.375H23.4375H18.875V4.6875V0L13.175 0.00625038C7.96253 0.00625038 7.43753 0.0187492 7.09378 0.11875ZM12.4375 3.0625V3.875H13.25C14.1188 3.875 14.3188 3.925 14.4313 4.16875C14.5188 4.3625 14.5188 5.2625 14.4313 5.45625C14.3188 5.7 14.1188 5.75 13.25 5.75H12.4375V6.59375V7.4375H13.25C14.1188 7.4375 14.3188 7.4875 14.4313 7.73125C14.5188 7.925 14.5188 8.825 14.4313 9.01875C14.3188 9.2625 14.1188 9.3125 13.25 9.3125H12.4375V10.1562V11H13.25C14.1188 11 14.3188 11.05 14.4313 11.2937C14.5188 11.4875 14.5188 12.3875 14.4313 12.5812C14.3125 12.8438 14.1375 12.875 12.8125 12.875C11.5875 12.875 11.5688 12.875 11.3938 12.725C11.225 12.575 11.2188 12.5562 11.2 11.8188L11.175 11.0625H10.325C9.53753 11.0625 9.46878 11.05 9.33128 10.925C9.20003 10.8 9.18753 10.7375 9.18753 10.1625C9.18753 9.60625 9.20003 9.525 9.32503 9.39375C9.45003 9.25625 9.50003 9.25 10.325 9.25H11.1875V8.375V7.5H10.3188C9.45003 7.5 9.44378 7.5 9.31878 7.3375C9.20628 7.19375 9.18753 7.08125 9.18753 6.575C9.18753 6.04375 9.20628 5.9625 9.32503 5.83125C9.45003 5.69375 9.50003 5.6875 10.325 5.6875H11.1875V4.8125V3.9375H10.3188C9.45003 3.9375 9.44378 3.9375 9.31878 3.775C9.20628 3.63125 9.18753 3.51875 9.18753 2.93125V2.25H10.8125H12.4375V3.0625ZM12.7313 14.1375C12.8688 14.2687 12.875 14.3 12.875 15.4375V16.6L13.25 17.7188C13.5 18.4625 13.625 18.9375 13.625 19.1375C13.625 19.6 13.4188 20.0687 13.0688 20.3938C12.6563 20.7812 12.3813 20.8938 11.8375 20.9C11.25 20.9062 10.7688 20.675 10.4313 20.225C9.93753 19.5687 9.93753 19.15 10.4375 17.6562L10.8125 16.5375V15.3937C10.8125 13.9312 10.7625 14 11.825 14C12.5188 14 12.6 14.0125 12.7313 14.1375Z" fill="#FFB11F"/>
<path d="M11.0625 18.6482C10.9375 19.0607 10.925 19.1544 10.9938 19.3669C11.1375 19.8669 11.65 20.0982 12.1625 19.9044C12.6688 19.7107 12.8125 19.2232 12.5688 18.5294L12.4563 18.2169L11.8375 18.1982L11.2125 18.1794L11.0625 18.6482Z" fill="#FFB11F"/>
<path d="M18.9375 4.73125V9.375H23.4187H27.9L27.275 8.73125C26.2187 7.65 22.7625 4.025 21.775 2.96875C21.2625 2.41875 20.4125 1.54375 19.8937 1.025L18.9375 0.0874996V4.73125Z" fill="#FFC963"/>
<path d="M9.7687 2.29531C10.0687 2.30781 10.5562 2.30781 10.8625 2.29531C11.1625 2.28906 10.9125 2.27656 10.3125 2.27656C9.71245 2.27656 9.46245 2.28906 9.7687 2.29531Z" fill="#FFC963"/>
<path d="M12.8312 3.92031C13.0624 3.93281 13.4374 3.93281 13.6749 3.92031C13.9062 3.90781 13.7124 3.90156 13.2499 3.90156C12.7874 3.90156 12.5937 3.90781 12.8312 3.92031Z" fill="#FFC963"/>
<path d="M12.8312 5.73281C13.0624 5.74531 13.4374 5.74531 13.6749 5.73281C13.9062 5.72031 13.7124 5.71406 13.2499 5.71406C12.7874 5.71406 12.5937 5.72031 12.8312 5.73281Z" fill="#FFC963"/>
<path d="M12.8312 9.29531C13.0624 9.30781 13.4374 9.30781 13.6749 9.29531C13.9062 9.28281 13.7124 9.27656 13.2499 9.27656C12.7874 9.27656 12.5937 9.28281 12.8312 9.29531Z" fill="#FFC963"/>
<path d="M12.8312 11.0453C13.0624 11.0578 13.4312 11.0578 13.6437 11.0453C13.8562 11.0328 13.6687 11.0266 13.2187 11.0266C12.7749 11.0266 12.5999 11.0328 12.8312 11.0453Z" fill="#FFC963"/>
<path d="M12.2687 12.8578C12.6062 12.8703 13.1375 12.8703 13.4562 12.8578C13.775 12.8516 13.5 12.8391 12.8437 12.8391C12.1937 12.8391 11.9312 12.8516 12.2687 12.8578Z" fill="#FFC963"/>
<path d="M9.24996 2.9875C9.24996 3.9 9.21871 3.875 10.3625 3.875H11.25V4.8125V5.75H10.3562C9.22496 5.75 9.24996 5.73125 9.24996 6.60625C9.24996 7.44375 9.22496 7.43125 10.3437 7.45L11.2187 7.46875L11.2375 8.3875L11.2562 9.3125H10.3562C9.22496 9.3125 9.24996 9.29375 9.24996 10.1688C9.24996 11.0187 9.22496 11 10.3625 11H11.25V11.75C11.25 12.4688 11.2562 12.5125 11.4062 12.6562C11.5562 12.8125 11.5625 12.8125 12.8625 12.8125C14.1437 12.8125 14.1687 12.8125 14.3 12.6688C14.4187 12.5375 14.4375 12.45 14.4375 11.9312C14.4375 11.3875 14.425 11.325 14.2937 11.2C14.1562 11.075 14.0875 11.0625 13.2625 11.0625H12.375V10.1562V9.25H13.2687C14.125 9.25 14.1687 9.24375 14.3 9.10625C14.4187 8.975 14.4375 8.8875 14.4375 8.36875C14.4375 7.825 14.425 7.7625 14.2937 7.6375C14.1562 7.5125 14.0875 7.5 13.2625 7.5H12.375V6.59375V5.6875H13.2687C14.125 5.6875 14.1687 5.68125 14.3 5.54375C14.4187 5.4125 14.4375 5.325 14.4375 4.80625C14.4375 3.9375 14.4375 3.9375 13.2812 3.9375H12.375V3.125V2.3125H10.8125H9.24996V2.9875Z" fill="white"/>
<path d="M22.5625 3.78125C22.75 3.96875 22.9187 4.125 22.9312 4.125C22.95 4.125 22.8125 3.96875 22.625 3.78125C22.4375 3.59375 22.2687 3.4375 22.2562 3.4375C22.2375 3.4375 22.375 3.59375 22.5625 3.78125Z" fill="white"/>
<path d="M24.25 5.53125C24.575 5.85625 24.8562 6.125 24.875 6.125C24.8875 6.125 24.6375 5.85625 24.3125 5.53125C23.9875 5.20625 23.7062 4.9375 23.6875 4.9375C23.675 4.9375 23.925 5.20625 24.25 5.53125Z" fill="white"/>
<path d="M26.4062 7.78328C27.2312 8.63953 27.9312 9.35828 27.9687 9.37078C28.0437 9.40203 25.8125 7.07703 25.275 6.56453C25.075 6.37703 25.5875 6.92078 26.4062 7.78328Z" fill="white"/>
<path d="M10.9624 14.1511C10.8562 14.2323 10.8437 14.3511 10.8062 15.5761L10.7749 16.9073L10.4374 17.8136C10.0687 18.8198 10.0124 19.3073 10.2124 19.7698C10.8062 21.1823 12.7687 21.2261 13.4124 19.8448C13.6624 19.3136 13.6249 18.9386 13.1874 17.6761L12.8124 16.6011V15.4323C12.8124 13.9823 12.8749 14.0636 11.8374 14.0636C11.2874 14.0636 11.0562 14.0886 10.9624 14.1511ZM12.6187 18.5323C12.7749 18.9511 12.7874 19.2511 12.6499 19.5448C12.2999 20.2698 11.1437 20.1448 10.9312 19.3573C10.8812 19.1573 10.8937 19.0323 11.0062 18.6511L11.1437 18.1886H11.8187H12.4937L12.6187 18.5323Z" fill="white"/>
</svg>
