<?xml version="1.0" encoding="utf-8"?>
<!-- Generator: Adobe Illustrator 15.0.0, SVG Export Plug-In . SVG Version: 6.00 Build 0)  -->
<!DOCTYPE svg PUBLIC "-//W3C//DTD SVG 1.1//EN" "http://www.w3.org/Graphics/SVG/1.1/DTD/svg11.dtd">
<svg version="1.1" id="Layer_1" xmlns="http://www.w3.org/2000/svg" xmlns:xlink="http://www.w3.org/1999/xlink" x="0px" y="0px"
	 width="162px" height="35px" viewBox="0 0 162 35" enable-background="new 0 0 162 35" xml:space="preserve">
<rect x="-0.114" y="-1.25" fill="#CCCCCC" width="162.705" height="36"/>
<g>
	<path fill="#FFFFFF" d="M45.092,18.541v-5.083h0.992v5.083H45.092z"/>
	<path fill="#FFFFFF" d="M47.016,18.541v-5.083h1.485l0.894,3.468l0.881-3.468h1.488v5.083h-0.921V14.54l-0.975,4.001h-0.956
		l-0.974-4.001v4.001H47.016z"/>
	<path fill="#FFFFFF" d="M57.182,18.541h-1.08l-0.429-1.154h-1.965l-0.406,1.154H52.25l1.914-5.083h1.049L57.182,18.541z
		 M55.355,16.531l-0.678-1.887l-0.665,1.887H55.355z"/>
	<path fill="#FFFFFF" d="M59.994,16.673v-0.856h2.14v2.023c-0.208,0.208-0.509,0.393-0.905,0.55
		c-0.394,0.16-0.793,0.237-1.198,0.237c-0.514,0-0.962-0.11-1.344-0.334c-0.383-0.223-0.67-0.541-0.862-0.957
		c-0.193-0.413-0.288-0.866-0.288-1.353c0-0.53,0.106-1,0.321-1.412c0.214-0.411,0.528-0.727,0.942-0.946
		c0.315-0.17,0.707-0.254,1.178-0.254c0.61,0,1.086,0.133,1.428,0.398c0.344,0.264,0.564,0.63,0.663,1.097l-0.986,0.191
		c-0.068-0.251-0.199-0.448-0.391-0.592c-0.19-0.145-0.431-0.216-0.715-0.216c-0.434,0-0.779,0.142-1.036,0.426
		c-0.255,0.285-0.383,0.706-0.383,1.265c0,0.604,0.129,1.055,0.388,1.357c0.26,0.302,0.601,0.454,1.021,0.454
		c0.207,0,0.416-0.044,0.625-0.128s0.389-0.187,0.538-0.307v-0.645H59.994z"/>
	<path fill="#FFFFFF" d="M63.048,18.541v-5.083h3.645v0.859h-2.653v1.127h2.468v0.857h-2.468v1.383h2.747v0.856H63.048z"/>
	<path fill="#FFFFFF" d="M69.537,18.541v-5.083h1.592c0.604,0,0.997,0.026,1.179,0.076c0.283,0.077,0.518,0.242,0.708,0.498
		c0.191,0.255,0.286,0.585,0.286,0.99c0,0.312-0.056,0.574-0.165,0.786c-0.11,0.213-0.249,0.38-0.418,0.501
		c-0.169,0.122-0.34,0.202-0.514,0.24c-0.236,0.05-0.579,0.074-1.028,0.074h-0.648v1.917H69.537z M70.528,14.318v1.443h0.543
		c0.392,0,0.652-0.027,0.785-0.079c0.132-0.054,0.237-0.137,0.31-0.25c0.076-0.114,0.113-0.245,0.113-0.396
		c0-0.185-0.053-0.337-0.158-0.457c-0.106-0.121-0.237-0.195-0.399-0.225c-0.117-0.023-0.355-0.036-0.713-0.036H70.528z"/>
	<path fill="#FFFFFF" d="M74.143,18.541V13.5h0.993v4.185h2.467v0.856H74.143z"/>
	<path fill="#FFFFFF" d="M82.74,18.541h-1.078l-0.429-1.154h-1.966l-0.405,1.154H77.81l1.914-5.083h1.05L82.74,18.541z
		 M80.915,16.531l-0.675-1.887l-0.665,1.887H80.915z"/>
	<path fill="#FFFFFF" d="M86.413,16.673l0.962,0.315c-0.147,0.556-0.394,0.966-0.736,1.236c-0.342,0.27-0.776,0.402-1.305,0.402
		c-0.652,0-1.188-0.229-1.61-0.689c-0.421-0.463-0.629-1.092-0.629-1.893c0-0.845,0.21-1.502,0.632-1.971
		c0.424-0.467,0.979-0.703,1.668-0.703c0.601,0,1.089,0.184,1.464,0.552c0.225,0.218,0.394,0.53,0.504,0.937l-0.981,0.243
		c-0.059-0.264-0.18-0.473-0.365-0.625c-0.184-0.152-0.408-0.229-0.672-0.229c-0.365,0-0.66,0.135-0.887,0.405
		c-0.229,0.271-0.341,0.708-0.341,1.314c0,0.644,0.111,1.101,0.336,1.373c0.224,0.272,0.515,0.41,0.871,0.41
		c0.264,0,0.49-0.088,0.681-0.262C86.193,17.317,86.331,17.045,86.413,16.673z"/>
	<path fill="#FFFFFF" d="M88.228,18.541v-5.083h3.644v0.859h-2.652v1.127h2.469v0.857h-2.469v1.383h2.746v0.856H88.228z"/>
	<path fill="#FFFFFF" d="M92.812,18.541v-5.083h0.991v2h1.945v-2h0.99v5.083h-0.99v-2.223h-1.945v2.223H92.812z"/>
	<path fill="#FFFFFF" d="M97.563,16.031c0-0.518,0.075-0.952,0.225-1.303c0.11-0.259,0.265-0.492,0.458-0.696
		c0.192-0.207,0.404-0.359,0.636-0.459c0.307-0.133,0.659-0.201,1.06-0.201c0.724,0,1.304,0.232,1.737,0.697
		c0.437,0.465,0.652,1.11,0.652,1.939c0,0.819-0.216,1.462-0.646,1.926c-0.433,0.463-1.009,0.693-1.731,0.693
		c-0.729,0-1.312-0.229-1.742-0.689C97.779,17.475,97.563,16.84,97.563,16.031z M98.587,15.997c0,0.576,0.129,1.012,0.385,1.308
		c0.258,0.297,0.582,0.447,0.979,0.447c0.396,0,0.721-0.148,0.975-0.443c0.252-0.294,0.38-0.736,0.38-1.325
		c0-0.583-0.122-1.018-0.371-1.305c-0.246-0.286-0.575-0.429-0.983-0.429c-0.41,0-0.738,0.145-0.989,0.434
		C98.711,14.974,98.587,15.411,98.587,15.997z"/>
	<path fill="#FFFFFF" d="M103.134,18.541V13.5h0.99v4.185h2.47v0.856H103.134z"/>
	<path fill="#FFFFFF" d="M107.297,13.458h1.813c0.409,0,0.72,0.032,0.936,0.097c0.288,0.087,0.536,0.245,0.74,0.468
		c0.207,0.224,0.364,0.498,0.469,0.823c0.109,0.325,0.162,0.726,0.162,1.202c0,0.418-0.05,0.779-0.151,1.083
		c-0.122,0.369-0.299,0.669-0.527,0.896c-0.171,0.174-0.404,0.309-0.696,0.406c-0.217,0.07-0.51,0.107-0.878,0.107h-1.867V13.458z
		 M108.289,14.318v3.367h0.741c0.278,0,0.476-0.016,0.601-0.048c0.16-0.042,0.293-0.113,0.399-0.211
		c0.106-0.101,0.194-0.264,0.261-0.491c0.066-0.228,0.101-0.538,0.101-0.931c0-0.393-0.034-0.694-0.101-0.905
		c-0.066-0.21-0.161-0.375-0.281-0.493c-0.121-0.117-0.272-0.197-0.461-0.237c-0.139-0.033-0.41-0.05-0.814-0.05H108.289z"/>
	<path fill="#FFFFFF" d="M112.258,18.541v-5.083h3.645v0.859h-2.653v1.127h2.47v0.857h-2.47v1.383h2.748v0.856H112.258z"/>
	<path fill="#FFFFFF" d="M116.843,18.541v-5.083h2.088c0.524,0,0.907,0.046,1.145,0.138c0.238,0.091,0.429,0.253,0.57,0.487
		c0.145,0.233,0.217,0.5,0.217,0.8c0,0.382-0.109,0.696-0.325,0.946c-0.219,0.248-0.543,0.404-0.973,0.469
		c0.214,0.129,0.391,0.271,0.531,0.426c0.139,0.156,0.326,0.43,0.564,0.826l0.601,0.991h-1.188l-0.717-1.105
		c-0.256-0.396-0.43-0.644-0.523-0.746c-0.093-0.104-0.192-0.174-0.299-0.213c-0.104-0.037-0.271-0.057-0.5-0.057h-0.2v2.122
		H116.843z M117.834,15.608h0.733c0.479,0,0.773-0.02,0.893-0.062c0.119-0.042,0.212-0.112,0.278-0.215
		c0.067-0.102,0.101-0.228,0.101-0.381c0-0.171-0.044-0.309-0.132-0.414c-0.087-0.106-0.214-0.173-0.374-0.2
		c-0.081-0.011-0.322-0.018-0.726-0.018h-0.773V15.608z"/>
</g>
</svg>
