<svg height="426pt" viewBox="0 -42 426.66666 426" width="426pt" xmlns="http://www.w3.org/2000/svg"><path d="m320 341.667969h-213.332031c-58.910157 0-106.667969-47.757813-106.667969-106.667969h426.667969c0 58.910156-47.757813 106.667969-106.667969 106.667969zm0 0" fill="#cc4900"/><path d="m277.332031 235h128v42.667969h-128zm0 0" fill="#e76400"/><path d="m298.667969 235h-298.667969c0 58.910156 47.757812 106.667969 106.667969 106.667969h85.332031c58.910156 0 106.667969-47.757813 106.667969-106.667969zm0 0" fill="#ef7f00"/><path d="m320 341.667969v-42.667969c29.1875 0 54.679688-19.742188 61.980469-48l41.3125 10.667969c-12.167969 47.09375-54.648438 80-103.292969 80zm0 0" fill="#bf3c00"/><path d="m21.332031 235h256v42.667969h-256zm0 0" fill="#f59707"/><path d="m213.332031 299-192-85.332031h384zm0 0" fill="#fdbc34"/><path d="m209 277.574219 141.738281-62.992188 8.667969 19.5-141.738281 62.992188zm0 0" fill="#fdab00"/><path d="m42.667969 149.667969h341.332031c23.5625 0 42.667969 19.101562 42.667969 42.664062 0 23.566407-19.105469 42.667969-42.667969 42.667969h-341.332031c-23.566407 0-42.667969-19.101562-42.667969-42.667969 0-23.5625 19.101562-42.664062 42.667969-42.664062zm0 0" fill="#8b2800"/><path d="m42.667969 149.667969h213.332031c23.5625 0 42.667969 19.101562 42.667969 42.664062 0 23.566407-19.105469 42.667969-42.667969 42.667969h-213.332031c-23.566407 0-42.667969-19.101562-42.667969-42.667969 0-23.5625 19.101562-42.664062 42.667969-42.664062zm0 0" fill="#993b17"/><path d="m320 171c0-23.5625-42.980469-42.667969-96-42.667969s-96 19.105469-96 42.667969 42.980469 42.667969 96 42.667969 96-19.105469 96-42.667969zm0 0" fill="#c11107"/><path d="m405.332031 160.332031c0-29.453125-42.980469-53.332031-96-53.332031s-96 23.878906-96 53.332031c0 29.457031 42.980469 53.335938 96 53.335938s96-23.878907 96-53.335938zm0 0" fill="#c82e25"/><path d="m213.332031 149.667969c0-23.566407-42.980469-42.667969-96-42.667969s-96 19.101562-96 42.667969c0 23.5625 42.980469 42.664062 96 42.664062s96-19.101562 96-42.664062zm0 0" fill="#c82e25"/><path d="m384 160.332031c0-17.671875-33.429688-32-74.667969-32-41.234375 0-74.664062 14.328125-74.664062 32 0 17.675781 33.429687 32 74.664062 32 41.238281 0 74.667969-14.324219 74.667969-32zm0 0" fill="#d2514a"/><path d="m21.332031 149.667969s0 21.332031 42.667969 21.332031 42.667969 21.332031 64 21.332031 21.332031-21.332031 64-21.332031 38.515625 21.332031 61.925781 21.332031c23.40625 0 23.40625-21.332031 66.074219-21.332031s85.332031 0 85.332031-42.667969h-384zm0 0" fill="#fee3aa"/><path d="m128 149.667969c0-82.476563 66.859375-149.335938 149.332031-149.335938 82.476563 0 149.335938 66.859375 149.335938 149.335938zm0 0" fill="#ef7f00"/><path d="m362.667969 43c0-23.5625-38.207031-42.667969-85.335938-42.667969-47.128906 0-85.332031 19.105469-85.332031 42.667969s38.203125 42.667969 85.332031 42.667969c47.128907 0 85.335938-19.105469 85.335938-42.667969zm0 0" fill="#e76400"/><path d="m309.332031 235c-13.710937.007812-27.378906-1.527344-40.75-4.574219-14.664062 3.058594-29.601562 4.589844-44.582031 4.574219-36.113281 0-68.707031-7.980469-90.28125-21.980469-5.332031.40625-10.792969.648438-16.386719.648438-37.332031 0-71.039062-8.4375-92.46875-23.15625l12.085938-17.585938c17.957031 12.335938 47.257812 19.40625 80.382812 19.40625 6.28125 0 12.367188-.332031 18.28125-.882812l3.96875-.367188 3.230469 2.324219c25.363281 18.21875 78.488281 25.707031 123.550781 15.675781l2.4375-.539062 2.417969.582031c12.476562 3.027344 25.273438 4.554688 38.113281 4.542969 36.875 0 69.917969-11.46875 86.242188-29.9375l15.976562 14.125c-20.539062 23.257812-58.757812 37.144531-102.21875 37.144531zm0 0" fill="#7d1a00"/><path d="m320 107h85.332031v42.667969h-85.332031zm0 0" fill="#fdbc34"/><path d="m0 149.667969c0-82.476563 66.859375-149.335938 149.332031-149.335938 82.476563 0 149.335938 66.859375 149.335938 149.335938zm0 0" fill="#f59707"/><path d="m21.332031 107h256v42.667969h-256zm0 0" fill="#fdcf6d"/><path d="m234.667969 43c0-23.5625-38.207031-42.667969-85.335938-42.667969-47.128906 0-85.332031 19.105469-85.332031 42.667969s38.203125 42.667969 85.332031 42.667969c47.128907 0 85.335938-19.105469 85.335938-42.667969zm0 0" fill="#ef7f00"/><g fill="#fee3aa"><path d="m106.667969 53.667969c0-5.890625-9.550781-10.667969-21.335938-10.667969-11.78125 0-21.332031 4.777344-21.332031 10.667969s9.550781 10.664062 21.332031 10.664062c11.785157 0 21.335938-4.773437 21.335938-10.664062zm0 0"/><path d="m170.667969 11c0-5.890625-9.550781-10.667969-21.335938-10.667969-11.78125 0-21.332031 4.777344-21.332031 10.667969s9.550781 10.667969 21.332031 10.667969c11.785157 0 21.335938-4.777344 21.335938-10.667969zm0 0"/><path d="m234.667969 32.332031c0-5.890625-9.550781-10.664062-21.335938-10.664062-11.78125 0-21.332031 4.773437-21.332031 10.664062s9.550781 10.667969 21.332031 10.667969c11.785157 0 21.335938-4.777344 21.335938-10.667969zm0 0"/></g><path d="m341.332031 32.332031c0-5.890625-9.550781-10.664062-21.332031-10.664062s-21.332031 4.773437-21.332031 10.664062 9.550781 10.667969 21.332031 10.667969 21.332031-4.777344 21.332031-10.667969zm0 0" fill="#fdcf6d"/><path d="m277.332031 11c0-5.890625-9.550781-10.667969-21.332031-10.667969s-21.332031 4.777344-21.332031 10.667969 9.550781 10.667969 21.332031 10.667969 21.332031-4.777344 21.332031-10.667969zm0 0" fill="#fdcf6d"/></svg>