<?xml version="1.0" encoding="iso-8859-1"?>
<!-- Generator: Adobe Illustrator 19.0.0, SVG Export Plug-In . SVG Version: 6.00 Build 0)  -->
<svg version="1.1" id="Capa_1" xmlns="http://www.w3.org/2000/svg" xmlns:xlink="http://www.w3.org/1999/xlink" x="0px" y="0px"
	 viewBox="0 0 512 512" style="enable-background:new 0 0 512 512;" xml:space="preserve">
<path style="fill:#E6E9ED;" d="M112.019,30.886h56.434v62.247h30.916V8.58c0-4.719-3.864-8.58-8.588-8.58h-78.762
	c-4.724,0-8.588,3.861-8.588,8.58v13.727C103.431,27.024,107.295,30.886,112.019,30.886z"/>
<g>
	<polygon style="fill:#E23C38;" points="223.516,184.243 57.46,184.243 72.591,348.723 	"/>
	<path style="fill:#E23C38;" d="M81.896,449.871l5.244,57c0.259,2.821,2.792,5.129,5.627,5.129h179.64
		c2.836,0,5.369-2.309,5.629-5.129l27.683-300.924L81.896,449.871z"/>
</g>
<polygon style="fill:#E6E9ED;" points="223.516,184.243 72.591,348.723 81.895,449.871 305.718,205.946 307.714,184.243 "/>
<path style="opacity:0.1;enable-background:new    ;" d="M115.486,506.871l-29.68-322.627H57.46l29.68,322.627
	c0.259,2.821,2.792,5.129,5.627,5.129h28.348C118.278,512,115.745,509.691,115.486,506.871z"/>
<path style="fill:#B1E8FF;" d="M299.282,140.886V93.169c0-2.833-2.32-5.151-5.156-5.151H71.998c-2.836,0-5.156,2.318-5.156,5.151
	v47.716h232.44V140.886z"/>
<path style="opacity:0.1;enable-background:new    ;" d="M100.29,140.886V93.169c0-2.833,2.319-5.151,5.155-5.151H71.998
	c-2.836,0-5.156,2.318-5.156,5.151v47.716h33.448V140.886z"/>
<path style="fill:#74B9DF;" d="M340.008,179.092c0,2.833-2.32,5.151-5.156,5.151H31.276c-2.836,0-5.156-2.318-5.156-5.151V140.28
	c0-2.833,2.32-5.151,5.156-5.151h303.575c2.836,0,5.156,2.318,5.156,5.151L340.008,179.092L340.008,179.092z"/>
<path style="opacity:0.1;enable-background:new    ;" d="M60.073,179.092V140.28c0-2.833,2.32-5.151,5.155-5.151H31.276
	c-2.836,0-5.156,2.318-5.156,5.151v38.812c0,2.833,2.32,5.151,5.156,5.151h33.952C62.394,184.243,60.073,181.925,60.073,179.092z"/>
<path style="fill:#FFAF68;" d="M284.703,512c-17.366,0-33.769-6.679-46.187-18.807c-12.395-12.105-19.454-28.295-19.879-45.589
	c-0.045-1.786,0.635-3.514,1.881-4.792c1.25-1.278,2.962-1.999,4.751-1.999h245.263c1.785,0,3.497,0.721,4.746,1.999
	c1.249,1.277,1.928,3.005,1.885,4.792c-0.428,17.294-7.485,33.484-19.878,45.589C444.865,505.321,428.462,512,411.093,512H284.703z"
	/>
<path style="fill:#AB5436;" d="M485.88,431.22c0,5.666-4.64,10.302-10.311,10.302H220.233c-5.671,0-10.311-4.636-10.311-10.302
	v-20.732c0-5.666,4.641-10.302,10.311-10.302h255.335c5.672,0,10.311,4.636,10.311,10.302v20.732H485.88z"/>
<path style="fill:#FFAF68;" d="M224.931,367.648c-1.86,0-3.619-0.82-4.815-2.239c-1.197-1.42-1.704-3.295-1.385-5.123
	c10.918-62.838,65.24-108.446,129.169-108.446s118.255,45.608,129.171,108.444c0.317,1.829-0.186,3.704-1.382,5.125
	c-1.196,1.419-2.96,2.239-4.815,2.239H224.931z"/>
<path style="fill:#FFBB4A;" d="M485.88,371.964c0-2.833-2.319-5.151-5.155-5.151H215.077c-2.835,0-5.155,2.318-5.155,5.151v23.284
	c0,2.833,2.32,5.151,5.155,5.151h166.497c2.836,0,6.974,1.44,9.195,3.201l14.877,11.79c2.222,1.761,5.856,1.761,8.078,0
	l14.878-11.79c2.222-1.761,6.359-3.201,9.195-3.201h42.927c2.836,0,5.155-2.318,5.155-5.151v-23.284H485.88z"/>
<path style="opacity:0.1;enable-background:new    ;" d="M250.758,447.604c-0.045-1.786,0.635-3.514,1.881-4.792
	c0.522-0.534,1.127-0.964,1.782-1.291h-2.067c-5.671,0-10.311-4.636-10.311-10.302v-20.732c0-4.954,3.547-9.119,8.228-10.088h-3.073
	c-2.835,0-5.155-2.318-5.155-5.151v-23.284c0-2.833,2.32-5.151,5.155-5.151h6.732c-0.635-0.363-1.212-0.832-1.694-1.404
	c-1.197-1.42-1.704-3.295-1.385-5.123c9.99-57.5,56.327-100.565,113.109-107.468c-5.272-0.641-10.63-0.978-16.061-0.978
	c-63.929,0-118.251,45.608-129.169,108.446c-0.319,1.828,0.188,3.703,1.385,5.123c0.482,0.572,1.059,1.042,1.694,1.404h-6.732
	c-2.835,0-5.155,2.318-5.155,5.151v23.284c0,2.833,2.32,5.151,5.155,5.151h3.073c-4.682,0.97-8.229,5.135-8.229,10.088v20.732
	c0,5.666,4.641,10.302,10.311,10.302h2.067c-0.655,0.327-1.26,0.757-1.782,1.291c-1.246,1.277-1.926,3.005-1.881,4.792
	c0.425,17.294,7.484,33.484,19.879,45.589C250.935,505.321,267.337,512,284.703,512h32.12c-17.366,0-33.769-6.679-46.187-18.807
	C258.242,481.088,251.183,464.898,250.758,447.604z"/>
<g>
	<path style="fill:#FFFFFF;" d="M374.711,295.96h-5.388c-4.143,0-7.5-3.358-7.5-7.5s3.357-7.5,7.5-7.5h5.388
		c4.143,0,7.5,3.358,7.5,7.5S378.854,295.96,374.711,295.96z"/>
	<path style="fill:#FFFFFF;" d="M296.283,314.823h-5.39c-4.143,0-7.5-3.358-7.5-7.5s3.357-7.5,7.5-7.5h5.39
		c4.143,0,7.5,3.358,7.5,7.5S300.426,314.823,296.283,314.823z"/>
</g>
<path style="fill:#FFCFAB;" d="M408.539,314.823h-5.386c-4.143,0-7.5-3.358-7.5-7.5s3.357-7.5,7.5-7.5h5.386
	c4.142,0,7.5,3.358,7.5,7.5S412.682,314.823,408.539,314.823z"/>
<path style="fill:#FFFFFF;" d="M349.176,320.626h-5.385c-4.143,0-7.5-3.358-7.5-7.5s3.357-7.5,7.5-7.5h5.385
	c4.143,0,7.5,3.358,7.5,7.5S353.318,320.626,349.176,320.626z"/>
<path style="fill:#FFCFAB;" d="M327.204,290.881h-5.391c-4.143,0-7.5-3.358-7.5-7.5s3.357-7.5,7.5-7.5h5.391
	c4.143,0,7.5,3.358,7.5,7.5S331.347,290.881,327.204,290.881z"/>
<g>
</g>
<g>
</g>
<g>
</g>
<g>
</g>
<g>
</g>
<g>
</g>
<g>
</g>
<g>
</g>
<g>
</g>
<g>
</g>
<g>
</g>
<g>
</g>
<g>
</g>
<g>
</g>
<g>
</g>
</svg>
