<svg id="Layer_1" enable-background="new 0 0 512 512" height="512" viewBox="0 0 512 512" width="512" xmlns="http://www.w3.org/2000/svg"><g><path d="m466.054 357.248-7.191-17.374-82.705-199.766c-.764-1.839-2.22-3.295-4.059-4.059l-217.319-89.997c-1.916-.799-4.073-.764-5.968.099-1.888.856-3.338 2.461-4.002 4.427l-13.478 39.826-129.757 383.366-.035.12c-3.536 10.466-.884 21.829 6.93 29.643 3.91 3.91 8.705 6.527 13.831 7.722 5.127 1.195 10.586.969 15.818-.799l245.922-83.187 13.619-14.072 62.594-11.71 61.463-20.79 39.818-13.471c1.966-.665 3.557-2.114 4.419-4.01.857-1.888.892-4.044.1-5.968z" fill="#f9d11f"/><path d="m461.536 367.226-39.818 13.471-61.463 20.79-62.594 11.71-13.619 14.072-245.923 83.187c-5.233 1.768-10.692 1.994-15.818.799-5.127-1.195-9.921-3.811-13.831-7.722-7.814-7.814-10.465-19.178-6.93-29.643l.035-.12c10.579 9.15 25.279 12.099 38.665 7.581l418.622-141.477 7.191 17.374c.792 1.923.757 4.08-.099 5.968-.861 1.896-2.452 3.345-4.418 4.01z" fill="#ffa402"/><path d="m461.536 367.226-39.818 13.471c-1.931-8.21-4.313-16.844-7.241-25.825-15.118-46.36-44.782-102.146-101.132-158.511-67.304-67.263-131.142-93.837-181.73-105.688l-.283-.269 13.478-39.826c.665-1.966 2.114-3.571 4.002-4.427 1.895-.863 4.052-.898 5.968-.099l217.319 89.997c1.839.764 3.295 2.22 4.059 4.059l82.705 199.766 7.191 17.374c.792 1.923.757 4.08-.099 5.968-.862 1.896-2.453 3.345-4.419 4.01z" fill="#fdeda5"/><path d="m461.536 367.226-39.818 13.471c-1.931-8.21-4.313-16.844-7.241-25.825l44.386-14.998 7.191 17.374c.792 1.923.757 4.08-.099 5.968-.862 1.896-2.453 3.345-4.419 4.01z" fill="#fbdf63"/><path d="m511.352 349.427c-11.144-53.12-42.47-134.483-128.406-220.421-85.95-85.91-167.325-117.221-220.458-128.366-15.62-3.274-31.007 6.329-35.059 21.582-.134.516-.255 1.032-.368 1.556-1.648 7.828-.141 15.812 4.236 22.508 1.146 1.768 2.468 3.387 3.924 4.844 4.066 4.066 9.221 6.873 14.977 8.076 45.185 9.476 114.893 36.615 190.435 112.116 75.513 75.529 102.667 145.224 112.149 190.389 1.188 5.699 3.995 10.883 8.104 14.991l.007.007c7.177 7.177 17.395 10.225 27.316 8.139.523-.113 1.054-.233 1.563-.375 7.156-1.895 13.273-6.301 17.346-12.538 4.376-6.696 5.875-14.687 4.234-22.508z" fill="#f79e60"/><path d="m511.352 349.427c-11.144-53.12-42.47-134.483-128.406-220.421-85.95-85.91-167.325-117.221-220.458-128.366-15.62-3.274-31.007 6.329-35.059 21.582 4.384-1.174 9.101-1.365 13.845-.368 53.133 11.145 134.508 42.456 220.459 128.366 85.936 85.938 117.262 167.301 128.406 220.421.976 4.653.842 9.37-.368 13.832 7.156-1.895 13.273-6.301 17.346-12.538 4.377-6.696 5.876-14.687 4.235-22.508z" fill="#d77d41"/><g fill="#ed2061"><path d="m237.446 198.649c-.001-12.613-4.912-24.47-13.831-33.39-.001-.001-.003-.003-.004-.004-18.417-18.412-48.383-18.412-66.799 0-8.922 8.92-13.835 20.779-13.835 33.395 0 12.613 4.912 24.47 13.831 33.39.001.001.003.003.004.005 18.417 18.412 48.383 18.412 66.799 0 8.921-8.921 13.834-20.781 13.835-33.396z"/><path d="m198.183 313.74c-.001-.001-.002-.002-.003-.003-18.417-18.412-48.383-18.412-66.799 0-8.922 8.92-13.836 20.78-13.836 33.395 0 12.613 4.912 24.47 13.831 33.39.001.001.003.003.005.004 18.417 18.412 48.383 18.412 66.799 0 8.922-8.92 13.835-20.779 13.835-33.395 0-12.613-4.912-24.47-13.832-33.391z"/><path d="m360.262 401.494-76.277 25.605-3.288-3.288c-5.6-5.601-9.617-12.361-11.837-19.729-1.315-4.37-1.994-8.966-1.994-13.662 0-12.615 4.914-24.474 13.831-33.391 9.214-9.2 21.313-13.803 33.404-13.803 12.092 0 24.191 4.603 33.397 13.81 4.872 4.872 8.535 10.586 10.868 16.794 2.715 7.227 3.62 15.104 2.524 23.06z"/></g><path d="m360.262 401.494-76.277 25.605-3.288-3.288c-5.6-5.601-9.617-12.361-11.837-19.729l89.507-30.251c2.715 7.227 3.62 15.104 2.524 23.06z" fill="#c71e54"/><g fill="#68c044"><path d="m113.002 405.492c-.476-3.286-3.057-5.867-6.343-6.343-.592-.086-5.982-.822-12.861-.178-9.857.922-17.959 4.301-23.432 9.772-5.473 5.472-8.854 13.574-9.776 23.43-.644 6.879.093 12.267.179 12.859.238 1.643 1.003 3.109 2.118 4.225s2.582 1.88 4.225 2.119c.591.086 5.981.821 12.861.177 9.857-.922 17.959-4.301 23.432-9.772 5.473-5.472 8.854-13.573 9.776-23.429.643-6.88-.093-12.268-.179-12.86z"/><path d="m285.735 324.238c.219-.557 2.165-5.636 3.107-12.48 1.351-9.807-.093-18.466-4.173-25.041-4.081-6.577-11.199-11.714-20.587-14.858-6.552-2.196-11.967-2.708-12.562-2.759-3.307-.284-6.408 1.639-7.623 4.73-.219.556-2.164 5.635-3.107 12.479-1.35 9.806.093 18.465 4.173 25.041 1.145 1.846 2.53 3.577 4.136 5.183 4.118 4.118 9.697 7.413 16.45 9.675 6.552 2.196 11.967 2.708 12.562 2.759 3.309.284 6.41-1.639 7.624-4.729z"/></g><g fill="#fdeda5"><path d="m149.105 271.287-11.443-17.839c-2.237-3.491-6.876-4.5-10.362-2.264-3.487 2.237-4.5 6.876-2.264 10.363l11.443 17.839c.298.465.638.886 1.013 1.261 2.439 2.439 6.327 2.942 9.349 1.003 3.487-2.237 4.5-6.876 2.264-10.363z"/><path d="m309.137 251.439-16.096-13.79c-3.145-2.695-7.88-2.33-10.575.816-2.567 2.996-2.358 7.433.386 10.177.137.137.28.27.43.398l16.096 13.79c3.145 2.695 7.88 2.33 10.575-.816 2.696-3.145 2.337-7.894-.816-10.575z"/><path d="m242.59 395.167 2.018-19.334c.43-4.118-2.562-7.808-6.681-8.238-4.12-.43-7.808 2.561-8.239 6.682l-2.018 19.334c-.244 2.34.616 4.541 2.16 6.085 1.174 1.174 2.743 1.968 4.522 2.153 4.12.43 7.807-2.561 8.238-6.682z"/></g></g></svg>