<svg width="26" height="26" viewBox="0 0 26 26" fill="none" xmlns="http://www.w3.org/2000/svg">
<path d="M4.33333 22.75C4.19613 22.7503 4.0601 22.7246 3.9325 22.6742C3.73093 22.5939 3.55811 22.4549 3.43642 22.2753C3.31473 22.0957 3.24979 21.8836 3.25 21.6667V4.33333C3.25 4.04602 3.36414 3.77047 3.5673 3.5673C3.77047 3.36414 4.04602 3.25 4.33333 3.25H21.6667C21.954 3.25 22.2295 3.36414 22.4327 3.5673C22.6359 3.77047 22.75 4.04602 22.75 4.33333V7.58333C22.75 7.87065 22.6359 8.1462 22.4327 8.34937C22.2295 8.55253 21.954 8.66667 21.6667 8.66667C21.3793 8.66667 21.1038 8.55253 20.9006 8.34937C20.6975 8.1462 20.5833 7.87065 20.5833 7.58333V5.41667H5.41667V18.9367L7.58333 16.5967C7.68803 16.4837 7.81563 16.3943 7.9576 16.3345C8.09958 16.2747 8.25267 16.2459 8.40667 16.25H20.5833V11.9167C20.5833 11.6293 20.6975 11.3538 20.9006 11.1506C21.1038 10.9475 21.3793 10.8333 21.6667 10.8333C21.954 10.8333 22.2295 10.9475 22.4327 11.1506C22.6359 11.3538 22.75 11.6293 22.75 11.9167V17.3333C22.75 17.6207 22.6359 17.8962 22.4327 18.0994C22.2295 18.3025 21.954 18.4167 21.6667 18.4167H8.8725L5.12417 22.4033C5.02316 22.5122 4.90083 22.5992 4.76478 22.6589C4.62874 22.7185 4.48188 22.7495 4.33333 22.75Z" fill="#666666"/>
<path d="M17.3334 9.75001H8.66671C8.37939 9.75001 8.10384 9.63587 7.90068 9.43271C7.69751 9.22954 7.58337 8.95399 7.58337 8.66668C7.58337 8.37936 7.69751 8.10381 7.90068 7.90064C8.10384 7.69748 8.37939 7.58334 8.66671 7.58334H17.3334C17.6207 7.58334 17.8962 7.69748 18.0994 7.90064C18.3026 8.10381 18.4167 8.37936 18.4167 8.66668C18.4167 8.95399 18.3026 9.22954 18.0994 9.43271C17.8962 9.63587 17.6207 9.75001 17.3334 9.75001ZM17.3334 14.0833H8.66671C8.37939 14.0833 8.10384 13.9692 7.90068 13.766C7.69751 13.5629 7.58337 13.2873 7.58337 13C7.58337 12.7127 7.69751 12.4371 7.90068 12.234C8.10384 12.0308 8.37939 11.9167 8.66671 11.9167H17.3334C17.6207 11.9167 17.8962 12.0308 18.0994 12.234C18.3026 12.4371 18.4167 12.7127 18.4167 13C18.4167 13.2873 18.3026 13.5629 18.0994 13.766C17.8962 13.9692 17.6207 14.0833 17.3334 14.0833Z" fill="#666666"/>
</svg>
