<svg width="204" height="45" viewBox="0 0 204 45" fill="none" xmlns="http://www.w3.org/2000/svg">
<path d="M69.532 12.344V16.18H61.524V20.324H67.516V24.048H61.524V32H56.736V12.344H69.532ZM79.1605 32.224C77.6298 32.224 76.2485 31.8973 75.0165 31.244C73.8032 30.5907 72.8418 29.6573 72.1325 28.444C71.4418 27.2307 71.0965 25.812 71.0965 24.188C71.0965 22.5827 71.4512 21.1733 72.1605 19.96C72.8698 18.728 73.8405 17.7853 75.0725 17.132C76.3045 16.4787 77.6858 16.152 79.2165 16.152C80.7472 16.152 82.1285 16.4787 83.3605 17.132C84.5925 17.7853 85.5632 18.728 86.2725 19.96C86.9818 21.1733 87.3365 22.5827 87.3365 24.188C87.3365 25.7933 86.9725 27.212 86.2445 28.444C85.5352 29.6573 84.5552 30.5907 83.3045 31.244C82.0725 31.8973 80.6912 32.224 79.1605 32.224ZM79.1605 28.08C80.0752 28.08 80.8498 27.744 81.4845 27.072C82.1378 26.4 82.4645 25.4387 82.4645 24.188C82.4645 22.9373 82.1472 21.976 81.5125 21.304C80.8965 20.632 80.1312 20.296 79.2165 20.296C78.2832 20.296 77.5085 20.632 76.8925 21.304C76.2765 21.9573 75.9685 22.9187 75.9685 24.188C75.9685 25.4387 76.2672 26.4 76.8645 27.072C77.4805 27.744 78.2458 28.08 79.1605 28.08ZM96.9886 32.224C95.458 32.224 94.0766 31.8973 92.8446 31.244C91.6313 30.5907 90.67 29.6573 89.9606 28.444C89.27 27.2307 88.9246 25.812 88.9246 24.188C88.9246 22.5827 89.2793 21.1733 89.9886 19.96C90.698 18.728 91.6686 17.7853 92.9006 17.132C94.1326 16.4787 95.514 16.152 97.0446 16.152C98.5753 16.152 99.9566 16.4787 101.189 17.132C102.421 17.7853 103.391 18.728 104.101 19.96C104.81 21.1733 105.165 22.5827 105.165 24.188C105.165 25.7933 104.801 27.212 104.073 28.444C103.363 29.6573 102.383 30.5907 101.133 31.244C99.9006 31.8973 98.5193 32.224 96.9886 32.224ZM96.9886 28.08C97.9033 28.08 98.678 27.744 99.3126 27.072C99.966 26.4 100.293 25.4387 100.293 24.188C100.293 22.9373 99.9753 21.976 99.3406 21.304C98.7246 20.632 97.9593 20.296 97.0446 20.296C96.1113 20.296 95.3366 20.632 94.7206 21.304C94.1046 21.9573 93.7966 22.9187 93.7966 24.188C93.7966 25.4387 94.0953 26.4 94.6926 27.072C95.3086 27.744 96.074 28.08 96.9886 28.08ZM106.753 24.16C106.753 22.5547 107.051 21.1453 107.649 19.932C108.265 18.7187 109.095 17.7853 110.141 17.132C111.186 16.4787 112.353 16.152 113.641 16.152C114.667 16.152 115.601 16.3667 116.441 16.796C117.299 17.2253 117.971 17.804 118.457 18.532V11.28H123.245V32H118.457V29.76C118.009 30.5067 117.365 31.104 116.525 31.552C115.703 32 114.742 32.224 113.641 32.224C112.353 32.224 111.186 31.8973 110.141 31.244C109.095 30.572 108.265 29.6293 107.649 28.416C107.051 27.184 106.753 25.7653 106.753 24.16ZM118.457 24.188C118.457 22.9933 118.121 22.0507 117.449 21.36C116.795 20.6693 115.993 20.324 115.041 20.324C114.089 20.324 113.277 20.6693 112.605 21.36C111.951 22.032 111.625 22.9653 111.625 24.16C111.625 25.3547 111.951 26.3067 112.605 27.016C113.277 27.7067 114.089 28.052 115.041 28.052C115.993 28.052 116.795 27.7067 117.449 27.016C118.121 26.3253 118.457 25.3827 118.457 24.188ZM134.073 12.344C136.145 12.344 137.955 12.7547 139.505 13.576C141.054 14.3973 142.249 15.5547 143.089 17.048C143.947 18.5227 144.377 20.2307 144.377 22.172C144.377 24.0947 143.947 25.8027 143.089 27.296C142.249 28.7893 141.045 29.9467 139.477 30.768C137.927 31.5893 136.126 32 134.073 32H126.709V12.344H134.073ZM133.765 27.856C135.575 27.856 136.985 27.3613 137.993 26.372C139.001 25.3827 139.505 23.9827 139.505 22.172C139.505 20.3613 139.001 18.952 137.993 17.944C136.985 16.936 135.575 16.432 133.765 16.432H131.497V27.856H133.765ZM161.78 23.936C161.78 24.384 161.752 24.8507 161.696 25.336H150.86C150.935 26.3067 151.243 27.0533 151.784 27.576C152.344 28.08 153.026 28.332 153.828 28.332C155.023 28.332 155.854 27.828 156.32 26.82H161.416C161.155 27.8467 160.679 28.7707 159.988 29.592C159.316 30.4133 158.467 31.0573 157.44 31.524C156.414 31.9907 155.266 32.224 153.996 32.224C152.466 32.224 151.103 31.8973 149.908 31.244C148.714 30.5907 147.78 29.6573 147.108 28.444C146.436 27.2307 146.1 25.812 146.1 24.188C146.1 22.564 146.427 21.1453 147.08 19.932C147.752 18.7187 148.686 17.7853 149.88 17.132C151.075 16.4787 152.447 16.152 153.996 16.152C155.508 16.152 156.852 16.4693 158.028 17.104C159.204 17.7387 160.119 18.644 160.772 19.82C161.444 20.996 161.78 22.368 161.78 23.936ZM156.88 22.676C156.88 21.8547 156.6 21.2013 156.04 20.716C155.48 20.2307 154.78 19.988 153.94 19.988C153.138 19.988 152.456 20.2213 151.896 20.688C151.355 21.1547 151.019 21.8173 150.888 22.676H156.88ZM170.662 32.224C169.3 32.224 168.086 31.9907 167.022 31.524C165.958 31.0573 165.118 30.4227 164.502 29.62C163.886 28.7987 163.541 27.884 163.466 26.876H168.198C168.254 27.4173 168.506 27.856 168.954 28.192C169.402 28.528 169.953 28.696 170.606 28.696C171.204 28.696 171.661 28.584 171.978 28.36C172.314 28.1173 172.482 27.8093 172.482 27.436C172.482 26.988 172.249 26.6613 171.782 26.456C171.316 26.232 170.56 25.9893 169.514 25.728C168.394 25.4667 167.461 25.196 166.714 24.916C165.968 24.6173 165.324 24.16 164.782 23.544C164.241 22.9093 163.97 22.06 163.97 20.996C163.97 20.1 164.213 19.288 164.698 18.56C165.202 17.8133 165.93 17.2253 166.882 16.796C167.853 16.3667 169.001 16.152 170.326 16.152C172.286 16.152 173.826 16.6373 174.946 17.608C176.085 18.5787 176.738 19.8667 176.906 21.472H172.482C172.408 20.9307 172.165 20.5013 171.754 20.184C171.362 19.8667 170.84 19.708 170.186 19.708C169.626 19.708 169.197 19.82 168.898 20.044C168.6 20.2493 168.45 20.5387 168.45 20.912C168.45 21.36 168.684 21.696 169.15 21.92C169.636 22.144 170.382 22.368 171.39 22.592C172.548 22.8907 173.49 23.1893 174.218 23.488C174.946 23.768 175.581 24.2347 176.122 24.888C176.682 25.5227 176.972 26.3813 176.99 27.464C176.99 28.3787 176.729 29.2 176.206 29.928C175.702 30.6373 174.965 31.1973 173.994 31.608C173.042 32.0187 171.932 32.224 170.662 32.224ZM189.468 32L184.708 25.448V32H179.92V11.28H184.708V22.732L189.44 16.376H195.348L188.852 24.216L195.404 32H189.468ZM199.468 32.224C198.628 32.224 197.938 31.9813 197.396 31.496C196.874 30.992 196.612 30.376 196.612 29.648C196.612 28.9013 196.874 28.276 197.396 27.772C197.938 27.268 198.628 27.016 199.468 27.016C200.29 27.016 200.962 27.268 201.484 27.772C202.026 28.276 202.296 28.9013 202.296 29.648C202.296 30.376 202.026 30.992 201.484 31.496C200.962 31.9813 200.29 32.224 199.468 32.224Z" fill="#F5F5F5"/>
<path fill-rule="evenodd" clip-rule="evenodd" d="M28.125 28.125L29.9952 30.2623C30.6771 31.0417 31.8616 31.1206 32.6409 30.4387C32.7036 30.3839 32.7625 30.325 32.8173 30.2623L34.6875 28.125H39.375C38.2848 33.5762 33.4985 37.5 27.9393 37.5H17.0607C11.5015 37.5 6.71523 33.5762 5.625 28.125H28.125Z" fill="white"/>
<path fill-rule="evenodd" clip-rule="evenodd" d="M39.375 16.875H5.625C6.71523 11.4238 11.5015 7.5 17.0607 7.5H27.9393C33.4985 7.5 38.2848 11.4238 39.375 16.875Z" fill="white"/>
<path opacity="0.3" d="M39.375 20.625H5.625C4.58947 20.625 3.75 21.4645 3.75 22.5C3.75 23.5355 4.58947 24.375 5.625 24.375H39.375C40.4105 24.375 41.25 23.5355 41.25 22.5C41.25 21.4645 40.4105 20.625 39.375 20.625Z" fill="white"/>
</svg>
