<svg class="location" width="19" height="23" viewBox="0 0 19 23" fill="none" xmlns="http://www.w3.org/2000/svg">
	<path d="M0.25 10.125C0.25 4.5 4 0.75 9.625 0.75C15.25 0.75 19 5.4375 19 10.125C19 13.0407 16.2796 17.0446 10.8387 22.1366C10.1443 22.7866 9.07313 22.8135 8.34682 22.1994C2.94894 17.6348 0.25 13.61 0.25 10.125ZM9.625 12C11.3509 12 12.75 10.6009 12.75 8.875C12.75 7.14911 11.3509 5.75 9.625 5.75C7.89911 5.75 6.5 7.14911 6.5 8.875C6.5 10.6009 7.89911 12 9.625 12Z" fill="var(--primary)"/>
</svg>