<?xml version="1.0" encoding="utf-8"?>
<!-- Generator: Adobe Illustrator 15.0.0, SVG Export Plug-In . SVG Version: 6.00 Build 0)  -->
<!DOCTYPE svg PUBLIC "-//W3C//DTD SVG 1.1//EN" "http://www.w3.org/Graphics/SVG/1.1/DTD/svg11.dtd">
<svg version="1.1" id="Layer_1" xmlns="http://www.w3.org/2000/svg" xmlns:xlink="http://www.w3.org/1999/xlink" x="0px" y="0px"
	 width="550px" height="234px" viewBox="0 0 550 234" enable-background="new 0 0 550 234" xml:space="preserve">
<rect y="2" fill="#CCCCCC" width="553" height="231"/>
<g>
	<path fill="#FFFFFF" d="M119.74,125.912v-20.073h4.052v20.073H119.74z"/>
	<path fill="#FFFFFF" d="M127.597,125.912v-20.073h6.065l3.644,13.695l3.602-13.695h6.076v20.073h-3.766V110.11l-3.982,15.802
		h-3.898l-3.977-15.802v15.802H127.597z"/>
	<path fill="#FFFFFF" d="M169.109,125.912h-4.412l-1.749-4.562h-8.023l-1.66,4.562h-4.295l7.815-20.073h4.282L169.109,125.912z
		 M161.646,117.973l-2.768-7.449l-2.71,7.449H161.646z"/>
	<path fill="#FFFFFF" d="M180.594,118.531v-3.379h8.738v7.992c-0.85,0.82-2.083,1.546-3.692,2.17
		c-1.611,0.63-3.239,0.942-4.896,0.942c-2.101,0-3.93-0.439-5.491-1.323c-1.559-0.879-2.733-2.139-3.52-3.779
		c-0.786-1.635-1.172-3.422-1.172-5.343c0-2.093,0.432-3.948,1.31-5.576c0.876-1.622,2.159-2.869,3.848-3.736
		c1.289-0.667,2.887-1,4.809-1c2.49,0,4.435,0.524,5.835,1.569c1.402,1.04,2.302,2.487,2.707,4.334l-4.027,0.751
		c-0.281-0.99-0.812-1.765-1.593-2.334c-0.781-0.571-1.757-0.854-2.921-0.854c-1.773,0-3.181,0.561-4.229,1.68
		c-1.042,1.125-1.564,2.792-1.564,4.999c0,2.384,0.527,4.17,1.59,5.362c1.056,1.19,2.445,1.788,4.16,1.788
		c0.847,0,1.699-0.169,2.554-0.503c0.854-0.328,1.585-0.735,2.194-1.217v-2.543H180.594z"/>
	<path fill="#FFFFFF" d="M193.063,125.912v-20.073h14.886v3.395h-10.829v4.451h10.077v3.382h-10.077v5.468h11.209v3.377H193.063z"/>
	<path fill="#FFFFFF" d="M219.559,125.912v-20.073h6.502c2.464,0,4.073,0.103,4.816,0.302c1.154,0.304,2.114,0.958,2.89,1.966
		c0.778,1.005,1.17,2.31,1.17,3.909c0,1.233-0.225,2.268-0.675,3.109c-0.447,0.836-1.017,1.5-1.707,1.977
		c-0.688,0.481-1.387,0.796-2.096,0.949c-0.969,0.196-2.371,0.289-4.208,0.289h-2.641v7.571H219.559z M223.61,109.234v5.695h2.218
		c1.599,0,2.662-0.104,3.205-0.312c0.537-0.209,0.963-0.537,1.265-0.987c0.307-0.447,0.463-0.966,0.463-1.562
		c0-0.73-0.217-1.334-0.648-1.802c-0.429-0.479-0.966-0.775-1.63-0.895c-0.479-0.092-1.453-0.138-2.914-0.138H223.61z"/>
	<path fill="#FFFFFF" d="M238.369,125.912v-19.909h4.051v16.532h10.077v3.377H238.369z"/>
	<path fill="#FFFFFF" d="M273.482,125.912h-4.409l-1.747-4.562h-8.023l-1.66,4.562h-4.292l7.809-20.073h4.287L273.482,125.912z
		 M266.025,117.973l-2.765-7.449l-2.707,7.449H266.025z"/>
	<path fill="#FFFFFF" d="M288.477,118.531l3.933,1.246c-0.604,2.196-1.604,3.821-3.007,4.885c-1.402,1.059-3.176,1.594-5.329,1.594
		c-2.668,0-4.859-0.91-6.573-2.731c-1.721-1.825-2.578-4.308-2.578-7.47c0-3.34,0.863-5.936,2.588-7.783
		c1.726-1.845,3.991-2.773,6.802-2.773c2.461,0,4.451,0.728,5.985,2.178c0.91,0.857,1.604,2.091,2.054,3.697l-4.007,0.958
		c-0.243-1.04-0.74-1.865-1.487-2.466c-0.751-0.601-1.672-0.899-2.741-0.899c-1.498,0-2.704,0.534-3.625,1.598
		c-0.932,1.072-1.397,2.797-1.397,5.189c0,2.538,0.46,4.342,1.376,5.422c0.916,1.074,2.102,1.619,3.562,1.619
		c1.075,0,1.996-0.349,2.773-1.037C287.582,121.074,288.138,120,288.477,118.531z"/>
	<path fill="#FFFFFF" d="M295.886,125.912v-20.073h14.883v3.395h-10.834v4.451h10.077v3.382h-10.077v5.468h11.21v3.377H295.886z"/>
	<path fill="#FFFFFF" d="M314.601,125.912v-20.073h4.055v7.899h7.938v-7.899h4.049v20.073h-4.049v-8.775h-7.938v8.775H314.601z"/>
	<path fill="#FFFFFF" d="M334.009,116.001c0-2.046,0.312-3.761,0.926-5.147c0.445-1.024,1.075-1.945,1.863-2.755
		c0.794-0.812,1.651-1.413,2.594-1.807c1.249-0.529,2.693-0.794,4.329-0.794c2.953,0,5.319,0.918,7.098,2.752
		c1.772,1.837,2.662,4.388,2.662,7.659c0,3.231-0.879,5.774-2.641,7.6c-1.769,1.831-4.118,2.747-7.066,2.747
		c-2.979,0-5.361-0.91-7.118-2.731C334.893,121.699,334.009,119.192,334.009,116.001z M338.19,115.866
		c0,2.266,0.523,3.99,1.577,5.166c1.042,1.169,2.376,1.762,3.99,1.762s2.942-0.587,3.98-1.752c1.031-1.158,1.556-2.91,1.556-5.231
		c0-2.302-0.503-4.02-1.514-5.152c-1.011-1.127-2.345-1.693-4.022-1.693c-1.673,0-3.012,0.569-4.033,1.715
		C338.698,111.828,338.19,113.553,338.19,115.866z"/>
	<path fill="#FFFFFF" d="M356.751,125.912v-19.909h4.055v16.532h10.077v3.377H356.751z"/>
	<path fill="#FFFFFF" d="M373.751,105.839h7.41c1.672,0,2.947,0.127,3.821,0.386c1.18,0.341,2.19,0.961,3.027,1.847
		c0.841,0.884,1.481,1.969,1.916,3.25c0.444,1.281,0.65,2.863,0.65,4.747c0,1.652-0.195,3.07-0.608,4.269
		c-0.503,1.466-1.218,2.641-2.154,3.546c-0.698,0.683-1.651,1.223-2.842,1.599c-0.895,0.285-2.091,0.429-3.589,0.429h-7.632V105.839
		z M377.806,109.234v13.301h3.032c1.127,0,1.947-0.069,2.45-0.196c0.656-0.164,1.202-0.449,1.641-0.831
		c0.424-0.396,0.778-1.042,1.054-1.942c0.27-0.899,0.413-2.122,0.413-3.678c0-1.548-0.144-2.736-0.413-3.572
		c-0.275-0.831-0.656-1.477-1.148-1.942s-1.117-0.781-1.879-0.942c-0.562-0.13-1.673-0.196-3.324-0.196H377.806z"/>
	<path fill="#FFFFFF" d="M394.017,125.912v-20.073h14.883v3.395H398.07v4.451h10.077v3.382H398.07v5.468h11.216v3.377H394.017z"/>
	<path fill="#FFFFFF" d="M412.736,125.912v-20.073h8.526c2.144,0,3.705,0.183,4.679,0.545c0.974,0.36,1.747,1,2.329,1.921
		c0.587,0.921,0.879,1.974,0.879,3.163c0,1.505-0.439,2.75-1.329,3.731c-0.884,0.979-2.207,1.596-3.964,1.855
		c0.873,0.508,1.593,1.071,2.17,1.683c0.566,0.617,1.334,1.696,2.302,3.263l2.451,3.912h-4.843l-2.933-4.367
		c-1.042-1.561-1.752-2.54-2.138-2.947c-0.381-0.408-0.783-0.686-1.223-0.842c-0.424-0.151-1.101-0.225-2.038-0.225h-0.82v8.381
		H412.736z M416.785,114.329h3.001c1.948,0,3.154-0.077,3.646-0.246c0.477-0.167,0.857-0.45,1.128-0.849
		c0.28-0.4,0.412-0.903,0.412-1.503c0-0.675-0.18-1.22-0.539-1.635c-0.36-0.421-0.868-0.683-1.53-0.789
		c-0.328-0.045-1.312-0.072-2.958-0.072h-3.16V114.329z"/>
</g>
</svg>
