<?xml version="1.0" encoding="utf-8"?>
<!-- Generator: Adobe Illustrator 15.0.0, SVG Export Plug-In . SVG Version: 6.00 Build 0)  -->
<!DOCTYPE svg PUBLIC "-//W3C//DTD SVG 1.1//EN" "http://www.w3.org/Graphics/SVG/1.1/DTD/svg11.dtd">
<svg version="1.1" id="Layer_1" xmlns="http://www.w3.org/2000/svg" xmlns:xlink="http://www.w3.org/1999/xlink" x="0px" y="0px"
	 width="250px" height="250px" viewBox="0 0 250 250" enable-background="new 0 0 250 250" xml:space="preserve">
<rect x="0.5" y="-0.95" fill="#CCCCCC" width="248.488" height="250.399"/>
<g>
	<path fill="#FFFFFF" d="M29.004,130.43v-12.358h2.493v12.358H29.004z"/>
	<path fill="#FFFFFF" d="M33.842,130.43v-12.358h3.733l2.243,8.431l2.216-8.431h3.74v12.358h-2.318v-9.73l-2.451,9.73h-2.401
		l-2.447-9.73v9.73H33.842z"/>
	<path fill="#FFFFFF" d="M59.397,130.43h-2.714l-1.079-2.809h-4.939l-1.021,2.809H47l4.81-12.358h2.639L59.397,130.43z
		 M54.802,125.539l-1.704-4.584l-1.668,4.584H54.802z"/>
	<path fill="#FFFFFF" d="M66.465,125.886v-2.082h5.38v4.92c-0.522,0.507-1.28,0.95-2.272,1.338
		c-0.991,0.387-1.995,0.575-3.013,0.575c-1.293,0-2.418-0.269-3.38-0.812c-0.961-0.541-1.684-1.317-2.167-2.326
		c-0.483-1.006-0.722-2.106-0.722-3.291c0-1.287,0.267-2.43,0.805-3.432c0.54-0.999,1.33-1.765,2.37-2.3
		c0.793-0.411,1.778-0.615,2.96-0.615c1.532,0,2.73,0.321,3.592,0.965c0.864,0.641,1.418,1.531,1.667,2.668l-2.479,0.462
		c-0.173-0.608-0.5-1.086-0.982-1.436c-0.479-0.353-1.08-0.528-1.797-0.528c-1.092,0-1.958,0.346-2.602,1.036
		c-0.643,0.694-0.963,1.718-0.963,3.078c0,1.466,0.325,2.566,0.976,3.297c0.652,0.735,1.509,1.104,2.563,1.104
		c0.521,0,1.044-0.105,1.571-0.312c0.526-0.202,0.977-0.451,1.351-0.743v-1.567H66.465z"/>
	<path fill="#FFFFFF" d="M74.146,130.43v-12.358h9.16v2.089h-6.667v2.739h6.205v2.085h-6.205v3.361h6.903v2.084H74.146z"/>
	<path fill="#FFFFFF" d="M90.454,130.43v-12.358h4.002c1.517,0,2.506,0.063,2.965,0.185c0.71,0.187,1.301,0.588,1.779,1.209
		c0.479,0.621,0.719,1.424,0.719,2.408c0,0.758-0.138,1.396-0.414,1.913c-0.277,0.518-0.625,0.922-1.051,1.217
		c-0.424,0.296-0.854,0.491-1.292,0.584c-0.596,0.121-1.458,0.18-2.587,0.18h-1.628v4.662H90.454z M92.947,120.161v3.507h1.365
		c0.983,0,1.641-0.065,1.973-0.193c0.332-0.129,0.594-0.332,0.781-0.607c0.188-0.276,0.283-0.595,0.283-0.962
		c0-0.448-0.134-0.82-0.397-1.11c-0.265-0.294-0.597-0.476-1.004-0.55c-0.295-0.058-0.894-0.085-1.793-0.085H92.947z"/>
	<path fill="#FFFFFF" d="M102.033,130.43v-12.257h2.495v10.173h6.204v2.084H102.033z"/>
	<path fill="#FFFFFF" d="M123.65,130.43h-2.713l-1.078-2.809h-4.939l-1.021,2.809h-2.643l4.81-12.358h2.638L123.65,130.43z
		 M119.058,125.539l-1.7-4.584l-1.669,4.584H119.058z"/>
	<path fill="#FFFFFF" d="M132.881,125.886l2.418,0.768c-0.369,1.35-0.986,2.349-1.85,3.004c-0.862,0.652-1.954,0.979-3.283,0.979
		c-1.641,0-2.989-0.558-4.043-1.679c-1.06-1.123-1.587-2.652-1.587-4.599c0-2.057,0.532-3.654,1.594-4.791
		c1.06-1.137,2.458-1.707,4.188-1.707c1.514,0,2.739,0.447,3.685,1.339c0.561,0.53,0.983,1.288,1.262,2.276l-2.466,0.591
		c-0.146-0.642-0.453-1.148-0.916-1.519c-0.464-0.371-1.027-0.556-1.688-0.556c-0.92,0-1.664,0.329-2.231,0.985
		c-0.572,0.66-0.856,1.723-0.856,3.194c0,1.565,0.28,2.675,0.843,3.338c0.562,0.664,1.294,0.996,2.191,0.996
		c0.661,0,1.232-0.213,1.71-0.636C132.328,127.453,132.672,126.791,132.881,125.886z"/>
	<path fill="#FFFFFF" d="M137.44,130.43v-12.358h9.158v2.089h-6.666v2.739h6.204v2.085h-6.204v3.361h6.904v2.084H137.44z"/>
	<path fill="#FFFFFF" d="M148.963,130.43v-12.358h2.492v4.862h4.89v-4.862h2.492v12.358h-2.492v-5.404h-4.89v5.404H148.963z"/>
	<path fill="#FFFFFF" d="M160.91,124.327c0-1.261,0.191-2.314,0.565-3.169c0.279-0.631,0.665-1.196,1.153-1.694
		c0.484-0.501,1.016-0.872,1.597-1.113c0.769-0.326,1.655-0.489,2.663-0.489c1.819,0,3.276,0.564,4.368,1.693
		c1.095,1.13,1.641,2.7,1.641,4.713c0,1.991-0.543,3.554-1.626,4.683c-1.087,1.125-2.536,1.686-4.351,1.686
		c-1.837,0-3.298-0.558-4.384-1.679C161.455,127.835,160.91,126.293,160.91,124.327z M163.482,124.243
		c0,1.398,0.325,2.458,0.972,3.18c0.643,0.722,1.462,1.085,2.46,1.085c0.995,0,1.809-0.36,2.449-1.076
		c0.634-0.717,0.955-1.791,0.955-3.223c0-1.417-0.31-2.473-0.931-3.171c-0.62-0.694-1.447-1.044-2.474-1.044
		c-1.032,0-1.858,0.351-2.485,1.057C163.798,121.756,163.482,122.819,163.482,124.243z"/>
	<path fill="#FFFFFF" d="M174.912,130.43v-12.257h2.493v10.173h6.202v2.084H174.912z"/>
	<path fill="#FFFFFF" d="M185.378,118.072h4.56c1.029,0,1.812,0.078,2.351,0.237c0.727,0.212,1.349,0.592,1.863,1.137
		c0.519,0.545,0.913,1.21,1.181,2.001c0.272,0.789,0.404,1.763,0.404,2.92c0,1.018-0.124,1.893-0.38,2.631
		c-0.307,0.898-0.748,1.627-1.323,2.182c-0.43,0.423-1.018,0.751-1.753,0.985c-0.548,0.172-1.284,0.265-2.207,0.265h-4.695V118.072z
		 M187.872,120.161v8.185h1.863c0.698,0,1.198-0.038,1.508-0.116c0.407-0.102,0.742-0.272,1.009-0.515s0.484-0.642,0.653-1.192
		c0.166-0.555,0.254-1.309,0.254-2.265c0-0.953-0.088-1.687-0.254-2.2c-0.169-0.511-0.403-0.91-0.708-1.197
		c-0.305-0.285-0.687-0.479-1.155-0.58c-0.347-0.08-1.032-0.121-2.048-0.121H187.872z"/>
	<path fill="#FFFFFF" d="M197.852,130.43v-12.358h9.161v2.089h-6.667v2.739h6.204v2.085h-6.204v3.361h6.903v2.084H197.852z"/>
	<path fill="#FFFFFF" d="M209.374,130.43v-12.358h5.248c1.322,0,2.281,0.111,2.881,0.333c0.598,0.223,1.075,0.617,1.435,1.185
		c0.362,0.567,0.54,1.216,0.54,1.947c0,0.927-0.27,1.691-0.817,2.297c-0.545,0.603-1.358,0.984-2.443,1.143
		c0.541,0.314,0.984,0.66,1.336,1.035c0.353,0.379,0.822,1.045,1.419,2.007l1.511,2.412h-2.985l-1.803-2.69
		c-0.642-0.961-1.079-1.564-1.313-1.814s-0.485-0.421-0.754-0.518c-0.262-0.091-0.681-0.138-1.253-0.138h-0.506v5.161H209.374z
		 M211.868,123.297h1.846c1.198,0,1.943-0.048,2.243-0.152c0.295-0.102,0.528-0.275,0.698-0.522
		c0.168-0.246,0.251-0.555,0.251-0.925c0-0.417-0.107-0.752-0.331-1.008c-0.222-0.258-0.534-0.418-0.939-0.485
		c-0.203-0.027-0.809-0.044-1.82-0.044h-1.947V123.297z"/>
</g>
</svg>
