<?xml version="1.0" encoding="utf-8"?>
<!-- Generator: Adobe Illustrator 15.0.0, SVG Export Plug-In . SVG Version: 6.00 Build 0)  -->
<!DOCTYPE svg PUBLIC "-//W3C//DTD SVG 1.1//EN" "http://www.w3.org/Graphics/SVG/1.1/DTD/svg11.dtd">
<svg version="1.1" id="Layer_1" xmlns="http://www.w3.org/2000/svg" xmlns:xlink="http://www.w3.org/1999/xlink" x="0px" y="0px"
	 width="150px" height="167px" viewBox="0 0 150 167" enable-background="new 0 0 150 167" xml:space="preserve">
<rect x="0.167" y="-0.167" fill="#CCCCCC" width="149.667" height="167"/>
<g>
	<path fill="#FFFFFF" d="M24.912,86.232v-6.465h1.305v6.465H24.912z"/>
	<path fill="#FFFFFF" d="M27.443,86.232v-6.465h1.953l1.174,4.41l1.159-4.41h1.957v6.465h-1.213v-5.089l-1.282,5.089h-1.256
		l-1.28-5.089v5.089H27.443z"/>
	<path fill="#FFFFFF" d="M40.812,86.232h-1.42l-0.564-1.469h-2.584l-0.534,1.469h-1.383l2.517-6.465h1.38L40.812,86.232z
		 M38.409,83.675l-0.892-2.399l-0.873,2.399H38.409z"/>
	<path fill="#FFFFFF" d="M44.511,83.855v-1.089h2.814v2.575c-0.273,0.265-0.67,0.497-1.188,0.699s-1.044,0.302-1.576,0.302
		c-0.677,0-1.266-0.142-1.769-0.425s-0.881-0.689-1.134-1.218c-0.253-0.526-0.378-1.102-0.378-1.721c0-0.674,0.14-1.271,0.422-1.795
		c0.282-0.522,0.695-0.924,1.239-1.203c0.415-0.215,0.931-0.322,1.549-0.322c0.802,0,1.429,0.168,1.879,0.505
		c0.452,0.335,0.742,0.801,0.872,1.396l-1.297,0.242c-0.091-0.318-0.262-0.568-0.514-0.751c-0.251-0.185-0.565-0.276-0.94-0.276
		c-0.571,0-1.024,0.182-1.361,0.542c-0.336,0.362-0.504,0.898-0.504,1.61c0,0.767,0.17,1.342,0.511,1.726s0.789,0.576,1.341,0.576
		c0.272,0,0.547-0.055,0.822-0.162c0.275-0.106,0.511-0.236,0.707-0.391v-0.819H44.511z"/>
	<path fill="#FFFFFF" d="M48.528,86.232v-6.465h4.793v1.093h-3.488v1.433h3.246v1.09h-3.246v1.759h3.611v1.09H48.528z"/>
	<path fill="#FFFFFF" d="M57.061,86.232v-6.465h2.094c0.794,0,1.312,0.033,1.552,0.097c0.371,0.098,0.681,0.308,0.931,0.633
		c0.25,0.325,0.376,0.745,0.376,1.259c0,0.397-0.072,0.73-0.217,1.001c-0.145,0.271-0.327,0.482-0.55,0.637
		C61.024,83.55,60.8,83.651,60.57,83.7c-0.312,0.063-0.763,0.094-1.354,0.094h-0.852v2.438H57.061z M58.365,80.861v1.834h0.714
		c0.515,0,0.858-0.034,1.032-0.101c0.174-0.068,0.311-0.174,0.408-0.318c0.099-0.145,0.148-0.312,0.148-0.503
		c0-0.235-0.07-0.429-0.208-0.582c-0.139-0.154-0.312-0.249-0.525-0.287c-0.154-0.03-0.468-0.044-0.938-0.044H58.365z"/>
	<path fill="#FFFFFF" d="M63.118,86.232v-6.412h1.306v5.322h3.245v1.09H63.118z"/>
	<path fill="#FFFFFF" d="M74.428,86.232h-1.42l-0.563-1.469H69.86l-0.534,1.469h-1.383l2.517-6.465h1.38L74.428,86.232z
		 M72.025,83.675l-0.89-2.399l-0.873,2.399H72.025z"/>
	<path fill="#FFFFFF" d="M79.257,83.855l1.265,0.401c-0.193,0.706-0.516,1.229-0.968,1.572c-0.45,0.342-1.022,0.513-1.717,0.513
		c-0.858,0-1.564-0.292-2.116-0.879c-0.554-0.587-0.829-1.388-0.829-2.405c0-1.076,0.277-1.912,0.833-2.507
		c0.555-0.595,1.286-0.893,2.191-0.893c0.791,0,1.433,0.234,1.927,0.701c0.294,0.277,0.515,0.674,0.661,1.191l-1.291,0.309
		c-0.076-0.335-0.236-0.601-0.479-0.794s-0.538-0.291-0.884-0.291c-0.48,0-0.869,0.172-1.167,0.516
		c-0.299,0.345-0.448,0.901-0.448,1.671c0,0.818,0.147,1.399,0.441,1.746c0.294,0.348,0.677,0.521,1.146,0.521
		c0.347,0,0.645-0.111,0.895-0.332S79.147,84.329,79.257,83.855z"/>
	<path fill="#FFFFFF" d="M81.642,86.232v-6.465h4.793v1.093h-3.488v1.433h3.246v1.09h-3.246v1.759h3.611v1.09H81.642z"/>
	<path fill="#FFFFFF" d="M87.67,86.232v-6.465h1.305v2.544h2.558v-2.544h1.305v6.465h-1.305v-2.827h-2.558v2.827H87.67z"/>
	<path fill="#FFFFFF" d="M93.921,83.04c0-0.659,0.1-1.211,0.296-1.658c0.146-0.33,0.348-0.625,0.603-0.886
		c0.254-0.262,0.532-0.456,0.836-0.583c0.402-0.17,0.866-0.255,1.393-0.255c0.952,0,1.714,0.295,2.286,0.886
		c0.572,0.591,0.857,1.412,0.857,2.466c0,1.042-0.283,1.859-0.851,2.449c-0.568,0.589-1.326,0.883-2.275,0.883
		c-0.961,0-1.726-0.292-2.293-0.879C94.206,84.876,93.921,84.068,93.921,83.04z M95.267,82.996c0,0.731,0.169,1.286,0.508,1.664
		c0.337,0.377,0.766,0.567,1.287,0.567c0.521,0,0.946-0.188,1.281-0.563c0.332-0.374,0.5-0.937,0.5-1.686
		c0-0.742-0.162-1.294-0.487-1.659c-0.324-0.363-0.757-0.546-1.294-0.546c-0.539,0-0.972,0.184-1.301,0.553
		C95.431,81.695,95.267,82.251,95.267,82.996z"/>
	<path fill="#FFFFFF" d="M101.246,86.232v-6.412h1.305v5.322h3.245v1.09H101.246z"/>
	<path fill="#FFFFFF" d="M106.722,79.768h2.386c0.538,0,0.947,0.041,1.229,0.124c0.38,0.111,0.705,0.31,0.975,0.595
		c0.271,0.285,0.478,0.633,0.618,1.046c0.142,0.413,0.211,0.923,0.211,1.528c0,0.532-0.065,0.99-0.198,1.376
		c-0.161,0.471-0.393,0.852-0.692,1.142c-0.226,0.221-0.532,0.393-0.917,0.516c-0.287,0.091-0.673,0.138-1.155,0.138h-2.456V79.768z
		 M108.026,80.861v4.282h0.975c0.365,0,0.627-0.02,0.789-0.061c0.213-0.054,0.388-0.144,0.528-0.27
		c0.139-0.127,0.253-0.335,0.341-0.624c0.088-0.29,0.133-0.685,0.133-1.185c0-0.499-0.045-0.882-0.133-1.151
		c-0.088-0.268-0.211-0.476-0.37-0.626c-0.159-0.149-0.359-0.251-0.604-0.303c-0.182-0.042-0.539-0.063-1.071-0.063H108.026z"/>
	<path fill="#FFFFFF" d="M113.247,86.232v-6.465h4.793v1.093h-3.488v1.433h3.246v1.09h-3.246v1.759h3.612v1.09H113.247z"/>
	<path fill="#FFFFFF" d="M119.275,86.232v-6.465h2.746c0.691,0,1.193,0.059,1.507,0.175c0.312,0.116,0.562,0.322,0.751,0.619
		s0.282,0.636,0.282,1.019c0,0.485-0.142,0.885-0.428,1.202c-0.285,0.315-0.711,0.515-1.278,0.598
		c0.282,0.164,0.515,0.345,0.699,0.541c0.184,0.198,0.431,0.547,0.742,1.05l0.79,1.262h-1.562l-0.943-1.407
		c-0.335-0.503-0.564-0.818-0.688-0.949s-0.254-0.221-0.394-0.271c-0.138-0.048-0.356-0.072-0.656-0.072h-0.265v2.699H119.275z
		 M120.58,82.501h0.966c0.627,0,1.017-0.025,1.174-0.079c0.154-0.053,0.276-0.144,0.364-0.274c0.089-0.128,0.133-0.29,0.133-0.484
		c0-0.218-0.058-0.393-0.174-0.527c-0.116-0.135-0.279-0.219-0.492-0.254c-0.105-0.015-0.423-0.023-0.952-0.023h-1.019V82.501z"/>
</g>
</svg>
