<?xml version="1.0" encoding="utf-8"?>
<!-- Generator: Adobe Illustrator 24.1.1, SVG Export Plug-In . SVG Version: 6.00 Build 0)  -->
<svg version="1.1" id="Layer_1" xmlns="http://www.w3.org/2000/svg" xmlns:xlink="http://www.w3.org/1999/xlink" x="0px" y="0px"
	 viewBox="0 0 512 512" style="enable-background:new 0 0 512 512;" xml:space="preserve">
<style type="text/css">
	.st0{fill:#333333;}
</style>
<g id="XMLID_1_">
	<path id="XMLID_3_" class="st0" d="M256,127.4c35.4,0,63.7-28.3,63.7-63.7S291.4,0,256,0s-63.7,28.3-63.7,63.7
		S220.6,127.4,256,127.4z"/>
	<path id="XMLID_4_" class="st0" d="M171.1,319.3h21.2V405c0,11.8,9.4,21.2,21.2,21.2h84.9c11.8,0,21.2-9.4,21.2-21.2v-85.7h21.2
		c11.8,0,21.2-9.4,21.2-21.2v-42.5c0-59-48-106.2-106.2-106.2c-59,0-106.2,48-106.2,106.2v42.5C149.8,309.9,159.3,319.3,171.1,319.3
		z"/>
	<path id="XMLID_5_" class="st0" d="M391.3,358.6l-12.6,40.9c39.3,11.8,48,25.2,48,26.7c0,11-58.2,42.5-170.7,42.5
		S85.3,437.3,85.3,426.3c0-2.4,8.7-15.7,51.1-27.5l-11.8-40.9c-67.6,19.7-81.8,48-81.8,69.2C42.9,485.3,153,512,256,512
		c102.2,0,213.1-26.7,213.1-84.9C469.1,405.8,455.8,377.5,391.3,358.6z"/>
</g>
</svg>
