<?xml version="1.0" encoding="utf-8"?>
<!-- Generator: Adobe Illustrator 16.0.0, SVG Export Plug-In . SVG Version: 6.00 Build 0)  -->
<!DOCTYPE svg PUBLIC "-//W3C//DTD SVG 1.1//EN" "http://www.w3.org/Graphics/SVG/1.1/DTD/svg11.dtd">
<svg version="1.1" id="Layer_1" xmlns="http://www.w3.org/2000/svg" xmlns:xlink="http://www.w3.org/1999/xlink" x="0px" y="0px"
	 width="162px" height="35px" viewBox="0 0 162 35" enable-background="new 0 0 162 35" xml:space="preserve">
<linearGradient id="SVGID_1_" gradientUnits="userSpaceOnUse" x1="609.0596" y1="1379.6152" x2="707.8685" y2="1380.4573" gradientTransform="matrix(1 0 0 1 -619.5996 -1362.9004)">
	<stop  offset="0" style="stop-color:#F78F3D"/>
	<stop  offset="0.4876" style="stop-color:#F05359"/>
	<stop  offset="1" style="stop-color:#D11F26"/>
</linearGradient>
<path fill="url(#SVGID_1_)" d="M53.783,14.965c-8.221-13.955-23.886-13.929-32.12,0c2.736-7.26,9.062-11.982,16.06-11.982
	C44.733,2.983,51.06,7.706,53.783,14.965L53.783,14.965z M37.815,28.08c-2.644,0-4.998-1.264-6.498-3.209h3.88
	c0.776,0.42,1.684,0.656,2.631,0.656c0.96,0,1.854-0.236,2.644-0.656h3.144H44.3C42.813,26.816,40.458,28.08,37.815,28.08
	L37.815,28.08z M37.815,34.551H19.94c-0.71,0-1.276-0.564-1.276-1.275l0,0c0-0.696,0.565-1.272,1.276-1.272h9.325
	c-0.934-0.619-1.815-1.328-2.591-2.146H13.732c-0.71,0-1.276-0.565-1.276-1.274l0,0c0-0.694,0.565-1.272,1.276-1.272h10.917
	c-0.486-0.765-0.907-1.58-1.25-2.437H8.234c-0.71,0-1.276-0.578-1.276-1.274c0-0.693,0.565-1.273,1.276-1.273h14.363h21.019h9.404
	C51.494,29.316,45.259,34.551,37.815,34.551L37.815,34.551z M27.371,19.701h26.293c2.065,0,2.302-1.17,2.025-2.71
	C54.229,8.704,48.311,2.43,39.63,1.26c-0.066-0.96-0.855-1.71-1.815-1.71s-1.75,0.736-1.829,1.67
	c-1.973,0.224-4.143,0.881-5.248,1.355c-6.366,2.907-9.996,7.602-11.561,14.573H1.276C0.565,17.149,0,17.728,0,18.426
	c0,0.709,0.565,1.275,1.276,1.275h22.583H27.371z"/>
<g>
	<path d="M57.302,27.206l0.167-3.179l0.414-11.031l0.207-7.27c0.829,0.021,1.479,0.031,1.952,0.031c0.392,0,0.99-0.01,1.796-0.031
		c0.058,0.902,0.107,1.587,0.148,2.053c0.04,0.467,0.14,1.38,0.298,2.738c0.159,1.359,0.287,2.534,0.383,3.525
		c0.096,0.992,0.24,2.688,0.433,5.09c0.198-1.646,0.378-3.063,0.54-4.249c0.162-1.185,0.364-2.533,0.607-4.044
		s0.396-2.5,0.462-2.966c0.065-0.467,0.154-1.183,0.266-2.148c0.673,0.021,1.333,0.031,1.979,0.031c0.44,0,1.05-0.01,1.831-0.031
		c-0.085,3.535-0.141,6.572-0.168,9.111c-0.059,4.973-0.087,8.393-0.087,10.26c0,0.388,0.004,1.091,0.013,2.108
		c-0.592-0.021-1.007-0.031-1.245-0.031c-0.345,0-0.77,0.011-1.272,0.031c0.037-0.944,0.082-3.191,0.137-6.743
		c0.055-3.551,0.082-5.82,0.082-6.806c0-0.43-0.004-1.028-0.013-1.794l-0.883,6.404l-1.267,8.938
		c-0.583-0.021-0.985-0.031-1.205-0.031c-0.278,0-0.705,0.011-1.279,0.031l-0.83-8.655l-0.486-4.61
		c-0.018-0.178-0.038-0.399-0.061-0.661s-0.059-0.724-0.108-1.385l-0.17,4.359l-0.224,8.938l-0.021,2.015
		c-0.619-0.021-1.014-0.031-1.185-0.031C58.28,27.175,57.876,27.186,57.302,27.206z"/>
	<path d="M70.702,15.718c0.085-1.039,0.139-1.754,0.161-2.148c0.022-0.393,0.059-1.009,0.108-1.849
		c1.292-0.661,2.403-0.992,3.332-0.992c0.53,0,1.014,0.139,1.454,0.417c0.439,0.278,0.783,0.727,1.03,1.346s0.37,1.505,0.37,2.659
		c0,0.588-0.034,1.91-0.101,3.965c-0.067,2.057-0.119,4.753-0.154,8.089c-0.44-0.021-0.878-0.031-1.313-0.031
		c-0.422,0-0.871,0.011-1.347,0.031c0.062-1.154,0.129-3.535,0.204-7.145c-0.17,0.188-0.303,0.325-0.399,0.409
		s-0.265,0.21-0.507,0.378s-0.431,0.31-0.567,0.425c-0.136,0.115-0.255,0.263-0.356,0.44c-0.101,0.179-0.172,0.362-0.215,0.551
		c-0.042,0.189-0.063,0.399-0.063,0.63c0,0.356,0.061,0.661,0.182,0.912c0.121,0.252,0.314,0.378,0.579,0.378
		c0.094,0,0.195-0.019,0.303-0.055c0.107-0.037,0.255-0.129,0.444-0.275c-0.13,0.808-0.285,1.988-0.464,3.54
		c-0.386,0.147-0.751,0.221-1.097,0.221c-0.557,0-1.02-0.181-1.39-0.543s-0.655-0.946-0.854-1.755
		c-0.2-0.808-0.299-1.615-0.299-2.423c0-0.493,0.037-0.976,0.111-1.448c0.074-0.472,0.189-0.934,0.346-1.385
		c0.157-0.45,0.341-0.837,0.552-1.156s0.499-0.622,0.865-0.905c0.365-0.283,0.828-0.55,1.389-0.802
		c0.233-0.105,0.447-0.218,0.643-0.338c0.195-0.121,0.334-0.226,0.417-0.315c0.083-0.089,0.15-0.194,0.202-0.314
		c0.052-0.121,0.088-0.247,0.111-0.378c0.022-0.131,0.034-0.27,0.034-0.417c0-0.398-0.072-0.705-0.215-0.92
		c-0.144-0.215-0.354-0.323-0.632-0.323C72.789,14.192,71.836,14.701,70.702,15.718z"/>
	<path d="M78.434,27.206l0.188-7.585l0.107-5.933l0.014-2.549c0.494,0.021,0.929,0.032,1.306,0.032c0.426,0,0.841-0.011,1.245-0.032
		l-0.047,2.093c0.139-0.419,0.256-0.742,0.354-0.968c0.096-0.225,0.214-0.44,0.354-0.645c0.139-0.205,0.281-0.367,0.43-0.488
		s0.314-0.218,0.498-0.291s0.377-0.11,0.578-0.11c0.23,0,0.441,0.045,0.633,0.134c0.193,0.089,0.359,0.202,0.498,0.338
		s0.26,0.294,0.363,0.472s0.195,0.38,0.273,0.606s0.17,0.553,0.271,0.983c0.197-0.671,0.406-1.18,0.627-1.526
		c0.219-0.346,0.469-0.601,0.75-0.763s0.568-0.244,0.865-0.244c0.391,0,0.758,0.131,1.104,0.394s0.629,0.716,0.852,1.361
		c0.223,0.645,0.332,1.482,0.332,2.51c0,0.482-0.014,1.212-0.043,2.188c-0.029,0.976-0.07,2.652-0.123,5.028
		s-0.08,4.042-0.086,4.996c-0.412-0.021-0.811-0.031-1.195-0.031c-0.471,0-0.965,0.011-1.48,0.031
		c0.047-1.332,0.092-3.003,0.141-5.012c0.047-2.009,0.07-3.401,0.07-4.179c0-0.68-0.033-1.188-0.102-1.522
		c-0.066-0.335-0.154-0.563-0.26-0.686c-0.105-0.122-0.221-0.184-0.346-0.184c-0.137,0-0.252,0.058-0.352,0.175
		c-0.107,0.126-0.203,0.322-0.283,0.587c-0.107,0.349-0.195,0.788-0.264,1.316c-0.053,0.413-0.096,1.042-0.127,1.888
		c-0.033,0.86-0.057,1.993-0.074,3.398l-0.055,4.218c-0.48-0.021-0.912-0.031-1.297-0.031c-0.395,0-0.859,0.011-1.393,0.031
		c0.041-0.934,0.088-2.502,0.143-4.705s0.082-3.677,0.082-4.422c0-0.629-0.027-1.102-0.08-1.417
		c-0.055-0.314-0.129-0.566-0.227-0.755c-0.096-0.189-0.225-0.283-0.387-0.283c-0.174,0-0.326,0.121-0.457,0.362
		c-0.131,0.242-0.241,0.588-0.333,1.039c-0.092,0.451-0.157,1.073-0.195,1.864c-0.038,0.793-0.073,2.002-0.104,3.628
		s-0.052,3.189-0.061,4.689c-0.543-0.021-0.984-0.031-1.32-0.031C79.449,27.175,78.987,27.186,78.434,27.206z"/>
	<path d="M91.895,15.718c0.085-1.039,0.14-1.754,0.162-2.148c0.022-0.393,0.058-1.009,0.107-1.849
		c1.292-0.661,2.402-0.992,3.332-0.992c0.529,0,1.014,0.139,1.453,0.417c0.44,0.278,0.783,0.727,1.03,1.346s0.37,1.505,0.37,2.659
		c0,0.588-0.033,1.91-0.101,3.965c-0.067,2.057-0.118,4.753-0.154,8.089c-0.44-0.021-0.878-0.031-1.313-0.031
		c-0.422,0-0.871,0.011-1.347,0.031c0.062-1.154,0.129-3.535,0.204-7.145c-0.171,0.188-0.304,0.325-0.399,0.409
		c-0.097,0.084-0.266,0.21-0.508,0.378c-0.241,0.168-0.431,0.31-0.566,0.425c-0.137,0.115-0.256,0.263-0.356,0.44
		c-0.101,0.179-0.172,0.362-0.215,0.551c-0.042,0.189-0.063,0.399-0.063,0.63c0,0.356,0.061,0.661,0.182,0.912
		c0.121,0.252,0.314,0.378,0.579,0.378c0.094,0,0.195-0.019,0.303-0.055c0.107-0.037,0.256-0.129,0.444-0.275
		c-0.131,0.808-0.285,1.988-0.465,3.54c-0.386,0.147-0.751,0.221-1.097,0.221c-0.557,0-1.02-0.181-1.39-0.543
		s-0.655-0.946-0.855-1.755c-0.199-0.808-0.299-1.615-0.299-2.423c0-0.493,0.037-0.976,0.11-1.448
		c0.074-0.472,0.189-0.934,0.347-1.385c0.157-0.45,0.341-0.837,0.552-1.156S92.44,18.283,92.806,18
		c0.366-0.283,0.829-0.55,1.39-0.802c0.233-0.105,0.447-0.218,0.643-0.338s0.334-0.226,0.417-0.315
		c0.083-0.089,0.15-0.194,0.202-0.314c0.051-0.121,0.088-0.247,0.11-0.378c0.022-0.131,0.034-0.27,0.034-0.417
		c0-0.398-0.072-0.705-0.216-0.92c-0.144-0.215-0.354-0.323-0.632-0.323C93.982,14.192,93.029,14.701,91.895,15.718z"/>
	<path d="M99.553,26.907c-0.018-0.462-0.036-0.947-0.054-1.456s-0.047-1.209-0.087-2.101l-0.055-1.133
		c0.435,0.398,0.809,0.695,1.122,0.889c0.313,0.194,0.602,0.291,0.866,0.291c0.219,0,0.396-0.047,0.533-0.142
		c0.137-0.094,0.236-0.23,0.299-0.409c0.063-0.178,0.095-0.361,0.095-0.551c0-0.167-0.024-0.332-0.071-0.495
		s-0.153-0.386-0.318-0.669c-0.367-0.63-0.69-1.201-0.97-1.716c-0.28-0.514-0.49-0.97-0.631-1.369
		c-0.142-0.398-0.248-0.828-0.322-1.29c-0.074-0.462-0.11-0.939-0.11-1.432c0-0.871,0.106-1.684,0.319-2.439
		s0.527-1.303,0.942-1.644s0.921-0.512,1.518-0.512c0.623,0,1.42,0.189,2.389,0.566l0.108,4.406
		c-0.543-0.503-1.066-0.755-1.568-0.755c-0.354,0-0.611,0.085-0.771,0.256s-0.239,0.432-0.239,0.783
		c0,0.116,0.009,0.226,0.027,0.331c0.018,0.105,0.05,0.215,0.098,0.331c0.047,0.116,0.104,0.233,0.175,0.354
		c0.069,0.121,0.238,0.401,0.508,0.842s0.48,0.803,0.633,1.086c0.251,0.462,0.443,0.89,0.575,1.282
		c0.133,0.394,0.233,0.813,0.303,1.259c0.069,0.446,0.104,0.916,0.104,1.409c0,0.745-0.077,1.429-0.232,2.054
		c-0.154,0.624-0.388,1.146-0.699,1.565c-0.313,0.42-0.649,0.711-1.014,0.873c-0.363,0.163-0.737,0.244-1.124,0.244
		c-0.26,0-0.586-0.053-0.979-0.157C100.53,27.353,100.073,27.169,99.553,26.907z"/>
	<path d="M106.337,27.206c0.112-2.707,0.194-4.973,0.246-6.798c0.052-1.826,0.104-4.251,0.155-7.278
		c0.052-3.026,0.078-5.033,0.078-6.019l-0.007-1.385c1.059,0.021,2.339,0.031,3.842,0.031c1.387,0,2.609-0.01,3.668-0.031
		l-0.014,0.518c-0.005,0.125-0.016,0.58-0.034,1.364l-0.04,1.709c-0.009,0.366-0.014,0.737-0.014,1.114
		c-0.865-0.084-1.593-0.126-2.181-0.126c-0.646,0-1.082,0.003-1.309,0.008c-0.227,0.005-0.58,0.029-1.06,0.071l-0.082,3.62
		c0.529,0.031,1.146,0.047,1.852,0.047c0.251,0,0.92-0.037,2.006-0.11c-0.045,1.343-0.088,2.942-0.128,4.8
		c-0.776-0.021-1.372-0.031-1.789-0.031c-0.619,0-1.312,0.036-2.078,0.109l-0.08,3.824h0.773c0.229,0,0.701-0.016,1.419-0.047
		l1.392-0.079c0.207-0.011,0.552-0.053,1.036-0.126c-0.054,1.553-0.099,3.158-0.135,4.815c-1.095-0.021-2.295-0.031-3.601-0.031
		l-2.961,0.016L106.337,27.206z"/>
	<path d="M114.621,27.206l1.534-4.769l1.138-3.65l-2.113-7.648c0.655,0.021,1.219,0.032,1.689,0.032c0.592,0,1.079-0.011,1.46-0.032
		l0.714,3.604c0.045,0.221,0.109,0.562,0.195,1.023c0.346-1.385,0.754-2.927,1.225-4.626c0.399,0.021,0.877,0.032,1.434,0.032
		c0.516,0,1.007-0.011,1.474-0.032l-1.076,3.305c-0.211,0.65-0.662,2.077-1.354,4.281c0.413,1.668,1.167,4.495,2.262,8.481
		c-0.507-0.021-1.008-0.031-1.501-0.031c-0.602,0-1.14,0.011-1.615,0.031c-0.292-1.469-0.515-2.555-0.67-3.258
		c-0.154-0.702-0.285-1.348-0.394-1.936l-0.215,0.866c-0.067,0.262-0.171,0.65-0.31,1.164l-0.855,3.163
		c-0.484-0.021-0.955-0.031-1.413-0.031C115.7,27.175,115.164,27.186,114.621,27.206z"/>
	<path d="M123.902,34.57c0.085-2.15,0.156-4.296,0.215-6.436c0.103-3.661,0.174-6.732,0.212-9.214
		c0.038-2.481,0.057-4.938,0.057-7.373c0.911-0.325,1.624-0.543,2.141-0.653c0.516-0.11,1.032-0.166,1.548-0.166
		c0.646,0,1.241,0.157,1.784,0.472c0.542,0.315,0.979,0.871,1.309,1.668c0.33,0.797,0.578,1.747,0.744,2.848
		c0.166,1.102,0.249,2.256,0.249,3.462c0,1.102-0.067,2.169-0.202,3.202s-0.341,1.965-0.618,2.793
		c-0.278,0.829-0.598,1.442-0.959,1.842c-0.36,0.398-0.763,0.598-1.207,0.598c-0.22,0-0.446-0.05-0.682-0.149
		s-0.459-0.244-0.67-0.433c-0.21-0.189-0.387-0.381-0.527-0.574c-0.142-0.194-0.317-0.475-0.528-0.843l-0.074,4.391
		c-0.032,2.015-0.048,3.535-0.048,4.563c-0.521-0.021-0.968-0.031-1.341-0.031C124.98,34.539,124.513,34.55,123.902,34.57z
		 M127.005,15.561c-0.036,0.472-0.062,0.858-0.075,1.157c-0.013,0.299-0.026,0.703-0.04,1.212s-0.021,0.915-0.021,1.219
		c0,0.861,0.058,1.582,0.172,2.164c0.114,0.583,0.273,1.034,0.478,1.354c0.205,0.32,0.423,0.48,0.656,0.48
		c0.247,0,0.474-0.166,0.681-0.496c0.206-0.33,0.37-0.826,0.491-1.487s0.182-1.405,0.182-2.234c0-1.123-0.127-2.024-0.38-2.707
		c-0.254-0.682-0.623-1.023-1.107-1.023C127.736,15.199,127.391,15.32,127.005,15.561z"/>
	<path d="M133.15,27.206l0.208-6.987l0.067-4.012c0.004-0.724,0.007-1.464,0.007-2.219c0-0.766-0.005-1.715-0.014-2.848
		c0.543,0.021,0.974,0.032,1.292,0.032c0.373,0,0.801-0.011,1.286-0.032l-0.028,1.778c0.175-0.461,0.318-0.805,0.431-1.031
		s0.24-0.43,0.384-0.614s0.294-0.32,0.451-0.409c0.157-0.089,0.321-0.134,0.492-0.134c0.161,0,0.341,0.053,0.538,0.157
		c0.005,1.144,0.016,2.088,0.034,2.833l0.047,2.423c-0.247-0.168-0.478-0.252-0.692-0.252c-0.27,0-0.501,0.092-0.696,0.275
		s-0.368,0.462-0.518,0.834c-0.15,0.373-0.271,0.837-0.36,1.393s-0.152,1.438-0.188,2.644c-0.035,1.207-0.054,2.587-0.054,4.139
		c0,0.546,0.01,1.223,0.027,2.03c-0.436-0.021-0.873-0.031-1.313-0.031C134.115,27.175,133.648,27.186,133.15,27.206z"/>
	<path d="M145.741,22.454c-0.059,0.629-0.171,2.15-0.336,4.563c-0.521,0.241-0.958,0.401-1.313,0.479
		c-0.354,0.079-0.714,0.118-1.077,0.118c-0.534,0-1.025-0.087-1.474-0.26c-0.449-0.173-0.836-0.479-1.161-0.919
		c-0.325-0.44-0.598-0.988-0.817-1.644c-0.221-0.654-0.388-1.433-0.502-2.334s-0.172-1.829-0.172-2.783
		c0-1.342,0.115-2.654,0.344-3.938c0.229-1.284,0.523-2.287,0.885-3.01s0.777-1.237,1.249-1.541
		c0.471-0.304,0.953-0.456,1.446-0.456c0.512,0,1,0.139,1.464,0.417c0.465,0.278,0.858,0.763,1.182,1.456
		c0.322,0.692,0.553,1.474,0.689,2.345c0.137,0.871,0.205,1.81,0.205,2.817c0,0.598-0.029,1.264-0.087,1.999l-4.718,0.016
		c-0.005,0.167-0.007,0.319-0.007,0.454c0,1.129,0.173,1.959,0.518,2.492c0.346,0.533,0.768,0.799,1.266,0.799
		c0.296,0,0.634-0.081,1.013-0.243C144.717,23.117,145.185,22.842,145.741,22.454z M141.603,17.371h2.221
		c0.005-0.178,0.007-0.33,0.007-0.456c0-0.545-0.042-1.012-0.125-1.4s-0.201-0.671-0.356-0.85c-0.154-0.178-0.328-0.268-0.521-0.268
		c-0.135,0-0.265,0.05-0.391,0.149c-0.125,0.1-0.238,0.247-0.34,0.441c-0.101,0.194-0.185,0.417-0.252,0.669
		c-0.067,0.251-0.117,0.496-0.148,0.731C141.665,16.624,141.634,16.951,141.603,17.371z"/>
	<path d="M147.182,26.907c-0.018-0.462-0.036-0.947-0.054-1.456s-0.047-1.209-0.087-2.101l-0.055-1.133
		c0.435,0.398,0.809,0.695,1.122,0.889c0.313,0.194,0.602,0.291,0.866,0.291c0.219,0,0.396-0.047,0.533-0.142
		c0.137-0.094,0.236-0.23,0.299-0.409c0.063-0.178,0.095-0.361,0.095-0.551c0-0.167-0.024-0.332-0.071-0.495
		s-0.153-0.386-0.318-0.669c-0.367-0.63-0.69-1.201-0.97-1.716c-0.28-0.514-0.49-0.97-0.631-1.369
		c-0.142-0.398-0.248-0.828-0.322-1.29c-0.074-0.462-0.11-0.939-0.11-1.432c0-0.871,0.106-1.684,0.319-2.439
		s0.527-1.303,0.942-1.644s0.921-0.512,1.518-0.512c0.623,0,1.42,0.189,2.389,0.566l0.108,4.406
		c-0.543-0.503-1.066-0.755-1.568-0.755c-0.354,0-0.611,0.085-0.771,0.256s-0.239,0.432-0.239,0.783
		c0,0.116,0.009,0.226,0.027,0.331c0.018,0.105,0.05,0.215,0.098,0.331c0.047,0.116,0.104,0.233,0.175,0.354
		c0.069,0.121,0.238,0.401,0.508,0.842s0.48,0.803,0.633,1.086c0.251,0.462,0.443,0.89,0.575,1.282
		c0.133,0.394,0.233,0.813,0.303,1.259c0.069,0.446,0.104,0.916,0.104,1.409c0,0.745-0.077,1.429-0.232,2.054
		c-0.154,0.624-0.388,1.146-0.699,1.565c-0.313,0.42-0.649,0.711-1.014,0.873c-0.363,0.163-0.737,0.244-1.124,0.244
		c-0.26,0-0.586-0.053-0.979-0.157C148.159,27.353,147.702,27.169,147.182,26.907z"/>
	<path d="M153.837,26.907c-0.018-0.462-0.036-0.947-0.054-1.456s-0.047-1.209-0.087-2.101l-0.055-1.133
		c0.435,0.398,0.809,0.695,1.122,0.889c0.313,0.194,0.602,0.291,0.866,0.291c0.219,0,0.396-0.047,0.533-0.142
		c0.137-0.094,0.236-0.23,0.299-0.409c0.063-0.178,0.095-0.361,0.095-0.551c0-0.167-0.024-0.332-0.071-0.495
		s-0.153-0.386-0.318-0.669c-0.367-0.63-0.69-1.201-0.97-1.716c-0.28-0.514-0.49-0.97-0.631-1.369
		c-0.142-0.398-0.248-0.828-0.322-1.29c-0.074-0.462-0.11-0.939-0.11-1.432c0-0.871,0.106-1.684,0.319-2.439
		s0.527-1.303,0.942-1.644s0.921-0.512,1.518-0.512c0.623,0,1.42,0.189,2.389,0.566l0.108,4.406
		c-0.543-0.503-1.066-0.755-1.568-0.755c-0.354,0-0.611,0.085-0.771,0.256s-0.239,0.432-0.239,0.783
		c0,0.116,0.009,0.226,0.027,0.331c0.018,0.105,0.05,0.215,0.098,0.331c0.047,0.116,0.104,0.233,0.175,0.354
		c0.069,0.121,0.238,0.401,0.508,0.842s0.48,0.803,0.633,1.086c0.251,0.462,0.443,0.89,0.575,1.282
		c0.133,0.394,0.233,0.813,0.303,1.259c0.069,0.446,0.104,0.916,0.104,1.409c0,0.745-0.077,1.429-0.232,2.054
		c-0.154,0.624-0.388,1.146-0.699,1.565c-0.313,0.42-0.649,0.711-1.014,0.873c-0.363,0.163-0.737,0.244-1.124,0.244
		c-0.26,0-0.586-0.053-0.979-0.157C154.814,27.353,154.357,27.169,153.837,26.907z"/>
</g>
</svg>
