<?xml version="1.0" encoding="utf-8"?>
<!-- Generator: Adobe Illustrator 16.0.0, SVG Export Plug-In . SVG Version: 6.00 Build 0)  -->
<!DOCTYPE svg PUBLIC "-//W3C//DTD SVG 1.1//EN" "http://www.w3.org/Graphics/SVG/1.1/DTD/svg11.dtd">
<svg version="1.1" id="Layer_1" xmlns="http://www.w3.org/2000/svg" xmlns:xlink="http://www.w3.org/1999/xlink" x="0px" y="0px"
	 width="162px" height="35px" viewBox="0 0 162 35" enable-background="new 0 0 162 35" xml:space="preserve">
<linearGradient id="SVGID_1_" gradientUnits="userSpaceOnUse" x1="609.0596" y1="1379.6152" x2="707.8685" y2="1380.4573" gradientTransform="matrix(1 0 0 1 -619.5996 -1362.9004)">
	<stop  offset="0" style="stop-color:#F78F3D"/>
	<stop  offset="0.4876" style="stop-color:#F05359"/>
	<stop  offset="1" style="stop-color:#D11F26"/>
</linearGradient>
<path fill="url(#SVGID_1_)" d="M53.783,14.965c-8.221-13.955-23.886-13.929-32.12,0c2.736-7.26,9.062-11.982,16.06-11.982
	C44.733,2.983,51.06,7.706,53.783,14.965L53.783,14.965z M37.815,28.08c-2.644,0-4.998-1.264-6.498-3.209h3.88
	c0.776,0.42,1.684,0.656,2.631,0.656c0.96,0,1.854-0.236,2.644-0.656h3.144H44.3C42.813,26.816,40.458,28.08,37.815,28.08
	L37.815,28.08z M37.815,34.551H19.94c-0.71,0-1.276-0.564-1.276-1.275l0,0c0-0.696,0.565-1.272,1.276-1.272h9.325
	c-0.934-0.619-1.815-1.328-2.591-2.146H13.732c-0.71,0-1.276-0.565-1.276-1.274l0,0c0-0.694,0.565-1.272,1.276-1.272h10.917
	c-0.486-0.765-0.907-1.58-1.25-2.437H8.234c-0.71,0-1.276-0.578-1.276-1.274c0-0.693,0.565-1.273,1.276-1.273h14.363h21.019h9.404
	C51.494,29.316,45.259,34.551,37.815,34.551L37.815,34.551z M27.371,19.701h26.293c2.065,0,2.302-1.17,2.025-2.71
	C54.229,8.704,48.311,2.43,39.63,1.26c-0.066-0.96-0.855-1.71-1.815-1.71s-1.75,0.736-1.829,1.67
	c-1.973,0.224-4.143,0.881-5.248,1.355c-6.366,2.907-9.996,7.602-11.561,14.573H1.276C0.565,17.149,0,17.728,0,18.426
	c0,0.709,0.565,1.275,1.276,1.275h22.583H27.371z"/>
<text transform="matrix(0.5933 0 0 1 56.7837 24.7061)" font-family="'ErasITC-Bold'" font-size="23.2295">MamasExpress</text>
</svg>
