<?xml version="1.0" encoding="utf-8"?>
<!-- Generator: Adobe Illustrator 24.1.1, SVG Export Plug-In . SVG Version: 6.00 Build 0)  -->
<svg version="1.1" id="Layer_1" xmlns="http://www.w3.org/2000/svg" xmlns:xlink="http://www.w3.org/1999/xlink" x="0px" y="0px"
	 viewBox="0 0 512 512" style="enable-background:new 0 0 512 512;" xml:space="preserve">
<style type="text/css">
	.st0{fill-rule:evenodd;clip-rule:evenodd;fill:#0077B5;}
</style>
<g>
	<path class="st0" d="M436.3,436.3h-75.9V317.5c0-28.3-0.5-64.8-39.4-64.8c-39.5,0-45.5,30.9-45.5,62.8v120.8h-75.9V191.9h72.8v33.4
		h1c10.1-19.2,34.9-39.5,71.8-39.5c76.9,0,91.1,50.6,91.1,116.4V436.3z M113.9,158.6c-24.4,0-44.1-19.7-44.1-44.1
		c0-24.3,19.7-44,44.1-44c24.3,0,44,19.7,44,44C157.9,138.8,138.2,158.6,113.9,158.6z M151.9,436.3h-76V191.9h76V436.3z M490.7,0
		H21.3C9.6,0,0,9.6,0,21.3v469.3C0,502.4,9.6,512,21.3,512h469.3c11.8,0,21.3-9.6,21.3-21.3V21.3C512,9.6,502.4,0,490.7,0z"/>
</g>
</svg>
